<mxfile host="65bd71144e">
    <diagram id="R_sZF8Ay_CDcDF0FnGPn" name="Search">
        <mxGraphModel dx="968" dy="890" grid="0" gridSize="10" guides="1" tooltips="1" connect="1" arrows="1" fold="1" page="0" pageScale="1" pageWidth="850" pageHeight="1100" math="0" shadow="0">
            <root>
                <mxCell id="0"/>
                <mxCell id="1" parent="0"/>
                <mxCell id="2" value="" style="rounded=1;whiteSpace=wrap;html=1;labelBackgroundColor=#6e6e0c;strokeColor=#144171;fontSize=16;fontColor=#d64343;fillColor=none;" parent="1" vertex="1">
                    <mxGeometry x="59" y="23" width="576" height="205" as="geometry"/>
                </mxCell>
                <mxCell id="3" style="edgeStyle=none;html=1;entryX=0.5;entryY=0;entryDx=0;entryDy=0;fontSize=16;exitX=0.5;exitY=1;exitDx=0;exitDy=0;" parent="1" source="21" target="5" edge="1">
                    <mxGeometry relative="1" as="geometry">
                        <mxPoint x="144" y="-13" as="sourcePoint"/>
                    </mxGeometry>
                </mxCell>
                <mxCell id="4" style="edgeStyle=none;html=1;exitX=0.5;exitY=1;exitDx=0;exitDy=0;entryX=0.556;entryY=-0.065;entryDx=0;entryDy=0;entryPerimeter=0;fontSize=16;fontColor=#d64343;" parent="1" source="5" target="17" edge="1">
                    <mxGeometry relative="1" as="geometry"/>
                </mxCell>
                <mxCell id="5" value="is Url" style="rhombus;whiteSpace=wrap;html=1;strokeWidth=2;fillWeight=-1;hachureGap=8;fillStyle=cross-hatch;fillColor=#006600;sketch=1;fontSize=16;" parent="1" vertex="1">
                    <mxGeometry x="84" y="66" width="120" height="60" as="geometry"/>
                </mxCell>
                <mxCell id="6" style="edgeStyle=none;html=1;exitX=0.5;exitY=1;exitDx=0;exitDy=0;entryX=0.5;entryY=0;entryDx=0;entryDy=0;fontSize=16;fontColor=#ffffff;" parent="1" source="7" target="18" edge="1">
                    <mxGeometry relative="1" as="geometry"/>
                </mxCell>
                <mxCell id="7" value="DNS Resolution&lt;br&gt;Resolved" style="rhombus;whiteSpace=wrap;html=1;strokeWidth=2;fillWeight=-1;hachureGap=8;fillStyle=cross-hatch;fillColor=#006600;sketch=1;fontSize=16;" parent="1" vertex="1">
                    <mxGeometry x="51" y="264" width="181" height="104" as="geometry"/>
                </mxCell>
                <mxCell id="8" value="Show typo Error msg" style="rounded=1;whiteSpace=wrap;html=1;strokeWidth=2;fillWeight=4;hachureGap=8;hachureAngle=45;fillColor=#e51400;sketch=1;fontSize=16;strokeColor=#B20000;fontStyle=1;fontColor=#ffffff;" parent="1" vertex="1">
                    <mxGeometry x="360" y="286" width="120" height="60" as="geometry"/>
                </mxCell>
                <mxCell id="9" value="" style="endArrow=classic;html=1;fontSize=16;fontColor=#FFFFFF;exitX=1;exitY=0.5;exitDx=0;exitDy=0;entryX=0;entryY=0.5;entryDx=0;entryDy=0;" parent="1" source="5" target="13" edge="1">
                    <mxGeometry relative="1" as="geometry">
                        <mxPoint x="232" y="98" as="sourcePoint"/>
                        <mxPoint x="365" y="94" as="targetPoint"/>
                    </mxGeometry>
                </mxCell>
                <mxCell id="10" value="No" style="edgeLabel;resizable=0;html=1;align=center;verticalAlign=middle;strokeColor=default;fontSize=16;fontColor=#FFFFFF;fillColor=default;" parent="9" connectable="0" vertex="1">
                    <mxGeometry relative="1" as="geometry"/>
                </mxCell>
                <mxCell id="11" style="edgeStyle=none;html=1;exitX=0.5;exitY=1;exitDx=0;exitDy=0;entryX=1.111;entryY=0.484;entryDx=0;entryDy=0;entryPerimeter=0;fontSize=16;fontColor=#d64343;" parent="1" source="13" target="17" edge="1">
                    <mxGeometry relative="1" as="geometry">
                        <Array as="points">
                            <mxPoint x="472" y="195"/>
                        </Array>
                    </mxGeometry>
                </mxCell>
                <mxCell id="12" style="edgeStyle=none;html=1;entryX=0.532;entryY=1.068;entryDx=0;entryDy=0;entryPerimeter=0;fontSize=16;fontColor=#FCF7F7;startArrow=none;" parent="1" source="45" target="41" edge="1">
                    <mxGeometry relative="1" as="geometry">
                        <Array as="points">
                            <mxPoint x="906" y="96"/>
                        </Array>
                    </mxGeometry>
                </mxCell>
                <mxCell id="13" value="&lt;span style=&quot;font-weight: 700;&quot;&gt;SearchQueryHandling Generate url On The basis of Seleceted Search Engine&amp;nbsp;&lt;br&gt;&lt;/span&gt;" style="rounded=1;whiteSpace=wrap;html=1;strokeWidth=2;fillWeight=4;hachureGap=8;hachureAngle=45;fillColor=none;sketch=1;strokeColor=default;fontSize=16;fontColor=#FFFFFF;" parent="1" vertex="1">
                    <mxGeometry x="351" y="52" width="241" height="88" as="geometry"/>
                </mxCell>
                <mxCell id="14" value="" style="endArrow=classic;html=1;fontSize=16;fontColor=#FFFFFF;exitX=1;exitY=0.5;exitDx=0;exitDy=0;entryX=0;entryY=0.5;entryDx=0;entryDy=0;" parent="1" source="7" target="8" edge="1">
                    <mxGeometry relative="1" as="geometry">
                        <mxPoint x="654" y="401" as="sourcePoint"/>
                        <mxPoint x="754" y="401" as="targetPoint"/>
                    </mxGeometry>
                </mxCell>
                <mxCell id="15" value="No" style="edgeLabel;resizable=0;html=1;align=center;verticalAlign=middle;labelBackgroundColor=default;strokeColor=default;fontSize=16;fontColor=#FFFFFF;fillColor=default;" parent="14" connectable="0" vertex="1">
                    <mxGeometry relative="1" as="geometry"/>
                </mxCell>
                <mxCell id="16" style="edgeStyle=none;html=1;fontSize=16;fontColor=#d64343;entryX=0.5;entryY=0;entryDx=0;entryDy=0;" parent="1" source="17" target="7" edge="1">
                    <mxGeometry relative="1" as="geometry">
                        <mxPoint x="142" y="274" as="targetPoint"/>
                    </mxGeometry>
                </mxCell>
                <mxCell id="17" value="url" style="text;html=1;align=center;verticalAlign=middle;resizable=0;points=[];autosize=1;strokeColor=none;fillColor=none;fontSize=16;fontColor=#d64343;" parent="1" vertex="1">
                    <mxGeometry x="124" y="180" width="36" height="31" as="geometry"/>
                </mxCell>
                <mxCell id="18" value="Request url" style="rounded=1;whiteSpace=wrap;html=1;strokeWidth=2;fillWeight=4;hachureGap=8;hachureAngle=45;fillColor=none;sketch=1;labelBackgroundColor=default;strokeColor=default;fontSize=16;fontColor=#ffffff;" parent="1" vertex="1">
                    <mxGeometry x="94" y="408" width="95" height="37" as="geometry"/>
                </mxCell>
                <mxCell id="19" style="edgeStyle=none;html=1;fontSize=16;fontColor=#ffffff;entryX=0;entryY=0.5;entryDx=0;entryDy=0;" parent="1" source="20" target="21" edge="1">
                    <mxGeometry relative="1" as="geometry">
                        <mxPoint x="142" y="-137" as="targetPoint"/>
                        <Array as="points">
                            <mxPoint x="50" y="-34"/>
                        </Array>
                    </mxGeometry>
                </mxCell>
                <mxCell id="20" value="&lt;div style=&quot;color: rgb(204, 204, 204); background-color: rgb(31, 31, 31); font-family: Consolas, &amp;quot;Courier New&amp;quot;, monospace; font-size: 14px; line-height: 19px;&quot;&gt;&lt;span style=&quot;color: #569cd6;font-weight: bold;&quot;&gt;Text Search&lt;/span&gt;&lt;/div&gt;" style="text;html=1;align=center;verticalAlign=middle;resizable=0;points=[];autosize=1;strokeColor=#314354;fillColor=#647687;fontSize=16;fontColor=#ffffff;" parent="1" vertex="1">
                    <mxGeometry x="-1" y="-195" width="103" height="31" as="geometry"/>
                </mxCell>
                <mxCell id="21" value="Textual Data" style="text;strokeColor=none;fillColor=none;html=1;fontSize=16;fontStyle=0;verticalAlign=middle;align=center;labelBackgroundColor=default;fontColor=#ffffff;" parent="1" vertex="1">
                    <mxGeometry x="94" y="-54" width="100" height="40" as="geometry"/>
                </mxCell>
                <mxCell id="22" style="edgeStyle=none;html=1;entryX=0.5;entryY=0;entryDx=0;entryDy=0;fontSize=16;fontColor=#ffffff;" parent="1" source="23" target="25" edge="1">
                    <mxGeometry relative="1" as="geometry"/>
                </mxCell>
                <mxCell id="23" value="&lt;div style=&quot;color: rgb(204, 204, 204); background-color: rgb(31, 31, 31); font-family: Consolas, &amp;quot;Courier New&amp;quot;, monospace; font-size: 14px; line-height: 19px;&quot;&gt;&lt;span style=&quot;color: #569cd6;font-weight: bold;&quot;&gt;Voice Search&lt;/span&gt;&lt;/div&gt;" style="text;html=1;align=center;verticalAlign=middle;resizable=0;points=[];autosize=1;strokeColor=#314354;fillColor=#647687;fontSize=16;fontColor=#ffffff;" parent="1" vertex="1">
                    <mxGeometry x="221.5" y="-198" width="110" height="31" as="geometry"/>
                </mxCell>
                <mxCell id="24" style="edgeStyle=none;html=1;exitX=0.5;exitY=1;exitDx=0;exitDy=0;entryX=1;entryY=0.5;entryDx=0;entryDy=0;fontSize=16;fontColor=#ffffff;" parent="1" source="25" target="21" edge="1">
                    <mxGeometry relative="1" as="geometry">
                        <Array as="points">
                            <mxPoint x="277" y="-34"/>
                        </Array>
                    </mxGeometry>
                </mxCell>
                <mxCell id="25" value="Speach to text Engine" style="text;strokeColor=#3A5431;fillColor=#6d8764;html=1;fontSize=16;fontStyle=0;verticalAlign=middle;align=center;labelBackgroundColor=none;fontColor=#ffffff;autosize=1;" parent="1" vertex="1">
                    <mxGeometry x="190" y="-113" width="175" height="31" as="geometry"/>
                </mxCell>
                <mxCell id="26" value="Url parser" style="text;html=1;align=center;verticalAlign=middle;resizable=0;points=[];autosize=1;strokeColor=none;fillColor=none;fontSize=16;fontColor=#0764ab;" parent="1" vertex="1">
                    <mxGeometry x="500" y="-8" width="88" height="31" as="geometry"/>
                </mxCell>
                <mxCell id="27" value="&lt;font color=&quot;#a9ab07&quot;&gt;TODO :How Request are&lt;br&gt;performed and pages &lt;br&gt;are rendered&lt;/font&gt;" style="text;html=1;align=center;verticalAlign=middle;resizable=0;points=[];autosize=1;strokeColor=none;fillColor=none;fontSize=16;fontColor=#0764ab;" parent="1" vertex="1">
                    <mxGeometry x="322" y="403" width="196" height="70" as="geometry"/>
                </mxCell>
                <mxCell id="28" value="" style="shape=table;startSize=0;container=1;collapsible=0;childLayout=tableLayout;labelBackgroundColor=none;strokeColor=#144171;fontSize=16;fontColor=#FCF7F7;fillColor=default;" parent="1" vertex="1">
                    <mxGeometry x="485" y="-321" width="790.5263157894735" height="200" as="geometry"/>
                </mxCell>
                <mxCell id="29" style="shape=tableRow;horizontal=0;startSize=0;swimlaneHead=0;swimlaneBody=0;top=0;left=0;bottom=0;right=0;collapsible=0;dropTarget=0;fillColor=none;points=[[0,0.5],[1,0.5]];portConstraint=eastwest;labelBackgroundColor=none;strokeColor=#144171;fontSize=16;fontColor=#FCF7F7;" parent="28" vertex="1">
                    <mxGeometry width="790.5263157894735" height="40" as="geometry"/>
                </mxCell>
                <mxCell id="30" value="Search Engine" style="shape=partialRectangle;html=1;whiteSpace=wrap;connectable=0;overflow=hidden;fillColor=none;top=0;left=0;bottom=0;right=0;pointerEvents=1;labelBackgroundColor=none;strokeColor=#144171;fontSize=16;fontColor=#FCF7F7;" parent="29" vertex="1">
                    <mxGeometry width="144" height="40" as="geometry">
                        <mxRectangle width="144" height="40" as="alternateBounds"/>
                    </mxGeometry>
                </mxCell>
                <mxCell id="31" value="Search Query for arduino" style="shape=partialRectangle;html=1;whiteSpace=wrap;connectable=0;overflow=hidden;fillColor=none;top=0;left=0;bottom=0;right=0;pointerEvents=1;labelBackgroundColor=none;strokeColor=#144171;fontSize=16;fontColor=#FCF7F7;" parent="29" vertex="1">
                    <mxGeometry x="144" width="647" height="40" as="geometry">
                        <mxRectangle width="647" height="40" as="alternateBounds"/>
                    </mxGeometry>
                </mxCell>
                <mxCell id="32" value="" style="shape=tableRow;horizontal=0;startSize=0;swimlaneHead=0;swimlaneBody=0;top=0;left=0;bottom=0;right=0;collapsible=0;dropTarget=0;fillColor=none;points=[[0,0.5],[1,0.5]];portConstraint=eastwest;labelBackgroundColor=none;strokeColor=#144171;fontSize=16;fontColor=#FCF7F7;" parent="28" vertex="1">
                    <mxGeometry y="40" width="790.5263157894735" height="40" as="geometry"/>
                </mxCell>
                <mxCell id="33" value="Google" style="shape=partialRectangle;html=1;whiteSpace=wrap;connectable=0;overflow=hidden;fillColor=none;top=0;left=0;bottom=0;right=0;pointerEvents=1;labelBackgroundColor=none;strokeColor=#144171;fontSize=16;fontColor=#FCF7F7;" parent="32" vertex="1">
                    <mxGeometry width="144" height="40" as="geometry">
                        <mxRectangle width="144" height="40" as="alternateBounds"/>
                    </mxGeometry>
                </mxCell>
                <UserObject label="https://www.google.com/search?q=arduino&amp;amp;oq=arduino&amp;amp;sourceid=chrome&amp;amp;ie=UTF-8" link="https://www.google.com/search?q=arduino&amp;oq=arduino&amp;gs_lcrp=EgZjaHJvbWUqDwgAEEUYOxiDARixAxiABDIPCAAQRRg7GIMBGLEDGIAEMgoIARAAGLEDGIAEMg0IAhAAGIMBGLEDGIAEMg0IAxAAGIMBGLEDGIAEMg0IBBAAGIMBGLEDGIAEMgoIBRAAGLEDGIAEMhAIBhAuGIMBGLEDGIAEGOUEMg0IBxAAGIMBGLEDGIAEMg0ICBAAGIMBGLEDGIAEMg0ICRAAGIMBGLEDGIoF0gEINjA2MmowajGoAgCwAgA&amp;sourceid=chrome&amp;ie=UTF-8" id="34">
                    <mxCell style="shape=partialRectangle;html=1;whiteSpace=wrap;connectable=0;overflow=hidden;fillColor=none;top=0;left=0;bottom=0;right=0;pointerEvents=1;labelBackgroundColor=none;strokeColor=#144171;fontSize=16;fontColor=#FCF7F7;expand=1;recursiveResize=1;autosize=0;fixedWidth=1;align=left;" parent="32" vertex="1">
                        <mxGeometry x="144" width="647" height="40" as="geometry">
                            <mxRectangle width="647" height="40" as="alternateBounds"/>
                        </mxGeometry>
                    </mxCell>
                </UserObject>
                <mxCell id="35" value="" style="shape=tableRow;horizontal=0;startSize=0;swimlaneHead=0;swimlaneBody=0;top=0;left=0;bottom=0;right=0;collapsible=0;dropTarget=0;fillColor=none;points=[[0,0.5],[1,0.5]];portConstraint=eastwest;labelBackgroundColor=none;strokeColor=#144171;fontSize=16;fontColor=#FCF7F7;" parent="28" vertex="1">
                    <mxGeometry y="80" width="790.5263157894735" height="40" as="geometry"/>
                </mxCell>
                <mxCell id="36" value="Yahoo" style="shape=partialRectangle;html=1;whiteSpace=wrap;connectable=0;overflow=hidden;fillColor=none;top=0;left=0;bottom=0;right=0;pointerEvents=1;labelBackgroundColor=none;strokeColor=#144171;fontSize=16;fontColor=#FCF7F7;" parent="35" vertex="1">
                    <mxGeometry width="144" height="40" as="geometry">
                        <mxRectangle width="144" height="40" as="alternateBounds"/>
                    </mxGeometry>
                </mxCell>
                <mxCell id="37" value="https://in.search.yahoo.com/search?ei=UTF-8&amp;amp;fr=crmas&amp;amp;p=arduino" style="shape=partialRectangle;html=1;whiteSpace=wrap;connectable=0;overflow=hidden;fillColor=none;top=0;left=0;bottom=0;right=0;pointerEvents=1;labelBackgroundColor=none;strokeColor=#144171;fontSize=16;fontColor=#FCF7F7;align=left;" parent="35" vertex="1">
                    <mxGeometry x="144" width="647" height="40" as="geometry">
                        <mxRectangle width="647" height="40" as="alternateBounds"/>
                    </mxGeometry>
                </mxCell>
                <mxCell id="38" value="" style="shape=tableRow;horizontal=0;startSize=0;swimlaneHead=0;swimlaneBody=0;top=0;left=0;bottom=0;right=0;collapsible=0;dropTarget=0;fillColor=none;points=[[0,0.5],[1,0.5]];portConstraint=eastwest;labelBackgroundColor=none;strokeColor=#144171;fontSize=16;fontColor=#FCF7F7;" parent="28" vertex="1">
                    <mxGeometry y="120" width="790.5263157894735" height="40" as="geometry"/>
                </mxCell>
                <mxCell id="39" value="DuckDuckGo" style="shape=partialRectangle;html=1;whiteSpace=wrap;connectable=0;overflow=hidden;fillColor=none;top=0;left=0;bottom=0;right=0;pointerEvents=1;labelBackgroundColor=none;strokeColor=#144171;fontSize=16;fontColor=#FCF7F7;" parent="38" vertex="1">
                    <mxGeometry width="144" height="40" as="geometry">
                        <mxRectangle width="144" height="40" as="alternateBounds"/>
                    </mxGeometry>
                </mxCell>
                <mxCell id="40" value="https://duckduckgo.com/?q=arduino&amp;amp;ia=web" style="shape=partialRectangle;html=1;whiteSpace=wrap;connectable=0;overflow=hidden;fillColor=none;top=0;left=0;bottom=0;right=0;pointerEvents=1;labelBackgroundColor=none;strokeColor=#144171;fontSize=16;fontColor=#FCF7F7;align=left;" parent="38" vertex="1">
                    <mxGeometry x="144" width="647" height="40" as="geometry">
                        <mxRectangle width="647" height="40" as="alternateBounds"/>
                    </mxGeometry>
                </mxCell>
                <mxCell id="41" value="" style="shape=tableRow;horizontal=0;startSize=0;swimlaneHead=0;swimlaneBody=0;top=0;left=0;bottom=0;right=0;collapsible=0;dropTarget=0;fillColor=none;points=[[0,0.5],[1,0.5]];portConstraint=eastwest;labelBackgroundColor=none;strokeColor=#144171;fontSize=16;fontColor=#FCF7F7;" parent="28" vertex="1">
                    <mxGeometry y="160" width="790.5263157894735" height="40" as="geometry"/>
                </mxCell>
                <mxCell id="42" value="Bing" style="shape=partialRectangle;html=1;whiteSpace=wrap;connectable=0;overflow=hidden;fillColor=none;top=0;left=0;bottom=0;right=0;pointerEvents=1;labelBackgroundColor=none;strokeColor=#144171;fontSize=16;fontColor=#FCF7F7;" parent="41" vertex="1">
                    <mxGeometry width="144" height="40" as="geometry">
                        <mxRectangle width="144" height="40" as="alternateBounds"/>
                    </mxGeometry>
                </mxCell>
                <mxCell id="43" value="https://www.bing.com/search?q=arduino&amp;amp;PC=U316&amp;amp;FORM=CHROMN" style="shape=partialRectangle;html=1;whiteSpace=wrap;connectable=0;overflow=hidden;fillColor=none;top=0;left=0;bottom=0;right=0;pointerEvents=1;labelBackgroundColor=none;strokeColor=#144171;fontSize=16;fontColor=#FCF7F7;align=left;" parent="41" vertex="1">
                    <mxGeometry x="144" width="647" height="40" as="geometry">
                        <mxRectangle width="647" height="40" as="alternateBounds"/>
                    </mxGeometry>
                </mxCell>
                <mxCell id="44" value="" style="edgeStyle=none;html=1;fontSize=16;fontColor=#FCF7F7;endArrow=none;" parent="1" source="13" target="45" edge="1">
                    <mxGeometry relative="1" as="geometry">
                        <mxPoint x="592" y="96.00000000000023" as="sourcePoint"/>
                        <mxPoint x="905.56" y="-118.2800000000002" as="targetPoint"/>
                        <Array as="points"/>
                    </mxGeometry>
                </mxCell>
                <mxCell id="45" value="Example" style="text;html=1;align=center;verticalAlign=middle;resizable=0;points=[];autosize=1;strokeColor=none;fillColor=none;fontSize=16;fontColor=#FCF7F7;" parent="1" vertex="1">
                    <mxGeometry x="722" y="84" width="80" height="31" as="geometry"/>
                </mxCell>
            </root>
        </mxGraphModel>
    </diagram>
    <diagram id="KpihmeElL2CD6gFL6J88" name="HB Storage">
        <mxGraphModel dx="1211" dy="700" grid="0" gridSize="10" guides="1" tooltips="1" connect="1" arrows="1" fold="1" page="0" pageScale="1" pageWidth="850" pageHeight="1100" math="0" shadow="0">
            <root>
                <mxCell id="0"/>
                <mxCell id="1" parent="0"/>
                <mxCell id="nUH0cTOVDgDA3d1hbOjg-1" value="Bookmark &amp;amp; History are stored in &lt;br style=&quot;font-size: 16px;&quot;&gt;serverless database sqlite3 &lt;br style=&quot;font-size: 16px;&quot;&gt;in client local machine" style="text;html=1;align=center;verticalAlign=middle;resizable=0;points=[];autosize=1;strokeColor=#006EAF;fillColor=#1ba1e2;fontSize=16;fontColor=#ffffff;" vertex="1" parent="1">
                    <mxGeometry x="501" y="83" width="253" height="70" as="geometry"/>
                </mxCell>
                <mxCell id="nUH0cTOVDgDA3d1hbOjg-2" value="" style="group;flipH=1;" vertex="1" connectable="0" parent="1">
                    <mxGeometry x="246" y="79" width="120" height="119" as="geometry"/>
                </mxCell>
                <mxCell id="nUH0cTOVDgDA3d1hbOjg-3" value="" style="shape=table;startSize=0;container=1;collapsible=0;childLayout=tableLayout;fontSize=13;" vertex="1" parent="nUH0cTOVDgDA3d1hbOjg-2">
                    <mxGeometry y="39" width="120" height="80" as="geometry"/>
                </mxCell>
                <mxCell id="nUH0cTOVDgDA3d1hbOjg-4" value="" style="shape=tableRow;horizontal=0;startSize=0;swimlaneHead=0;swimlaneBody=0;top=0;left=0;bottom=0;right=0;collapsible=0;dropTarget=0;fillColor=none;points=[[0,0.5],[1,0.5]];portConstraint=eastwest;fontSize=13;" vertex="1" parent="nUH0cTOVDgDA3d1hbOjg-3">
                    <mxGeometry width="120" height="40" as="geometry"/>
                </mxCell>
                <mxCell id="nUH0cTOVDgDA3d1hbOjg-5" value="F" style="shape=partialRectangle;html=1;whiteSpace=wrap;connectable=0;overflow=hidden;fillColor=none;top=0;left=0;bottom=0;right=0;pointerEvents=1;fontSize=13;" vertex="1" parent="nUH0cTOVDgDA3d1hbOjg-4">
                    <mxGeometry width="60" height="40" as="geometry">
                        <mxRectangle width="60" height="40" as="alternateBounds"/>
                    </mxGeometry>
                </mxCell>
                <mxCell id="nUH0cTOVDgDA3d1hbOjg-6" value="Folder" style="shape=partialRectangle;html=1;whiteSpace=wrap;connectable=0;overflow=hidden;fillColor=none;top=0;left=0;bottom=0;right=0;pointerEvents=1;fontSize=13;" vertex="1" parent="nUH0cTOVDgDA3d1hbOjg-4">
                    <mxGeometry x="60" width="60" height="40" as="geometry">
                        <mxRectangle width="60" height="40" as="alternateBounds"/>
                    </mxGeometry>
                </mxCell>
                <mxCell id="nUH0cTOVDgDA3d1hbOjg-7" value="" style="shape=tableRow;horizontal=0;startSize=0;swimlaneHead=0;swimlaneBody=0;top=0;left=0;bottom=0;right=0;collapsible=0;dropTarget=0;fillColor=none;points=[[0,0.5],[1,0.5]];portConstraint=eastwest;fontSize=13;" vertex="1" parent="nUH0cTOVDgDA3d1hbOjg-3">
                    <mxGeometry y="40" width="120" height="40" as="geometry"/>
                </mxCell>
                <mxCell id="nUH0cTOVDgDA3d1hbOjg-8" value="S" style="shape=partialRectangle;html=1;whiteSpace=wrap;connectable=0;overflow=hidden;fillColor=none;top=0;left=0;bottom=0;right=0;pointerEvents=1;fontSize=13;" vertex="1" parent="nUH0cTOVDgDA3d1hbOjg-7">
                    <mxGeometry width="60" height="40" as="geometry">
                        <mxRectangle width="60" height="40" as="alternateBounds"/>
                    </mxGeometry>
                </mxCell>
                <mxCell id="nUH0cTOVDgDA3d1hbOjg-9" value="Site" style="shape=partialRectangle;html=1;whiteSpace=wrap;connectable=0;overflow=hidden;fillColor=none;top=0;left=0;bottom=0;right=0;pointerEvents=1;fontSize=13;" vertex="1" parent="nUH0cTOVDgDA3d1hbOjg-7">
                    <mxGeometry x="60" width="60" height="40" as="geometry">
                        <mxRectangle width="60" height="40" as="alternateBounds"/>
                    </mxGeometry>
                </mxCell>
                <mxCell id="nUH0cTOVDgDA3d1hbOjg-10" value="BookMark Types" style="text;html=1;align=center;verticalAlign=middle;resizable=0;points=[];autosize=1;strokeColor=#6F0000;fillColor=#a20025;fontSize=13;fontColor=#ffffff;" vertex="1" parent="nUH0cTOVDgDA3d1hbOjg-2">
                    <mxGeometry x="2.5" width="115" height="28" as="geometry"/>
                </mxCell>
                <mxCell id="nUH0cTOVDgDA3d1hbOjg-11" value="" style="group;flipH=1;" vertex="1" connectable="0" parent="1">
                    <mxGeometry x="-2" y="228" width="300" height="250" as="geometry"/>
                </mxCell>
                <mxCell id="nUH0cTOVDgDA3d1hbOjg-12" value="" style="shape=table;startSize=0;container=1;collapsible=0;childLayout=tableLayout;fontSize=13;" vertex="1" parent="nUH0cTOVDgDA3d1hbOjg-11">
                    <mxGeometry y="50" width="300" height="200" as="geometry"/>
                </mxCell>
                <mxCell id="nUH0cTOVDgDA3d1hbOjg-13" value="" style="shape=tableRow;horizontal=0;startSize=0;swimlaneHead=0;swimlaneBody=0;top=0;left=0;bottom=0;right=0;collapsible=0;dropTarget=0;fillColor=none;points=[[0,0.5],[1,0.5]];portConstraint=eastwest;fontSize=13;" vertex="1" parent="nUH0cTOVDgDA3d1hbOjg-12">
                    <mxGeometry width="300" height="40" as="geometry"/>
                </mxCell>
                <mxCell id="nUH0cTOVDgDA3d1hbOjg-14" value="pk" style="shape=partialRectangle;html=1;whiteSpace=wrap;connectable=0;overflow=hidden;fillColor=none;top=0;left=0;bottom=0;right=0;pointerEvents=1;fontSize=13;" vertex="1" parent="nUH0cTOVDgDA3d1hbOjg-13">
                    <mxGeometry width="40" height="40" as="geometry">
                        <mxRectangle width="40" height="40" as="alternateBounds"/>
                    </mxGeometry>
                </mxCell>
                <mxCell id="nUH0cTOVDgDA3d1hbOjg-15" value="ParentId" style="shape=partialRectangle;html=1;whiteSpace=wrap;connectable=0;overflow=hidden;fillColor=none;top=0;left=0;bottom=0;right=0;pointerEvents=1;fontSize=13;" vertex="1" parent="nUH0cTOVDgDA3d1hbOjg-13">
                    <mxGeometry x="40" width="60" height="40" as="geometry">
                        <mxRectangle width="60" height="40" as="alternateBounds"/>
                    </mxGeometry>
                </mxCell>
                <mxCell id="nUH0cTOVDgDA3d1hbOjg-16" value="title" style="shape=partialRectangle;html=1;whiteSpace=wrap;connectable=0;overflow=hidden;fillColor=none;top=0;left=0;bottom=0;right=0;pointerEvents=1;fontSize=13;" vertex="1" parent="nUH0cTOVDgDA3d1hbOjg-13">
                    <mxGeometry x="100" width="80" height="40" as="geometry">
                        <mxRectangle width="80" height="40" as="alternateBounds"/>
                    </mxGeometry>
                </mxCell>
                <mxCell id="nUH0cTOVDgDA3d1hbOjg-17" value="url" style="shape=partialRectangle;html=1;whiteSpace=wrap;connectable=0;overflow=hidden;fillColor=none;top=0;left=0;bottom=0;right=0;pointerEvents=1;fontSize=13;" vertex="1" parent="nUH0cTOVDgDA3d1hbOjg-13">
                    <mxGeometry x="180" width="80" height="40" as="geometry">
                        <mxRectangle width="80" height="40" as="alternateBounds"/>
                    </mxGeometry>
                </mxCell>
                <mxCell id="nUH0cTOVDgDA3d1hbOjg-18" value="type" style="shape=partialRectangle;html=1;whiteSpace=wrap;connectable=0;overflow=hidden;fillColor=none;top=0;left=0;bottom=0;right=0;pointerEvents=1;fontSize=13;" vertex="1" parent="nUH0cTOVDgDA3d1hbOjg-13">
                    <mxGeometry x="260" width="40" height="40" as="geometry">
                        <mxRectangle width="40" height="40" as="alternateBounds"/>
                    </mxGeometry>
                </mxCell>
                <mxCell id="nUH0cTOVDgDA3d1hbOjg-19" value="" style="shape=tableRow;horizontal=0;startSize=0;swimlaneHead=0;swimlaneBody=0;top=0;left=0;bottom=0;right=0;collapsible=0;dropTarget=0;fillColor=none;points=[[0,0.5],[1,0.5]];portConstraint=eastwest;fontSize=13;" vertex="1" parent="nUH0cTOVDgDA3d1hbOjg-12">
                    <mxGeometry y="40" width="300" height="40" as="geometry"/>
                </mxCell>
                <mxCell id="nUH0cTOVDgDA3d1hbOjg-20" value="5" style="shape=partialRectangle;html=1;whiteSpace=wrap;connectable=0;overflow=hidden;fillColor=none;top=0;left=0;bottom=0;right=0;pointerEvents=1;fontSize=13;" vertex="1" parent="nUH0cTOVDgDA3d1hbOjg-19">
                    <mxGeometry width="40" height="40" as="geometry">
                        <mxRectangle width="40" height="40" as="alternateBounds"/>
                    </mxGeometry>
                </mxCell>
                <mxCell id="nUH0cTOVDgDA3d1hbOjg-21" value="0" style="shape=partialRectangle;html=1;whiteSpace=wrap;connectable=0;overflow=hidden;fillColor=none;top=0;left=0;bottom=0;right=0;pointerEvents=1;fontSize=13;" vertex="1" parent="nUH0cTOVDgDA3d1hbOjg-19">
                    <mxGeometry x="40" width="60" height="40" as="geometry">
                        <mxRectangle width="60" height="40" as="alternateBounds"/>
                    </mxGeometry>
                </mxCell>
                <mxCell id="nUH0cTOVDgDA3d1hbOjg-22" value="Web" style="shape=partialRectangle;html=1;whiteSpace=wrap;connectable=0;overflow=hidden;fillColor=none;top=0;left=0;bottom=0;right=0;pointerEvents=1;fontSize=13;" vertex="1" parent="nUH0cTOVDgDA3d1hbOjg-19">
                    <mxGeometry x="100" width="80" height="40" as="geometry">
                        <mxRectangle width="80" height="40" as="alternateBounds"/>
                    </mxGeometry>
                </mxCell>
                <mxCell id="nUH0cTOVDgDA3d1hbOjg-23" value="NULL" style="shape=partialRectangle;html=1;whiteSpace=wrap;connectable=0;overflow=hidden;fillColor=none;top=0;left=0;bottom=0;right=0;pointerEvents=1;fontSize=13;" vertex="1" parent="nUH0cTOVDgDA3d1hbOjg-19">
                    <mxGeometry x="180" width="80" height="40" as="geometry">
                        <mxRectangle width="80" height="40" as="alternateBounds"/>
                    </mxGeometry>
                </mxCell>
                <mxCell id="nUH0cTOVDgDA3d1hbOjg-24" value="F" style="shape=partialRectangle;html=1;whiteSpace=wrap;connectable=0;overflow=hidden;fillColor=none;top=0;left=0;bottom=0;right=0;pointerEvents=1;fontSize=13;" vertex="1" parent="nUH0cTOVDgDA3d1hbOjg-19">
                    <mxGeometry x="260" width="40" height="40" as="geometry">
                        <mxRectangle width="40" height="40" as="alternateBounds"/>
                    </mxGeometry>
                </mxCell>
                <mxCell id="nUH0cTOVDgDA3d1hbOjg-25" value="" style="shape=tableRow;horizontal=0;startSize=0;swimlaneHead=0;swimlaneBody=0;top=0;left=0;bottom=0;right=0;collapsible=0;dropTarget=0;fillColor=none;points=[[0,0.5],[1,0.5]];portConstraint=eastwest;fontSize=13;" vertex="1" parent="nUH0cTOVDgDA3d1hbOjg-12">
                    <mxGeometry y="80" width="300" height="40" as="geometry"/>
                </mxCell>
                <mxCell id="nUH0cTOVDgDA3d1hbOjg-26" value="6" style="shape=partialRectangle;html=1;whiteSpace=wrap;connectable=0;overflow=hidden;fillColor=none;top=0;left=0;bottom=0;right=0;pointerEvents=1;fontSize=13;" vertex="1" parent="nUH0cTOVDgDA3d1hbOjg-25">
                    <mxGeometry width="40" height="40" as="geometry">
                        <mxRectangle width="40" height="40" as="alternateBounds"/>
                    </mxGeometry>
                </mxCell>
                <mxCell id="nUH0cTOVDgDA3d1hbOjg-27" value="5" style="shape=partialRectangle;html=1;whiteSpace=wrap;connectable=0;overflow=hidden;fillColor=none;top=0;left=0;bottom=0;right=0;pointerEvents=1;fontSize=13;" vertex="1" parent="nUH0cTOVDgDA3d1hbOjg-25">
                    <mxGeometry x="40" width="60" height="40" as="geometry">
                        <mxRectangle width="60" height="40" as="alternateBounds"/>
                    </mxGeometry>
                </mxCell>
                <mxCell id="nUH0cTOVDgDA3d1hbOjg-28" value="Security" style="shape=partialRectangle;html=1;whiteSpace=wrap;connectable=0;overflow=hidden;fillColor=none;top=0;left=0;bottom=0;right=0;pointerEvents=1;fontSize=13;" vertex="1" parent="nUH0cTOVDgDA3d1hbOjg-25">
                    <mxGeometry x="100" width="80" height="40" as="geometry">
                        <mxRectangle width="80" height="40" as="alternateBounds"/>
                    </mxGeometry>
                </mxCell>
                <mxCell id="nUH0cTOVDgDA3d1hbOjg-29" value="NULL" style="shape=partialRectangle;html=1;whiteSpace=wrap;connectable=0;overflow=hidden;fillColor=none;top=0;left=0;bottom=0;right=0;pointerEvents=1;fontSize=13;" vertex="1" parent="nUH0cTOVDgDA3d1hbOjg-25">
                    <mxGeometry x="180" width="80" height="40" as="geometry">
                        <mxRectangle width="80" height="40" as="alternateBounds"/>
                    </mxGeometry>
                </mxCell>
                <mxCell id="nUH0cTOVDgDA3d1hbOjg-30" value="F" style="shape=partialRectangle;html=1;whiteSpace=wrap;connectable=0;overflow=hidden;fillColor=none;top=0;left=0;bottom=0;right=0;pointerEvents=1;fontSize=13;" vertex="1" parent="nUH0cTOVDgDA3d1hbOjg-25">
                    <mxGeometry x="260" width="40" height="40" as="geometry">
                        <mxRectangle width="40" height="40" as="alternateBounds"/>
                    </mxGeometry>
                </mxCell>
                <mxCell id="nUH0cTOVDgDA3d1hbOjg-31" value="" style="shape=tableRow;horizontal=0;startSize=0;swimlaneHead=0;swimlaneBody=0;top=0;left=0;bottom=0;right=0;collapsible=0;dropTarget=0;fillColor=none;points=[[0,0.5],[1,0.5]];portConstraint=eastwest;fontSize=13;" vertex="1" parent="nUH0cTOVDgDA3d1hbOjg-12">
                    <mxGeometry y="120" width="300" height="40" as="geometry"/>
                </mxCell>
                <mxCell id="nUH0cTOVDgDA3d1hbOjg-32" value="7" style="shape=partialRectangle;html=1;whiteSpace=wrap;connectable=0;overflow=hidden;fillColor=none;top=0;left=0;bottom=0;right=0;pointerEvents=1;fontSize=13;" vertex="1" parent="nUH0cTOVDgDA3d1hbOjg-31">
                    <mxGeometry width="40" height="40" as="geometry">
                        <mxRectangle width="40" height="40" as="alternateBounds"/>
                    </mxGeometry>
                </mxCell>
                <mxCell id="nUH0cTOVDgDA3d1hbOjg-33" value="1" style="shape=partialRectangle;html=1;whiteSpace=wrap;connectable=0;overflow=hidden;fillColor=none;top=0;left=0;bottom=0;right=0;pointerEvents=1;fontSize=13;" vertex="1" parent="nUH0cTOVDgDA3d1hbOjg-31">
                    <mxGeometry x="40" width="60" height="40" as="geometry">
                        <mxRectangle width="60" height="40" as="alternateBounds"/>
                    </mxGeometry>
                </mxCell>
                <mxCell id="nUH0cTOVDgDA3d1hbOjg-34" value="Portal" style="shape=partialRectangle;html=1;whiteSpace=wrap;connectable=0;overflow=hidden;fillColor=none;top=0;left=0;bottom=0;right=0;pointerEvents=1;fontSize=13;" vertex="1" parent="nUH0cTOVDgDA3d1hbOjg-31">
                    <mxGeometry x="100" width="80" height="40" as="geometry">
                        <mxRectangle width="80" height="40" as="alternateBounds"/>
                    </mxGeometry>
                </mxCell>
                <mxCell id="nUH0cTOVDgDA3d1hbOjg-35" value="prtl.com" style="shape=partialRectangle;html=1;whiteSpace=wrap;connectable=0;overflow=hidden;fillColor=none;top=0;left=0;bottom=0;right=0;pointerEvents=1;fontSize=13;" vertex="1" parent="nUH0cTOVDgDA3d1hbOjg-31">
                    <mxGeometry x="180" width="80" height="40" as="geometry">
                        <mxRectangle width="80" height="40" as="alternateBounds"/>
                    </mxGeometry>
                </mxCell>
                <mxCell id="nUH0cTOVDgDA3d1hbOjg-36" value="S" style="shape=partialRectangle;html=1;whiteSpace=wrap;connectable=0;overflow=hidden;fillColor=none;top=0;left=0;bottom=0;right=0;pointerEvents=1;fontSize=13;" vertex="1" parent="nUH0cTOVDgDA3d1hbOjg-31">
                    <mxGeometry x="260" width="40" height="40" as="geometry">
                        <mxRectangle width="40" height="40" as="alternateBounds"/>
                    </mxGeometry>
                </mxCell>
                <mxCell id="nUH0cTOVDgDA3d1hbOjg-37" value="" style="shape=tableRow;horizontal=0;startSize=0;swimlaneHead=0;swimlaneBody=0;top=0;left=0;bottom=0;right=0;collapsible=0;dropTarget=0;fillColor=none;points=[[0,0.5],[1,0.5]];portConstraint=eastwest;fontSize=13;" vertex="1" parent="nUH0cTOVDgDA3d1hbOjg-12">
                    <mxGeometry y="160" width="300" height="40" as="geometry"/>
                </mxCell>
                <mxCell id="nUH0cTOVDgDA3d1hbOjg-38" value="8" style="shape=partialRectangle;html=1;whiteSpace=wrap;connectable=0;overflow=hidden;fillColor=none;top=0;left=0;bottom=0;right=0;pointerEvents=1;fontSize=13;" vertex="1" parent="nUH0cTOVDgDA3d1hbOjg-37">
                    <mxGeometry width="40" height="40" as="geometry">
                        <mxRectangle width="40" height="40" as="alternateBounds"/>
                    </mxGeometry>
                </mxCell>
                <mxCell id="nUH0cTOVDgDA3d1hbOjg-39" value="2" style="shape=partialRectangle;html=1;whiteSpace=wrap;connectable=0;overflow=hidden;fillColor=none;top=0;left=0;bottom=0;right=0;pointerEvents=1;fontSize=13;" vertex="1" parent="nUH0cTOVDgDA3d1hbOjg-37">
                    <mxGeometry x="40" width="60" height="40" as="geometry">
                        <mxRectangle width="60" height="40" as="alternateBounds"/>
                    </mxGeometry>
                </mxCell>
                <mxCell id="nUH0cTOVDgDA3d1hbOjg-40" value="watsup" style="shape=partialRectangle;html=1;whiteSpace=wrap;connectable=0;overflow=hidden;fillColor=none;top=0;left=0;bottom=0;right=0;pointerEvents=1;fontSize=13;" vertex="1" parent="nUH0cTOVDgDA3d1hbOjg-37">
                    <mxGeometry x="100" width="80" height="40" as="geometry">
                        <mxRectangle width="80" height="40" as="alternateBounds"/>
                    </mxGeometry>
                </mxCell>
                <mxCell id="nUH0cTOVDgDA3d1hbOjg-41" value="wtsup.com" style="shape=partialRectangle;html=1;whiteSpace=wrap;connectable=0;overflow=hidden;fillColor=none;top=0;left=0;bottom=0;right=0;pointerEvents=1;fontSize=13;" vertex="1" parent="nUH0cTOVDgDA3d1hbOjg-37">
                    <mxGeometry x="180" width="80" height="40" as="geometry">
                        <mxRectangle width="80" height="40" as="alternateBounds"/>
                    </mxGeometry>
                </mxCell>
                <mxCell id="nUH0cTOVDgDA3d1hbOjg-42" value="S" style="shape=partialRectangle;html=1;whiteSpace=wrap;connectable=0;overflow=hidden;fillColor=none;top=0;left=0;bottom=0;right=0;pointerEvents=1;fontSize=13;" vertex="1" parent="nUH0cTOVDgDA3d1hbOjg-37">
                    <mxGeometry x="260" width="40" height="40" as="geometry">
                        <mxRectangle width="40" height="40" as="alternateBounds"/>
                    </mxGeometry>
                </mxCell>
                <mxCell id="nUH0cTOVDgDA3d1hbOjg-43" value="BookMark Main Sqlite Schema" style="text;html=1;align=center;verticalAlign=middle;resizable=0;points=[];autosize=1;strokeColor=#6F0000;fillColor=#a20025;fontSize=13;fontColor=#ffffff;" vertex="1" parent="nUH0cTOVDgDA3d1hbOjg-11">
                    <mxGeometry x="52" y="1" width="196" height="28" as="geometry"/>
                </mxCell>
                <mxCell id="nUH0cTOVDgDA3d1hbOjg-44" value="" style="group;flipH=1;" vertex="1" connectable="0" parent="1">
                    <mxGeometry x="393" y="241" width="167" height="163" as="geometry"/>
                </mxCell>
                <mxCell id="nUH0cTOVDgDA3d1hbOjg-45" value="BookMark PreBuilt Folders" style="text;html=1;align=center;verticalAlign=middle;resizable=0;points=[];autosize=1;strokeColor=#6F0000;fillColor=#a20025;fontSize=13;fontColor=#ffffff;" vertex="1" parent="nUH0cTOVDgDA3d1hbOjg-44">
                    <mxGeometry x="-6" y="1" width="173" height="28" as="geometry"/>
                </mxCell>
                <mxCell id="nUH0cTOVDgDA3d1hbOjg-46" value="" style="shape=table;startSize=0;container=1;collapsible=0;childLayout=tableLayout;fontSize=13;" vertex="1" parent="nUH0cTOVDgDA3d1hbOjg-44">
                    <mxGeometry y="43" width="160" height="120" as="geometry"/>
                </mxCell>
                <mxCell id="nUH0cTOVDgDA3d1hbOjg-47" value="" style="shape=tableRow;horizontal=0;startSize=0;swimlaneHead=0;swimlaneBody=0;top=0;left=0;bottom=0;right=0;collapsible=0;dropTarget=0;fillColor=none;points=[[0,0.5],[1,0.5]];portConstraint=eastwest;fontSize=13;" vertex="1" parent="nUH0cTOVDgDA3d1hbOjg-46">
                    <mxGeometry width="160" height="40" as="geometry"/>
                </mxCell>
                <mxCell id="nUH0cTOVDgDA3d1hbOjg-48" value="0" style="shape=partialRectangle;html=1;whiteSpace=wrap;connectable=0;overflow=hidden;fillColor=none;top=0;left=0;bottom=0;right=0;pointerEvents=1;fontSize=13;" vertex="1" parent="nUH0cTOVDgDA3d1hbOjg-47">
                    <mxGeometry width="50" height="40" as="geometry">
                        <mxRectangle width="50" height="40" as="alternateBounds"/>
                    </mxGeometry>
                </mxCell>
                <mxCell id="nUH0cTOVDgDA3d1hbOjg-49" value="Bookmark Bar" style="shape=partialRectangle;html=1;whiteSpace=wrap;connectable=0;overflow=hidden;fillColor=none;top=0;left=0;bottom=0;right=0;pointerEvents=1;fontSize=13;" vertex="1" parent="nUH0cTOVDgDA3d1hbOjg-47">
                    <mxGeometry x="50" width="110" height="40" as="geometry">
                        <mxRectangle width="110" height="40" as="alternateBounds"/>
                    </mxGeometry>
                </mxCell>
                <mxCell id="nUH0cTOVDgDA3d1hbOjg-50" value="" style="shape=tableRow;horizontal=0;startSize=0;swimlaneHead=0;swimlaneBody=0;top=0;left=0;bottom=0;right=0;collapsible=0;dropTarget=0;fillColor=none;points=[[0,0.5],[1,0.5]];portConstraint=eastwest;fontSize=13;" vertex="1" parent="nUH0cTOVDgDA3d1hbOjg-46">
                    <mxGeometry y="40" width="160" height="40" as="geometry"/>
                </mxCell>
                <mxCell id="nUH0cTOVDgDA3d1hbOjg-51" value="1" style="shape=partialRectangle;html=1;whiteSpace=wrap;connectable=0;overflow=hidden;fillColor=none;top=0;left=0;bottom=0;right=0;pointerEvents=1;fontSize=13;" vertex="1" parent="nUH0cTOVDgDA3d1hbOjg-50">
                    <mxGeometry width="50" height="40" as="geometry">
                        <mxRectangle width="50" height="40" as="alternateBounds"/>
                    </mxGeometry>
                </mxCell>
                <mxCell id="nUH0cTOVDgDA3d1hbOjg-52" value="Mobile" style="shape=partialRectangle;html=1;whiteSpace=wrap;connectable=0;overflow=hidden;fillColor=none;top=0;left=0;bottom=0;right=0;pointerEvents=1;fontSize=13;" vertex="1" parent="nUH0cTOVDgDA3d1hbOjg-50">
                    <mxGeometry x="50" width="110" height="40" as="geometry">
                        <mxRectangle width="110" height="40" as="alternateBounds"/>
                    </mxGeometry>
                </mxCell>
                <mxCell id="nUH0cTOVDgDA3d1hbOjg-53" value="" style="shape=tableRow;horizontal=0;startSize=0;swimlaneHead=0;swimlaneBody=0;top=0;left=0;bottom=0;right=0;collapsible=0;dropTarget=0;fillColor=none;points=[[0,0.5],[1,0.5]];portConstraint=eastwest;fontSize=13;" vertex="1" parent="nUH0cTOVDgDA3d1hbOjg-46">
                    <mxGeometry y="80" width="160" height="40" as="geometry"/>
                </mxCell>
                <mxCell id="nUH0cTOVDgDA3d1hbOjg-54" value="2" style="shape=partialRectangle;html=1;whiteSpace=wrap;connectable=0;overflow=hidden;fillColor=none;top=0;left=0;bottom=0;right=0;pointerEvents=1;fontSize=13;" vertex="1" parent="nUH0cTOVDgDA3d1hbOjg-53">
                    <mxGeometry width="50" height="40" as="geometry">
                        <mxRectangle width="50" height="40" as="alternateBounds"/>
                    </mxGeometry>
                </mxCell>
                <mxCell id="nUH0cTOVDgDA3d1hbOjg-55" value="others" style="shape=partialRectangle;html=1;whiteSpace=wrap;connectable=0;overflow=hidden;fillColor=none;top=0;left=0;bottom=0;right=0;pointerEvents=1;fontSize=13;" vertex="1" parent="nUH0cTOVDgDA3d1hbOjg-53">
                    <mxGeometry x="50" width="110" height="40" as="geometry">
                        <mxRectangle width="110" height="40" as="alternateBounds"/>
                    </mxGeometry>
                </mxCell>
                <mxCell id="nUH0cTOVDgDA3d1hbOjg-56" value="BookMark Storage System" style="text;html=1;align=center;verticalAlign=middle;resizable=0;points=[];autosize=1;strokeColor=#BD7000;fillColor=#f0a30a;fontSize=16;fontColor=#000000;fontStyle=1" vertex="1" parent="1">
                    <mxGeometry x="8" y="20" width="221" height="31" as="geometry"/>
                </mxCell>
                <mxCell id="nUH0cTOVDgDA3d1hbOjg-57" value="" style="group" vertex="1" connectable="0" parent="1">
                    <mxGeometry x="646" y="231" width="199.5" height="250" as="geometry"/>
                </mxCell>
                <mxCell id="nUH0cTOVDgDA3d1hbOjg-58" value="" style="shape=table;startSize=0;container=1;collapsible=0;childLayout=tableLayout;fontSize=13;" vertex="1" parent="nUH0cTOVDgDA3d1hbOjg-57">
                    <mxGeometry y="50" width="199.5" height="200" as="geometry"/>
                </mxCell>
                <mxCell id="nUH0cTOVDgDA3d1hbOjg-59" value="" style="shape=tableRow;horizontal=0;startSize=0;swimlaneHead=0;swimlaneBody=0;top=0;left=0;bottom=0;right=0;collapsible=0;dropTarget=0;fillColor=none;points=[[0,0.5],[1,0.5]];portConstraint=eastwest;fontSize=13;" vertex="1" parent="nUH0cTOVDgDA3d1hbOjg-58">
                    <mxGeometry width="199.5" height="40" as="geometry"/>
                </mxCell>
                <mxCell id="nUH0cTOVDgDA3d1hbOjg-60" value="Created On" style="shape=partialRectangle;html=1;whiteSpace=wrap;connectable=0;overflow=hidden;fillColor=none;top=0;left=0;bottom=0;right=0;pointerEvents=1;fontSize=13;" vertex="1" parent="nUH0cTOVDgDA3d1hbOjg-59">
                    <mxGeometry width="113" height="40" as="geometry">
                        <mxRectangle width="113" height="40" as="alternateBounds"/>
                    </mxGeometry>
                </mxCell>
                <mxCell id="nUH0cTOVDgDA3d1hbOjg-61" value="url" style="shape=partialRectangle;html=1;whiteSpace=wrap;connectable=0;overflow=hidden;fillColor=none;top=0;left=0;bottom=0;right=0;pointerEvents=1;fontSize=13;" vertex="1" parent="nUH0cTOVDgDA3d1hbOjg-59">
                    <mxGeometry x="113" width="87" height="40" as="geometry">
                        <mxRectangle width="87" height="40" as="alternateBounds"/>
                    </mxGeometry>
                </mxCell>
                <mxCell id="nUH0cTOVDgDA3d1hbOjg-62" value="" style="shape=tableRow;horizontal=0;startSize=0;swimlaneHead=0;swimlaneBody=0;top=0;left=0;bottom=0;right=0;collapsible=0;dropTarget=0;fillColor=none;points=[[0,0.5],[1,0.5]];portConstraint=eastwest;fontSize=13;" vertex="1" parent="nUH0cTOVDgDA3d1hbOjg-58">
                    <mxGeometry y="40" width="199.5" height="40" as="geometry"/>
                </mxCell>
                <mxCell id="nUH0cTOVDgDA3d1hbOjg-63" value="1/2/2023 4:30" style="shape=partialRectangle;html=1;whiteSpace=wrap;connectable=0;overflow=hidden;fillColor=none;top=0;left=0;bottom=0;right=0;pointerEvents=1;fontSize=13;" vertex="1" parent="nUH0cTOVDgDA3d1hbOjg-62">
                    <mxGeometry width="113" height="40" as="geometry">
                        <mxRectangle width="113" height="40" as="alternateBounds"/>
                    </mxGeometry>
                </mxCell>
                <mxCell id="nUH0cTOVDgDA3d1hbOjg-64" value="master.com" style="shape=partialRectangle;html=1;whiteSpace=wrap;connectable=0;overflow=hidden;fillColor=none;top=0;left=0;bottom=0;right=0;pointerEvents=1;fontSize=13;" vertex="1" parent="nUH0cTOVDgDA3d1hbOjg-62">
                    <mxGeometry x="113" width="87" height="40" as="geometry">
                        <mxRectangle width="87" height="40" as="alternateBounds"/>
                    </mxGeometry>
                </mxCell>
                <mxCell id="nUH0cTOVDgDA3d1hbOjg-65" value="" style="shape=tableRow;horizontal=0;startSize=0;swimlaneHead=0;swimlaneBody=0;top=0;left=0;bottom=0;right=0;collapsible=0;dropTarget=0;fillColor=none;points=[[0,0.5],[1,0.5]];portConstraint=eastwest;fontSize=13;" vertex="1" parent="nUH0cTOVDgDA3d1hbOjg-58">
                    <mxGeometry y="80" width="199.5" height="40" as="geometry"/>
                </mxCell>
                <mxCell id="nUH0cTOVDgDA3d1hbOjg-66" value="1/2/2023 4:26" style="shape=partialRectangle;html=1;whiteSpace=wrap;connectable=0;overflow=hidden;fillColor=none;top=0;left=0;bottom=0;right=0;pointerEvents=1;fontSize=13;" vertex="1" parent="nUH0cTOVDgDA3d1hbOjg-65">
                    <mxGeometry width="113" height="40" as="geometry">
                        <mxRectangle width="113" height="40" as="alternateBounds"/>
                    </mxGeometry>
                </mxCell>
                <mxCell id="nUH0cTOVDgDA3d1hbOjg-67" value="face.com" style="shape=partialRectangle;html=1;whiteSpace=wrap;connectable=0;overflow=hidden;fillColor=none;top=0;left=0;bottom=0;right=0;pointerEvents=1;fontSize=13;" vertex="1" parent="nUH0cTOVDgDA3d1hbOjg-65">
                    <mxGeometry x="113" width="87" height="40" as="geometry">
                        <mxRectangle width="87" height="40" as="alternateBounds"/>
                    </mxGeometry>
                </mxCell>
                <mxCell id="nUH0cTOVDgDA3d1hbOjg-68" value="" style="shape=tableRow;horizontal=0;startSize=0;swimlaneHead=0;swimlaneBody=0;top=0;left=0;bottom=0;right=0;collapsible=0;dropTarget=0;fillColor=none;points=[[0,0.5],[1,0.5]];portConstraint=eastwest;fontSize=13;" vertex="1" parent="nUH0cTOVDgDA3d1hbOjg-58">
                    <mxGeometry y="120" width="199.5" height="40" as="geometry"/>
                </mxCell>
                <mxCell id="nUH0cTOVDgDA3d1hbOjg-69" value="1/2/2023 4:25" style="shape=partialRectangle;html=1;whiteSpace=wrap;connectable=0;overflow=hidden;fillColor=none;top=0;left=0;bottom=0;right=0;pointerEvents=1;fontSize=13;" vertex="1" parent="nUH0cTOVDgDA3d1hbOjg-68">
                    <mxGeometry width="113" height="40" as="geometry">
                        <mxRectangle width="113" height="40" as="alternateBounds"/>
                    </mxGeometry>
                </mxCell>
                <mxCell id="nUH0cTOVDgDA3d1hbOjg-70" value="prtl.com" style="shape=partialRectangle;html=1;whiteSpace=wrap;connectable=0;overflow=hidden;fillColor=none;top=0;left=0;bottom=0;right=0;pointerEvents=1;fontSize=13;" vertex="1" parent="nUH0cTOVDgDA3d1hbOjg-68">
                    <mxGeometry x="113" width="87" height="40" as="geometry">
                        <mxRectangle width="87" height="40" as="alternateBounds"/>
                    </mxGeometry>
                </mxCell>
                <mxCell id="nUH0cTOVDgDA3d1hbOjg-71" value="" style="shape=tableRow;horizontal=0;startSize=0;swimlaneHead=0;swimlaneBody=0;top=0;left=0;bottom=0;right=0;collapsible=0;dropTarget=0;fillColor=none;points=[[0,0.5],[1,0.5]];portConstraint=eastwest;fontSize=13;" vertex="1" parent="nUH0cTOVDgDA3d1hbOjg-58">
                    <mxGeometry y="160" width="199.5" height="40" as="geometry"/>
                </mxCell>
                <mxCell id="nUH0cTOVDgDA3d1hbOjg-72" value="1/2/2023 4:20" style="shape=partialRectangle;html=1;whiteSpace=wrap;connectable=0;overflow=hidden;fillColor=none;top=0;left=0;bottom=0;right=0;pointerEvents=1;fontSize=13;" vertex="1" parent="nUH0cTOVDgDA3d1hbOjg-71">
                    <mxGeometry width="113" height="40" as="geometry">
                        <mxRectangle width="113" height="40" as="alternateBounds"/>
                    </mxGeometry>
                </mxCell>
                <mxCell id="nUH0cTOVDgDA3d1hbOjg-73" value="wtsup.com" style="shape=partialRectangle;html=1;whiteSpace=wrap;connectable=0;overflow=hidden;fillColor=none;top=0;left=0;bottom=0;right=0;pointerEvents=1;fontSize=13;" vertex="1" parent="nUH0cTOVDgDA3d1hbOjg-71">
                    <mxGeometry x="113" width="87" height="40" as="geometry">
                        <mxRectangle width="87" height="40" as="alternateBounds"/>
                    </mxGeometry>
                </mxCell>
                <mxCell id="nUH0cTOVDgDA3d1hbOjg-74" value="History Main Sqlite Schema" style="text;html=1;align=center;verticalAlign=middle;resizable=0;points=[];autosize=1;strokeColor=#6F0000;fillColor=#a20025;fontSize=13;fontColor=#ffffff;" vertex="1" parent="nUH0cTOVDgDA3d1hbOjg-57">
                    <mxGeometry x="10.75" y="1" width="178" height="28" as="geometry"/>
                </mxCell>
            </root>
        </mxGraphModel>
    </diagram>
    <diagram id="ea4xGxflfh_PA0jvsnF2" name="TabManagement">
        <mxGraphModel dx="1033" dy="891" grid="0" gridSize="10" guides="1" tooltips="1" connect="1" arrows="1" fold="1" page="0" pageScale="1" pageWidth="850" pageHeight="1100" math="0" shadow="0">
            <root>
                <mxCell id="0"/>
                <mxCell id="1" parent="0"/>
                <mxCell id="Hyxx5AGePmNM3HRv6-pH-1" style="edgeStyle=none;html=1;exitX=1;exitY=0.5;exitDx=0;exitDy=0;fontColor=#FFFF33;entryX=1;entryY=0.5;entryDx=0;entryDy=0;" edge="1" parent="1" source="Hyxx5AGePmNM3HRv6-pH-3" target="Hyxx5AGePmNM3HRv6-pH-3">
                    <mxGeometry relative="1" as="geometry">
                        <mxPoint x="296.57894736842104" y="180.68421052631584" as="targetPoint"/>
                    </mxGeometry>
                </mxCell>
                <mxCell id="Hyxx5AGePmNM3HRv6-pH-2" value="" style="edgeStyle=none;html=1;fontColor=#FFFF33;" edge="1" parent="1" source="Hyxx5AGePmNM3HRv6-pH-3" target="Hyxx5AGePmNM3HRv6-pH-8">
                    <mxGeometry relative="1" as="geometry"/>
                </mxCell>
                <mxCell id="Hyxx5AGePmNM3HRv6-pH-3" value="&lt;h3&gt;&lt;font color=&quot;#ffff33&quot;&gt;INTERNET&lt;/font&gt;&lt;/h3&gt;" style="rounded=1;whiteSpace=wrap;html=1;" vertex="1" parent="1">
                    <mxGeometry x="71" y="151" width="120" height="60" as="geometry"/>
                </mxCell>
                <mxCell id="Hyxx5AGePmNM3HRv6-pH-4" value="&lt;h2&gt;&lt;font color=&quot;#f029dc&quot;&gt;&lt;u&gt;MULTIPLE TAB PROCESS IN A BROWSER&lt;/u&gt;&lt;/font&gt;&lt;/h2&gt;" style="text;html=1;align=center;verticalAlign=middle;resizable=0;points=[];autosize=1;strokeColor=none;fillColor=none;" vertex="1" parent="1">
                    <mxGeometry x="361" y="25" width="379" height="63" as="geometry"/>
                </mxCell>
                <mxCell id="Hyxx5AGePmNM3HRv6-pH-5" style="edgeStyle=none;html=1;exitX=1;exitY=0.5;exitDx=0;exitDy=0;fontColor=#00FFFF;" edge="1" parent="1" source="Hyxx5AGePmNM3HRv6-pH-8">
                    <mxGeometry relative="1" as="geometry">
                        <mxPoint x="443.9473684210527" y="384.89473684210543" as="targetPoint"/>
                    </mxGeometry>
                </mxCell>
                <mxCell id="Hyxx5AGePmNM3HRv6-pH-6" style="edgeStyle=none;html=1;exitX=0.5;exitY=1;exitDx=0;exitDy=0;entryX=0.5;entryY=0;entryDx=0;entryDy=0;fontColor=#00FFFF;" edge="1" parent="1" source="Hyxx5AGePmNM3HRv6-pH-8" target="Hyxx5AGePmNM3HRv6-pH-38">
                    <mxGeometry relative="1" as="geometry"/>
                </mxCell>
                <mxCell id="Hyxx5AGePmNM3HRv6-pH-7" style="edgeStyle=none;html=1;exitX=1;exitY=1;exitDx=0;exitDy=0;entryX=0.25;entryY=0;entryDx=0;entryDy=0;fontColor=#00FFFF;" edge="1" parent="1" source="Hyxx5AGePmNM3HRv6-pH-8" target="Hyxx5AGePmNM3HRv6-pH-48">
                    <mxGeometry relative="1" as="geometry"/>
                </mxCell>
                <mxCell id="Hyxx5AGePmNM3HRv6-pH-8" value="&lt;h4&gt;&lt;font color=&quot;#ffff33&quot;&gt;NETWORK PROCESS&lt;/font&gt;&lt;/h4&gt;" style="ellipse;whiteSpace=wrap;html=1;rounded=1;" vertex="1" parent="1">
                    <mxGeometry x="91" y="345" width="80" height="80" as="geometry"/>
                </mxCell>
                <mxCell id="Hyxx5AGePmNM3HRv6-pH-9" style="edgeStyle=none;html=1;exitX=0;exitY=1;exitDx=0;exitDy=0;entryX=1;entryY=0;entryDx=0;entryDy=0;fontColor=#00FFFF;" edge="1" parent="1" source="Hyxx5AGePmNM3HRv6-pH-11" target="Hyxx5AGePmNM3HRv6-pH-8">
                    <mxGeometry relative="1" as="geometry"/>
                </mxCell>
                <mxCell id="Hyxx5AGePmNM3HRv6-pH-10" style="edgeStyle=none;html=1;exitX=1;exitY=1;exitDx=0;exitDy=0;entryX=0.275;entryY=0.024;entryDx=0;entryDy=0;entryPerimeter=0;fontColor=#00FFFF;" edge="1" parent="1" source="Hyxx5AGePmNM3HRv6-pH-11" target="Hyxx5AGePmNM3HRv6-pH-25">
                    <mxGeometry relative="1" as="geometry"/>
                </mxCell>
                <mxCell id="Hyxx5AGePmNM3HRv6-pH-11" value="&lt;h3&gt;&lt;font color=&quot;#ff0000&quot;&gt;FILE SYSTEM&lt;/font&gt;&lt;/h3&gt;" style="rounded=1;whiteSpace=wrap;html=1;fontColor=#FFFF33;" vertex="1" parent="1">
                    <mxGeometry x="325" y="151" width="120" height="60" as="geometry"/>
                </mxCell>
                <mxCell id="Hyxx5AGePmNM3HRv6-pH-12" style="edgeStyle=none;html=1;exitX=0.25;exitY=1;exitDx=0;exitDy=0;fontColor=#00FFFF;" edge="1" parent="1" source="Hyxx5AGePmNM3HRv6-pH-13" target="Hyxx5AGePmNM3HRv6-pH-25">
                    <mxGeometry relative="1" as="geometry"/>
                </mxCell>
                <mxCell id="Hyxx5AGePmNM3HRv6-pH-13" value="&lt;h3&gt;&lt;font color=&quot;#0000ff&quot;&gt;INPUT&lt;/font&gt;&lt;/h3&gt;" style="rounded=1;whiteSpace=wrap;html=1;fontColor=#FF0000;" vertex="1" parent="1">
                    <mxGeometry x="588" y="151" width="120" height="60" as="geometry"/>
                </mxCell>
                <mxCell id="Hyxx5AGePmNM3HRv6-pH-14" value="" style="edgeStyle=none;html=1;fontColor=#994C00;" edge="1" parent="1" source="Hyxx5AGePmNM3HRv6-pH-15" target="Hyxx5AGePmNM3HRv6-pH-21">
                    <mxGeometry relative="1" as="geometry"/>
                </mxCell>
                <mxCell id="Hyxx5AGePmNM3HRv6-pH-15" value="&lt;h3&gt;&lt;font color=&quot;#00fffb&quot;&gt;GRAPHICS&lt;/font&gt;&lt;/h3&gt;" style="rounded=1;whiteSpace=wrap;html=1;fontColor=#FF0000;" vertex="1" parent="1">
                    <mxGeometry x="862" y="151" width="120" height="60" as="geometry"/>
                </mxCell>
                <mxCell id="Hyxx5AGePmNM3HRv6-pH-16" style="edgeStyle=none;html=1;exitX=0;exitY=0.5;exitDx=0;exitDy=0;entryX=1;entryY=0.5;entryDx=0;entryDy=0;fontColor=#00FFFF;" edge="1" parent="1" source="Hyxx5AGePmNM3HRv6-pH-25" target="Hyxx5AGePmNM3HRv6-pH-8">
                    <mxGeometry relative="1" as="geometry"/>
                </mxCell>
                <mxCell id="Hyxx5AGePmNM3HRv6-pH-17" style="edgeStyle=none;html=1;exitX=1;exitY=0.5;exitDx=0;exitDy=0;entryX=0;entryY=0.5;entryDx=0;entryDy=0;fontColor=#00FFFF;" edge="1" parent="1" source="Hyxx5AGePmNM3HRv6-pH-25" target="Hyxx5AGePmNM3HRv6-pH-21">
                    <mxGeometry relative="1" as="geometry"/>
                </mxCell>
                <mxCell id="Hyxx5AGePmNM3HRv6-pH-18" style="edgeStyle=none;html=1;exitX=0;exitY=0.5;exitDx=0;exitDy=0;fontColor=#00FFFF;" edge="1" parent="1" source="Hyxx5AGePmNM3HRv6-pH-21">
                    <mxGeometry relative="1" as="geometry">
                        <mxPoint x="622" y="385" as="targetPoint"/>
                    </mxGeometry>
                </mxCell>
                <mxCell id="Hyxx5AGePmNM3HRv6-pH-19" style="edgeStyle=none;html=1;exitX=0.5;exitY=1;exitDx=0;exitDy=0;fontColor=#00FFFF;" edge="1" parent="1" source="Hyxx5AGePmNM3HRv6-pH-21" target="Hyxx5AGePmNM3HRv6-pH-29">
                    <mxGeometry relative="1" as="geometry"/>
                </mxCell>
                <mxCell id="Hyxx5AGePmNM3HRv6-pH-20" style="edgeStyle=none;html=1;exitX=0;exitY=1;exitDx=0;exitDy=0;entryX=0.75;entryY=0;entryDx=0;entryDy=0;fontColor=#00FFFF;" edge="1" parent="1" source="Hyxx5AGePmNM3HRv6-pH-21" target="Hyxx5AGePmNM3HRv6-pH-48">
                    <mxGeometry relative="1" as="geometry"/>
                </mxCell>
                <mxCell id="Hyxx5AGePmNM3HRv6-pH-21" value="&lt;h4&gt;&lt;font color=&quot;#00ffff&quot;&gt;GPU PROCESS&lt;/font&gt;&lt;/h4&gt;" style="ellipse;whiteSpace=wrap;html=1;fontColor=#FF0000;rounded=1;" vertex="1" parent="1">
                    <mxGeometry x="882" y="345" width="80" height="80" as="geometry"/>
                </mxCell>
                <mxCell id="Hyxx5AGePmNM3HRv6-pH-22" style="edgeStyle=none;html=1;exitX=0.5;exitY=1;exitDx=0;exitDy=0;entryX=0.5;entryY=0;entryDx=0;entryDy=0;fontColor=#00FFFF;" edge="1" parent="1" source="Hyxx5AGePmNM3HRv6-pH-25" target="Hyxx5AGePmNM3HRv6-pH-48">
                    <mxGeometry relative="1" as="geometry"/>
                </mxCell>
                <mxCell id="Hyxx5AGePmNM3HRv6-pH-23" style="edgeStyle=none;html=1;exitX=0;exitY=1;exitDx=0;exitDy=0;entryX=0.75;entryY=0;entryDx=0;entryDy=0;fontColor=#00FFFF;" edge="1" parent="1" source="Hyxx5AGePmNM3HRv6-pH-25" target="Hyxx5AGePmNM3HRv6-pH-38">
                    <mxGeometry relative="1" as="geometry"/>
                </mxCell>
                <mxCell id="Hyxx5AGePmNM3HRv6-pH-24" style="edgeStyle=none;html=1;exitX=1;exitY=1;exitDx=0;exitDy=0;entryX=0.25;entryY=0;entryDx=0;entryDy=0;fontColor=#00FFFF;" edge="1" parent="1" source="Hyxx5AGePmNM3HRv6-pH-25" target="Hyxx5AGePmNM3HRv6-pH-29">
                    <mxGeometry relative="1" as="geometry"/>
                </mxCell>
                <mxCell id="Hyxx5AGePmNM3HRv6-pH-25" value="&lt;h2&gt;&lt;font color=&quot;#994c00&quot;&gt;BROWSER PROCESS&lt;/font&gt;&lt;/h2&gt;" style="ellipse;whiteSpace=wrap;html=1;fontColor=#00fffb;" vertex="1" parent="1">
                    <mxGeometry x="445" y="334" width="177" height="102" as="geometry"/>
                </mxCell>
                <mxCell id="Hyxx5AGePmNM3HRv6-pH-26" style="edgeStyle=none;html=1;exitX=0.5;exitY=0;exitDx=0;exitDy=0;entryX=0.5;entryY=1;entryDx=0;entryDy=0;fontColor=#00FFFF;" edge="1" parent="1" source="Hyxx5AGePmNM3HRv6-pH-29" target="Hyxx5AGePmNM3HRv6-pH-21">
                    <mxGeometry relative="1" as="geometry"/>
                </mxCell>
                <mxCell id="Hyxx5AGePmNM3HRv6-pH-27" style="edgeStyle=none;html=1;exitX=0.25;exitY=0;exitDx=0;exitDy=0;entryX=1;entryY=1;entryDx=0;entryDy=0;fontColor=#00FFFF;" edge="1" parent="1" source="Hyxx5AGePmNM3HRv6-pH-29" target="Hyxx5AGePmNM3HRv6-pH-25">
                    <mxGeometry relative="1" as="geometry"/>
                </mxCell>
                <mxCell id="Hyxx5AGePmNM3HRv6-pH-28" style="edgeStyle=none;html=1;exitX=0.5;exitY=1;exitDx=0;exitDy=0;entryX=0.75;entryY=0;entryDx=0;entryDy=0;" edge="1" parent="1" source="Hyxx5AGePmNM3HRv6-pH-29" target="Hyxx5AGePmNM3HRv6-pH-72">
                    <mxGeometry relative="1" as="geometry"/>
                </mxCell>
                <mxCell id="Hyxx5AGePmNM3HRv6-pH-29" value="TAB 3" style="swimlane;startSize=20;horizontal=1;childLayout=treeLayout;horizontalTree=0;resizable=0;containerType=tree;fontSize=12;fontColor=#00FFFF;" vertex="1" parent="1">
                    <mxGeometry x="782" y="592" width="280" height="190" as="geometry"/>
                </mxCell>
                <mxCell id="Hyxx5AGePmNM3HRv6-pH-30" value="&lt;h4&gt;&amp;lt;html&amp;gt;&lt;/h4&gt;" style="whiteSpace=wrap;html=1;fontColor=#00FFFF;" vertex="1" parent="Hyxx5AGePmNM3HRv6-pH-29">
                    <mxGeometry x="90" y="40" width="100" height="40" as="geometry"/>
                </mxCell>
                <mxCell id="Hyxx5AGePmNM3HRv6-pH-31" value="&lt;h4&gt;{}CSS&lt;/h4&gt;" style="whiteSpace=wrap;html=1;fontColor=#00FFFF;" vertex="1" parent="Hyxx5AGePmNM3HRv6-pH-29">
                    <mxGeometry x="20" y="130" width="100" height="40" as="geometry"/>
                </mxCell>
                <mxCell id="Hyxx5AGePmNM3HRv6-pH-32" value="" style="edgeStyle=elbowEdgeStyle;elbow=vertical;html=1;rounded=1;curved=0;sourcePerimeterSpacing=0;targetPerimeterSpacing=0;startSize=6;endSize=6;fontColor=#00FFFF;" edge="1" parent="Hyxx5AGePmNM3HRv6-pH-29" source="Hyxx5AGePmNM3HRv6-pH-30" target="Hyxx5AGePmNM3HRv6-pH-31">
                    <mxGeometry relative="1" as="geometry"/>
                </mxCell>
                <mxCell id="Hyxx5AGePmNM3HRv6-pH-33" value="&lt;h4&gt;JAVASCRIPT&lt;/h4&gt;" style="whiteSpace=wrap;html=1;fontColor=#00FFFF;" vertex="1" parent="Hyxx5AGePmNM3HRv6-pH-29">
                    <mxGeometry x="160" y="130" width="100" height="40" as="geometry"/>
                </mxCell>
                <mxCell id="Hyxx5AGePmNM3HRv6-pH-34" value="" style="edgeStyle=elbowEdgeStyle;elbow=vertical;html=1;rounded=1;curved=0;sourcePerimeterSpacing=0;targetPerimeterSpacing=0;startSize=6;endSize=6;fontColor=#00FFFF;" edge="1" parent="Hyxx5AGePmNM3HRv6-pH-29" source="Hyxx5AGePmNM3HRv6-pH-30" target="Hyxx5AGePmNM3HRv6-pH-33">
                    <mxGeometry relative="1" as="geometry"/>
                </mxCell>
                <mxCell id="Hyxx5AGePmNM3HRv6-pH-35" style="edgeStyle=none;html=1;exitX=0.5;exitY=0;exitDx=0;exitDy=0;entryX=0.5;entryY=1;entryDx=0;entryDy=0;fontColor=#00FFFF;" edge="1" parent="1" source="Hyxx5AGePmNM3HRv6-pH-38" target="Hyxx5AGePmNM3HRv6-pH-8">
                    <mxGeometry relative="1" as="geometry"/>
                </mxCell>
                <mxCell id="Hyxx5AGePmNM3HRv6-pH-36" style="edgeStyle=none;html=1;exitX=0.75;exitY=0;exitDx=0;exitDy=0;entryX=0;entryY=1;entryDx=0;entryDy=0;fontColor=#00FFFF;" edge="1" parent="1" source="Hyxx5AGePmNM3HRv6-pH-38" target="Hyxx5AGePmNM3HRv6-pH-25">
                    <mxGeometry relative="1" as="geometry"/>
                </mxCell>
                <mxCell id="Hyxx5AGePmNM3HRv6-pH-37" style="edgeStyle=none;html=1;exitX=0.5;exitY=1;exitDx=0;exitDy=0;entryX=0.25;entryY=0;entryDx=0;entryDy=0;" edge="1" parent="1" source="Hyxx5AGePmNM3HRv6-pH-38" target="Hyxx5AGePmNM3HRv6-pH-72">
                    <mxGeometry relative="1" as="geometry"/>
                </mxCell>
                <mxCell id="Hyxx5AGePmNM3HRv6-pH-38" value="TAB 1" style="swimlane;startSize=20;horizontal=1;childLayout=treeLayout;horizontalTree=0;resizable=0;containerType=tree;fontSize=12;fontColor=#00FFFF;" vertex="1" parent="1">
                    <mxGeometry x="55" y="592" width="280" height="190" as="geometry"/>
                </mxCell>
                <mxCell id="Hyxx5AGePmNM3HRv6-pH-39" value="&lt;h4&gt;&lt;b&gt;&amp;lt;html&amp;gt;&lt;/b&gt;&lt;/h4&gt;" style="whiteSpace=wrap;html=1;fontColor=#00FFFF;" vertex="1" parent="Hyxx5AGePmNM3HRv6-pH-38">
                    <mxGeometry x="90" y="40" width="100" height="40" as="geometry"/>
                </mxCell>
                <mxCell id="Hyxx5AGePmNM3HRv6-pH-40" value="&lt;h4&gt;&lt;/h4&gt;&lt;h4&gt;{}CSS&lt;/h4&gt;" style="whiteSpace=wrap;html=1;fontColor=#00FFFF;" vertex="1" parent="Hyxx5AGePmNM3HRv6-pH-38">
                    <mxGeometry x="20" y="130" width="100" height="40" as="geometry"/>
                </mxCell>
                <mxCell id="Hyxx5AGePmNM3HRv6-pH-41" value="" style="edgeStyle=elbowEdgeStyle;elbow=vertical;html=1;rounded=1;curved=0;sourcePerimeterSpacing=0;targetPerimeterSpacing=0;startSize=6;endSize=6;fontColor=#00FFFF;" edge="1" parent="Hyxx5AGePmNM3HRv6-pH-38" source="Hyxx5AGePmNM3HRv6-pH-39" target="Hyxx5AGePmNM3HRv6-pH-40">
                    <mxGeometry relative="1" as="geometry"/>
                </mxCell>
                <mxCell id="Hyxx5AGePmNM3HRv6-pH-42" value="&lt;h4&gt;JAVASCRIPT&lt;/h4&gt;" style="whiteSpace=wrap;html=1;fontColor=#00FFFF;" vertex="1" parent="Hyxx5AGePmNM3HRv6-pH-38">
                    <mxGeometry x="160" y="130" width="100" height="40" as="geometry"/>
                </mxCell>
                <mxCell id="Hyxx5AGePmNM3HRv6-pH-43" value="" style="edgeStyle=elbowEdgeStyle;elbow=vertical;html=1;rounded=1;curved=0;sourcePerimeterSpacing=0;targetPerimeterSpacing=0;startSize=6;endSize=6;fontColor=#00FFFF;" edge="1" parent="Hyxx5AGePmNM3HRv6-pH-38" source="Hyxx5AGePmNM3HRv6-pH-39" target="Hyxx5AGePmNM3HRv6-pH-42">
                    <mxGeometry relative="1" as="geometry"/>
                </mxCell>
                <mxCell id="Hyxx5AGePmNM3HRv6-pH-44" style="edgeStyle=none;html=1;exitX=0.5;exitY=0;exitDx=0;exitDy=0;entryX=0.5;entryY=1;entryDx=0;entryDy=0;fontColor=#00FFFF;" edge="1" parent="1" source="Hyxx5AGePmNM3HRv6-pH-48" target="Hyxx5AGePmNM3HRv6-pH-25">
                    <mxGeometry relative="1" as="geometry"/>
                </mxCell>
                <mxCell id="Hyxx5AGePmNM3HRv6-pH-45" style="edgeStyle=none;html=1;exitX=0.25;exitY=0;exitDx=0;exitDy=0;entryX=1;entryY=1;entryDx=0;entryDy=0;fontColor=#00FFFF;" edge="1" parent="1" source="Hyxx5AGePmNM3HRv6-pH-48" target="Hyxx5AGePmNM3HRv6-pH-8">
                    <mxGeometry relative="1" as="geometry"/>
                </mxCell>
                <mxCell id="Hyxx5AGePmNM3HRv6-pH-46" style="edgeStyle=none;html=1;exitX=0.75;exitY=0;exitDx=0;exitDy=0;entryX=0;entryY=1;entryDx=0;entryDy=0;fontColor=#00FFFF;" edge="1" parent="1" source="Hyxx5AGePmNM3HRv6-pH-48" target="Hyxx5AGePmNM3HRv6-pH-21">
                    <mxGeometry relative="1" as="geometry"/>
                </mxCell>
                <mxCell id="Hyxx5AGePmNM3HRv6-pH-47" style="edgeStyle=none;html=1;exitX=0.5;exitY=1;exitDx=0;exitDy=0;entryX=0.5;entryY=0;entryDx=0;entryDy=0;" edge="1" parent="1" source="Hyxx5AGePmNM3HRv6-pH-48" target="Hyxx5AGePmNM3HRv6-pH-72">
                    <mxGeometry relative="1" as="geometry"/>
                </mxCell>
                <mxCell id="Hyxx5AGePmNM3HRv6-pH-48" value="TAB 2" style="swimlane;startSize=20;horizontal=1;childLayout=treeLayout;horizontalTree=0;resizable=0;containerType=tree;fontSize=12;fontColor=#00FFFF;" vertex="1" parent="1">
                    <mxGeometry x="415" y="592" width="280" height="190" as="geometry"/>
                </mxCell>
                <mxCell id="Hyxx5AGePmNM3HRv6-pH-49" value="&lt;h4&gt;&amp;lt;html&amp;gt;&lt;/h4&gt;" style="whiteSpace=wrap;html=1;fontColor=#00FFFF;" vertex="1" parent="Hyxx5AGePmNM3HRv6-pH-48">
                    <mxGeometry x="90" y="40" width="100" height="40" as="geometry"/>
                </mxCell>
                <mxCell id="Hyxx5AGePmNM3HRv6-pH-50" value="&lt;h4&gt;{}CSS&lt;/h4&gt;" style="whiteSpace=wrap;html=1;fontColor=#00FFFF;" vertex="1" parent="Hyxx5AGePmNM3HRv6-pH-48">
                    <mxGeometry x="20" y="130" width="100" height="40" as="geometry"/>
                </mxCell>
                <mxCell id="Hyxx5AGePmNM3HRv6-pH-51" value="" style="edgeStyle=elbowEdgeStyle;elbow=vertical;html=1;rounded=1;curved=0;sourcePerimeterSpacing=0;targetPerimeterSpacing=0;startSize=6;endSize=6;fontColor=#00FFFF;" edge="1" parent="Hyxx5AGePmNM3HRv6-pH-48" source="Hyxx5AGePmNM3HRv6-pH-49" target="Hyxx5AGePmNM3HRv6-pH-50">
                    <mxGeometry relative="1" as="geometry"/>
                </mxCell>
                <mxCell id="Hyxx5AGePmNM3HRv6-pH-52" value="&lt;h4&gt;JAVASCRIPT&lt;/h4&gt;" style="whiteSpace=wrap;html=1;fontColor=#00FFFF;" vertex="1" parent="Hyxx5AGePmNM3HRv6-pH-48">
                    <mxGeometry x="160" y="130" width="100" height="40" as="geometry"/>
                </mxCell>
                <mxCell id="Hyxx5AGePmNM3HRv6-pH-53" value="" style="edgeStyle=elbowEdgeStyle;elbow=vertical;html=1;rounded=1;curved=0;sourcePerimeterSpacing=0;targetPerimeterSpacing=0;startSize=6;endSize=6;fontColor=#00FFFF;" edge="1" parent="Hyxx5AGePmNM3HRv6-pH-48" source="Hyxx5AGePmNM3HRv6-pH-49" target="Hyxx5AGePmNM3HRv6-pH-52">
                    <mxGeometry relative="1" as="geometry"/>
                </mxCell>
                <mxCell id="Hyxx5AGePmNM3HRv6-pH-54" value="&lt;h4&gt;&lt;b&gt;IPC CHANNELS&lt;/b&gt;&lt;/h4&gt;" style="text;html=1;align=center;verticalAlign=middle;resizable=0;points=[];autosize=1;strokeColor=none;fillColor=none;fontColor=#00FFFF;" vertex="1" parent="1">
                    <mxGeometry x="274" y="376" width="108" height="58" as="geometry"/>
                </mxCell>
                <mxCell id="Hyxx5AGePmNM3HRv6-pH-55" value="&lt;h4&gt;IPC CHANNELS&lt;/h4&gt;" style="text;html=1;align=center;verticalAlign=middle;resizable=0;points=[];autosize=1;strokeColor=none;fillColor=none;fontColor=#00FFFF;" vertex="1" parent="1">
                    <mxGeometry x="704" y="376" width="108" height="58" as="geometry"/>
                </mxCell>
                <mxCell id="Hyxx5AGePmNM3HRv6-pH-56" value="" style="strokeWidth=1;shadow=0;align=center;html=1;shape=mxgraph.mockup.containers.marginRect2;rectMarginTop=32;strokeColor=#666666;gradientColor=none;" vertex="1" parent="1">
                    <mxGeometry x="361" y="951" width="411" height="345.5" as="geometry"/>
                </mxCell>
                <mxCell id="Hyxx5AGePmNM3HRv6-pH-57" value="Tab 1" style="strokeColor=inherit;fillColor=inherit;gradientColor=inherit;strokeWidth=1;shadow=0;dashed=0;align=center;html=1;shape=mxgraph.mockup.containers.rrect;rSize=0;fontSize=17;fontColor=#666666;gradientColor=none;" vertex="1" parent="Hyxx5AGePmNM3HRv6-pH-56">
                    <mxGeometry width="60" height="25" relative="1" as="geometry">
                        <mxPoint x="10" as="offset"/>
                    </mxGeometry>
                </mxCell>
                <mxCell id="Hyxx5AGePmNM3HRv6-pH-58" value="Tab 2" style="strokeWidth=1;shadow=0;dashed=0;align=center;html=1;shape=mxgraph.mockup.containers.rrect;rSize=0;fontSize=17;fontColor=#ffffff;strokeColor=#008cff;fillColor=#008cff;" vertex="1" parent="Hyxx5AGePmNM3HRv6-pH-56">
                    <mxGeometry width="60" height="25" relative="1" as="geometry">
                        <mxPoint x="75" as="offset"/>
                    </mxGeometry>
                </mxCell>
                <mxCell id="Hyxx5AGePmNM3HRv6-pH-59" value="Tab 3" style="strokeColor=inherit;fillColor=inherit;gradientColor=inherit;strokeWidth=1;shadow=0;dashed=0;align=center;html=1;shape=mxgraph.mockup.containers.rrect;rSize=0;fontSize=17;fontColor=#666666;gradientColor=none;" vertex="1" parent="Hyxx5AGePmNM3HRv6-pH-56">
                    <mxGeometry width="60" height="25" relative="1" as="geometry">
                        <mxPoint x="140" as="offset"/>
                    </mxGeometry>
                </mxCell>
                <mxCell id="Hyxx5AGePmNM3HRv6-pH-60" value="" style="strokeWidth=1;shadow=0;dashed=0;align=center;html=1;shape=mxgraph.mockup.containers.topButton;rSize=5;strokeColor=#008cff;fillColor=#008cff;gradientColor=none;resizeWidth=1;movable=0;deletable=1;" vertex="1" parent="Hyxx5AGePmNM3HRv6-pH-56">
                    <mxGeometry width="400" height="7" relative="1" as="geometry">
                        <mxPoint y="25" as="offset"/>
                    </mxGeometry>
                </mxCell>
                <mxCell id="Hyxx5AGePmNM3HRv6-pH-61" value="" style="html=1;shadow=0;dashed=0;shape=mxgraph.bootstrap.rrect;rSize=5;fillColor=#E9ECEF;strokeColor=none;" vertex="1" parent="Hyxx5AGePmNM3HRv6-pH-56">
                    <mxGeometry x="-0.5" y="302" width="399" height="20" as="geometry"/>
                </mxCell>
                <mxCell id="Hyxx5AGePmNM3HRv6-pH-62" value="" style="html=1;shadow=0;dashed=0;shape=mxgraph.bootstrap.leftButton;rSize=5;fillColor=#0085FC;strokeColor=none;resizeHeight=1;" vertex="1" parent="Hyxx5AGePmNM3HRv6-pH-61">
                    <mxGeometry width="250" height="20" relative="1" as="geometry"/>
                </mxCell>
                <mxCell id="Hyxx5AGePmNM3HRv6-pH-63" value="" style="strokeWidth=1;html=1;shadow=0;dashed=0;shape=mxgraph.android.scrollbars2;fillColor=#999999;strokeColor=none;" vertex="1" parent="Hyxx5AGePmNM3HRv6-pH-56">
                    <mxGeometry x="6" y="33" width="391" height="267" as="geometry"/>
                </mxCell>
                <mxCell id="Hyxx5AGePmNM3HRv6-pH-64" value="" style="strokeWidth=1;html=1;shadow=0;dashed=0;shape=mxgraph.android.contextual_action_bar_landscape;fillColor=#002E3E;sketch=0;" vertex="1" parent="Hyxx5AGePmNM3HRv6-pH-56">
                    <mxGeometry x="3" y="67" width="386" height="28" as="geometry"/>
                </mxCell>
                <mxCell id="Hyxx5AGePmNM3HRv6-pH-65" value="Action" style="shape=transparent;align=left;fontStyle=1;fontColor=#ffffff;" vertex="1" parent="Hyxx5AGePmNM3HRv6-pH-64">
                    <mxGeometry x="48.25" width="120.625" height="28" as="geometry"/>
                </mxCell>
                <mxCell id="Hyxx5AGePmNM3HRv6-pH-66" value="" style="strokeWidth=1;html=1;shadow=0;dashed=0;shape=mxgraph.android.action_bar_landscape;fillColor=#1A1A1A;strokeColor=#c0c0c0;strokeWidth=2;fontColor=#FFFFFF;" vertex="1" parent="Hyxx5AGePmNM3HRv6-pH-56">
                    <mxGeometry x="-0.5" y="37" width="391.5" height="30" as="geometry"/>
                </mxCell>
                <mxCell id="Hyxx5AGePmNM3HRv6-pH-67" value="" style="strokeWidth=1;html=1;shadow=0;dashed=0;shape=mxgraph.android.rrect;rSize=0;strokeColor=#eeeeee;fillColor=#ffffff;gradientColor=none;" vertex="1" parent="Hyxx5AGePmNM3HRv6-pH-56">
                    <mxGeometry x="3" y="95" width="185" height="50" as="geometry"/>
                </mxCell>
                <mxCell id="Hyxx5AGePmNM3HRv6-pH-68" value="Menu Item 1" style="strokeColor=inherit;fillColor=inherit;gradientColor=inherit;strokeWidth=1;html=1;shadow=0;dashed=0;shape=mxgraph.android.rrect;rSize=0;align=left;spacingLeft=10;fontSize=8;fontColor=#333333;" vertex="1" parent="Hyxx5AGePmNM3HRv6-pH-67">
                    <mxGeometry width="185" height="12.5" as="geometry"/>
                </mxCell>
                <mxCell id="Hyxx5AGePmNM3HRv6-pH-69" value="Menu Item 2" style="strokeColor=inherit;fillColor=inherit;gradientColor=inherit;strokeWidth=1;html=1;shadow=0;dashed=0;shape=mxgraph.android.rrect;rSize=0;align=left;spacingLeft=10;fontSize=8;fontColor=#333333;" vertex="1" parent="Hyxx5AGePmNM3HRv6-pH-67">
                    <mxGeometry y="12.5" width="185" height="12.5" as="geometry"/>
                </mxCell>
                <mxCell id="Hyxx5AGePmNM3HRv6-pH-70" value="Menu Item 3" style="strokeColor=inherit;fillColor=inherit;gradientColor=inherit;strokeWidth=1;html=1;shadow=0;dashed=0;shape=mxgraph.android.rrect;rSize=0;align=left;spacingLeft=10;fontSize=8;fontColor=#333333;" vertex="1" parent="Hyxx5AGePmNM3HRv6-pH-67">
                    <mxGeometry y="25" width="185" height="12.5" as="geometry"/>
                </mxCell>
                <mxCell id="Hyxx5AGePmNM3HRv6-pH-71" value="Menu Item 4" style="strokeColor=inherit;fillColor=inherit;gradientColor=inherit;strokeWidth=1;html=1;shadow=0;dashed=0;shape=mxgraph.android.rrect;rSize=0;align=left;spacingLeft=10;fontSize=8;fontColor=#333333;" vertex="1" parent="Hyxx5AGePmNM3HRv6-pH-67">
                    <mxGeometry y="37.5" width="185" height="12.5" as="geometry"/>
                </mxCell>
                <mxCell id="Hyxx5AGePmNM3HRv6-pH-72" value="" style="shape=ext;double=1;rounded=0;whiteSpace=wrap;html=1;strokeColor=default;fillColor=none;dashed=1;dashPattern=1 2;" vertex="1" parent="Hyxx5AGePmNM3HRv6-pH-56">
                    <mxGeometry x="-13" y="-21.5" width="424" height="367" as="geometry"/>
                </mxCell>
                <mxCell id="Hyxx5AGePmNM3HRv6-pH-73" value="" style="line;strokeWidth=7;direction=south;html=1;strokeColor=default;fillColor=#2B333B;" vertex="1" parent="Hyxx5AGePmNM3HRv6-pH-56">
                    <mxGeometry x="200.5" y="98" width="10" height="47" as="geometry"/>
                </mxCell>
                <mxCell id="Hyxx5AGePmNM3HRv6-pH-74" style="edgeStyle=none;shape=flexArrow;html=1;exitX=1;exitY=0.5;exitDx=0;exitDy=0;" edge="1" parent="1" source="Hyxx5AGePmNM3HRv6-pH-75">
                    <mxGeometry relative="1" as="geometry">
                        <mxPoint x="330.14288330078125" y="1011.7142857142858" as="targetPoint"/>
                    </mxGeometry>
                </mxCell>
                <mxCell id="Hyxx5AGePmNM3HRv6-pH-75" value="&lt;h4&gt;BROWSER&lt;br&gt;PROCESS&lt;/h4&gt;" style="rounded=1;whiteSpace=wrap;html=1;strokeColor=#314354;fillColor=#2B333B;fontColor=#ffffff;" vertex="1" parent="1">
                    <mxGeometry x="160" y="982" width="120" height="60" as="geometry"/>
                </mxCell>
                <mxCell id="Hyxx5AGePmNM3HRv6-pH-76" style="edgeStyle=none;shape=flexArrow;html=1;exitX=0;exitY=0.5;exitDx=0;exitDy=0;" edge="1" parent="1" source="Hyxx5AGePmNM3HRv6-pH-77" target="Hyxx5AGePmNM3HRv6-pH-73">
                    <mxGeometry relative="1" as="geometry"/>
                </mxCell>
                <mxCell id="Hyxx5AGePmNM3HRv6-pH-77" value="&lt;h4&gt;PLUGINS&lt;br&gt;PROCESS&lt;/h4&gt;" style="rounded=1;whiteSpace=wrap;html=1;strokeColor=default;fillColor=#2B333B;" vertex="1" parent="1">
                    <mxGeometry x="842" y="1045" width="120" height="60" as="geometry"/>
                </mxCell>
                <mxCell id="Hyxx5AGePmNM3HRv6-pH-78" style="edgeStyle=none;shape=flexArrow;html=1;exitX=0;exitY=0.5;exitDx=0;exitDy=0;entryX=0.75;entryY=0.5;entryDx=0;entryDy=0;entryPerimeter=0;" edge="1" parent="1" source="Hyxx5AGePmNM3HRv6-pH-79" target="Hyxx5AGePmNM3HRv6-pH-86">
                    <mxGeometry relative="1" as="geometry"/>
                </mxCell>
                <mxCell id="Hyxx5AGePmNM3HRv6-pH-79" value="&lt;h4&gt;RENDERER&lt;br&gt;PROCESS&lt;/h4&gt;" style="rounded=1;whiteSpace=wrap;html=1;strokeColor=default;fillColor=#2B333B;" vertex="1" parent="1">
                    <mxGeometry x="844" y="1188" width="120" height="60" as="geometry"/>
                </mxCell>
                <mxCell id="Hyxx5AGePmNM3HRv6-pH-80" style="edgeStyle=none;shape=flexArrow;html=1;exitX=1;exitY=0.5;exitDx=0;exitDy=0;entryX=-0.01;entryY=0.8;entryDx=0;entryDy=0;entryPerimeter=0;" edge="1" parent="1" source="Hyxx5AGePmNM3HRv6-pH-81" target="Hyxx5AGePmNM3HRv6-pH-72">
                    <mxGeometry relative="1" as="geometry"/>
                </mxCell>
                <mxCell id="Hyxx5AGePmNM3HRv6-pH-81" value="&lt;h4&gt;GPU&lt;br&gt;PROCESS&lt;/h4&gt;" style="rounded=1;whiteSpace=wrap;html=1;strokeColor=default;fillColor=#2B333B;" vertex="1" parent="1">
                    <mxGeometry x="158" y="1193" width="120" height="60" as="geometry"/>
                </mxCell>
                <mxCell id="Hyxx5AGePmNM3HRv6-pH-82" value="" style="endArrow=none;dashed=1;html=1;startArrow=none;" edge="1" parent="1" source="Hyxx5AGePmNM3HRv6-pH-72">
                    <mxGeometry width="50" height="50" relative="1" as="geometry">
                        <mxPoint x="720" y="1252" as="sourcePoint"/>
                        <mxPoint x="770" y="1202" as="targetPoint"/>
                    </mxGeometry>
                </mxCell>
                <mxCell id="Hyxx5AGePmNM3HRv6-pH-83" value="" style="endArrow=none;dashed=1;html=1;" edge="1" parent="1" target="Hyxx5AGePmNM3HRv6-pH-72">
                    <mxGeometry width="50" height="50" relative="1" as="geometry">
                        <mxPoint x="720" y="1252" as="sourcePoint"/>
                        <mxPoint x="770" y="1201.9999999999998" as="targetPoint"/>
                    </mxGeometry>
                </mxCell>
                <mxCell id="Hyxx5AGePmNM3HRv6-pH-84" value="" style="line;strokeWidth=7;direction=south;html=1;strokeColor=default;fillColor=#2B333B;" vertex="1" parent="1">
                    <mxGeometry x="330" y="957" width="10" height="88" as="geometry"/>
                </mxCell>
                <mxCell id="Hyxx5AGePmNM3HRv6-pH-85" style="edgeStyle=none;shape=flexArrow;html=1;exitX=0.75;exitY=0.5;exitDx=0;exitDy=0;exitPerimeter=0;entryX=0.599;entryY=0.343;entryDx=0;entryDy=0;entryPerimeter=0;endWidth=0;endSize=3.4142857142857146;" edge="1" parent="1" source="Hyxx5AGePmNM3HRv6-pH-84" target="Hyxx5AGePmNM3HRv6-pH-84">
                    <mxGeometry relative="1" as="geometry"/>
                </mxCell>
                <mxCell id="Hyxx5AGePmNM3HRv6-pH-86" value="" style="line;strokeWidth=7;direction=south;html=1;strokeColor=default;fillColor=#2B333B;" vertex="1" parent="1">
                    <mxGeometry x="778" y="1046" width="10" height="229" as="geometry"/>
                </mxCell>
            </root>
        </mxGraphModel>
    </diagram>
    <diagram id="3s4qPU9PVFNCCbtvBQTB" name="Navigation">
        <mxGraphModel dx="233" dy="891" grid="0" gridSize="10" guides="1" tooltips="1" connect="1" arrows="1" fold="1" page="0" pageScale="1" pageWidth="850" pageHeight="1100" math="0" shadow="0">
            <root>
                <mxCell id="0"/>
                <mxCell id="1" parent="0"/>
                <mxCell id="hMjZgbyv40eV81jTOW-D-1" value="&lt;font style=&quot;font-size: 18px;&quot;&gt;Journey of a Simple Navigation&lt;/font&gt;" style="text;html=1;align=center;verticalAlign=middle;resizable=0;points=[];autosize=1;strokeColor=none;fillColor=#33001A;fillStyle=solid;strokeWidth=2;" vertex="1" parent="1">
                    <mxGeometry x="1115" y="30" width="270" height="40" as="geometry"/>
                </mxCell>
                <mxCell id="hMjZgbyv40eV81jTOW-D-2" value="" style="edgeStyle=none;html=1;fontSize=13;" edge="1" parent="1" source="hMjZgbyv40eV81jTOW-D-3">
                    <mxGeometry relative="1" as="geometry">
                        <mxPoint x="1140" y="175" as="targetPoint"/>
                    </mxGeometry>
                </mxCell>
                <mxCell id="hMjZgbyv40eV81jTOW-D-3" value="Input from UI&lt;br&gt;(www.website.com)" style="whiteSpace=wrap;html=1;fillStyle=solid;strokeWidth=2;fontSize=13;fillColor=#33001A;" vertex="1" parent="1">
                    <mxGeometry x="940" y="145" width="120" height="60" as="geometry"/>
                </mxCell>
                <mxCell id="hMjZgbyv40eV81jTOW-D-4" value="" style="edgeStyle=none;html=1;fontSize=13;" edge="1" parent="1" source="hMjZgbyv40eV81jTOW-D-6" target="hMjZgbyv40eV81jTOW-D-8">
                    <mxGeometry relative="1" as="geometry"/>
                </mxCell>
                <mxCell id="hMjZgbyv40eV81jTOW-D-5" value="" style="edgeStyle=none;html=1;fontSize=13;" edge="1" parent="1" source="hMjZgbyv40eV81jTOW-D-6" target="hMjZgbyv40eV81jTOW-D-10">
                    <mxGeometry relative="1" as="geometry"/>
                </mxCell>
                <mxCell id="hMjZgbyv40eV81jTOW-D-6" value="Is it a Url?" style="rhombus;whiteSpace=wrap;html=1;fillStyle=solid;strokeWidth=2;fontSize=13;fillColor=#33001A;" vertex="1" parent="1">
                    <mxGeometry x="1140" y="130" width="110" height="90" as="geometry"/>
                </mxCell>
                <mxCell id="hMjZgbyv40eV81jTOW-D-7" value="" style="edgeStyle=none;html=1;fontSize=13;" edge="1" parent="1" source="hMjZgbyv40eV81jTOW-D-8" target="hMjZgbyv40eV81jTOW-D-12">
                    <mxGeometry relative="1" as="geometry"/>
                </mxCell>
                <mxCell id="hMjZgbyv40eV81jTOW-D-8" value="All the Appropiate Network Process" style="whiteSpace=wrap;html=1;fontSize=13;fillColor=#33001A;fillStyle=solid;strokeWidth=2;" vertex="1" parent="1">
                    <mxGeometry x="1135" y="315" width="120" height="60" as="geometry"/>
                </mxCell>
                <mxCell id="hMjZgbyv40eV81jTOW-D-9" value="" style="edgeStyle=none;html=1;fontSize=13;entryX=1;entryY=0.5;entryDx=0;entryDy=0;" edge="1" parent="1" source="hMjZgbyv40eV81jTOW-D-10" target="hMjZgbyv40eV81jTOW-D-8">
                    <mxGeometry relative="1" as="geometry">
                        <mxPoint x="1403" y="335" as="targetPoint"/>
                        <Array as="points">
                            <mxPoint x="1400" y="345"/>
                        </Array>
                    </mxGeometry>
                </mxCell>
                <mxCell id="hMjZgbyv40eV81jTOW-D-10" value="change into url of default search engine with entered search term" style="whiteSpace=wrap;html=1;fontSize=13;fillColor=#33001A;fillStyle=solid;strokeWidth=2;" vertex="1" parent="1">
                    <mxGeometry x="1330" y="135" width="145" height="80" as="geometry"/>
                </mxCell>
                <mxCell id="hMjZgbyv40eV81jTOW-D-11" value="" style="edgeStyle=none;html=1;fontSize=13;" edge="1" parent="1" source="hMjZgbyv40eV81jTOW-D-12" target="hMjZgbyv40eV81jTOW-D-18">
                    <mxGeometry relative="1" as="geometry"/>
                </mxCell>
                <mxCell id="hMjZgbyv40eV81jTOW-D-12" value="Read Response header&lt;br&gt;&lt;br&gt;(also a little bit of payload or few bytes)" style="whiteSpace=wrap;html=1;fontSize=13;fillColor=#33001A;fillStyle=solid;strokeWidth=2;" vertex="1" parent="1">
                    <mxGeometry x="1117.5" y="455" width="155" height="90" as="geometry"/>
                </mxCell>
                <mxCell id="hMjZgbyv40eV81jTOW-D-13" value="Yes" style="text;html=1;align=center;verticalAlign=middle;resizable=0;points=[];autosize=1;strokeColor=none;fillColor=none;fontSize=13;" vertex="1" parent="1">
                    <mxGeometry x="1140" y="250" width="40" height="30" as="geometry"/>
                </mxCell>
                <mxCell id="hMjZgbyv40eV81jTOW-D-14" value="No" style="text;html=1;align=center;verticalAlign=middle;resizable=0;points=[];autosize=1;strokeColor=none;fillColor=none;fontSize=13;" vertex="1" parent="1">
                    <mxGeometry x="1260" y="145" width="40" height="30" as="geometry"/>
                </mxCell>
                <mxCell id="hMjZgbyv40eV81jTOW-D-15" value="" style="shape=image;verticalLabelPosition=bottom;labelBackgroundColor=default;verticalAlign=top;aspect=fixed;imageAspect=0;image=data:image/avif,AAAAIGZ0eXBhdmlmAAAAAGF2aWZtaWYxbWlhZk1BMUIAAA1HbWV0YQAAAAAAAAAoaGRscgAAAAAAAAAAcGljdAAAAAAAAAAAAAAAAGxpYmF2aWYAAAAADnBpdG0AAAAAAAEAAAAeaWxvYwAAAABEAAABAAEAAAABAAANbwAAVwQAAAAoaWluZgAAAAAAAQAAABppbmZlAgAAAAABAABhdjAxQ29sb3IAAAAMv2lwcnAAAAyfaXBjbwAAABRpc3BlAAAAAAAAA00AAAGqAAAAEHBpeGkAAAAAAwgICAAAAAxhdjFDgQQMAAAADFRjb2xycHJvZgAADEhMaW5vAhAAAG1udHJSR0IgWFlaIAfOAAIACQAGADEAAGFjc3BNU0ZUAAAAAElFQyBzUkdCAAAAAAAAAAAAAAAAAAD21gABAAAAANMtSFAgIAAAAAAAAAAAAAAAAAAAAAAAAAAAAAAAAAAAAAAAAAAAAAAAAAAAAAAAAAAAAAAAEWNwcnQAAAFQAAAAM2Rlc2MAAAGEAAAAbHd0cHQAAAHwAAAAFGJrcHQAAAIEAAAAFHJYWVoAAAIYAAAAFGdYWVoAAAIsAAAAFGJYWVoAAAJAAAAAFGRtbmQAAAJUAAAAcGRtZGQAAALEAAAAiHZ1ZWQAAANMAAAAhnZpZXcAAAPUAAAAJGx1bWkAAAP4AAAAFG1lYXMAAAQMAAAAJHRlY2gAAAQwAAAADHJUUkMAAAQ8AAAIDGdUUkMAAAQ8AAAIDGJUUkMAAAQ8AAAIDHRleHQAAAAAQ29weXJpZ2h0IChjKSAxOTk4IEhld2xldHQtUGFja2FyZCBDb21wYW55AABkZXNjAAAAAAAAABJzUkdCIElFQzYxOTY2LTIuMQAAAAAAAAAAAAAAEnNSR0IgSUVDNjE5NjYtMi4xAAAAAAAAAAAAAAAAAAAAAAAAAAAAAAAAAAAAAAAAAAAAAAAAAAAAAAAAAAAAAAAAAABYWVogAAAAAAAA81EAAQAAAAEWzFhZWiAAAAAAAAAAAAAAAAAAAAAAWFlaIAAAAAAAAG+iAAA49QAAA5BYWVogAAAAAAAAYpkAALeFAAAY2lhZWiAAAAAAAAAkoAAAD4QAALbPZGVzYwAAAAAAAAAWSUVDIGh0dHA6Ly93d3cuaWVjLmNoAAAAAAAAAAAAAAAWSUVDIGh0dHA6Ly93d3cuaWVjLmNoAAAAAAAAAAAAAAAAAAAAAAAAAAAAAAAAAAAAAAAAAAAAAAAAAAAAAAAAAAAAAGRlc2MAAAAAAAAALklFQyA2MTk2Ni0yLjEgRGVmYXVsdCBSR0IgY29sb3VyIHNwYWNlIC0gc1JHQgAAAAAAAAAAAAAALklFQyA2MTk2Ni0yLjEgRGVmYXVsdCBSR0IgY29sb3VyIHNwYWNlIC0gc1JHQgAAAAAAAAAAAAAAAAAAAAAAAAAAAABkZXNjAAAAAAAAACxSZWZlcmVuY2UgVmlld2luZyBDb25kaXRpb24gaW4gSUVDNjE5NjYtMi4xAAAAAAAAAAAAAAAsUmVmZXJlbmNlIFZpZXdpbmcgQ29uZGl0aW9uIGluIElFQzYxOTY2LTIuMQAAAAAAAAAAAAAAAAAAAAAAAAAAAAAAAAAAdmlldwAAAAAAE6T+ABRfLgAQzxQAA+3MAAQTCwADXJ4AAAABWFlaIAAAAAAATAlWAFAAAABXH+dtZWFzAAAAAAAAAAEAAAAAAAAAAAAAAAAAAAAAAAACjwAAAAJzaWcgAAAAAENSVCBjdXJ2AAAAAAAABAAAAAAFAAoADwAUABkAHgAjACgALQAyADcAOwBAAEUASgBPAFQAWQBeAGMAaABtAHIAdwB8AIEAhgCLAJAAlQCaAJ8ApACpAK4AsgC3ALwAwQDGAMsA0ADVANsA4ADlAOsA8AD2APsBAQEHAQ0BEwEZAR8BJQErATIBOAE+AUUBTAFSAVkBYAFnAW4BdQF8AYMBiwGSAZoBoQGpAbEBuQHBAckB0QHZAeEB6QHyAfoCAwIMAhQCHQImAi8COAJBAksCVAJdAmcCcQJ6AoQCjgKYAqICrAK2AsECywLVAuAC6wL1AwADCwMWAyEDLQM4A0MDTwNaA2YDcgN+A4oDlgOiA64DugPHA9MD4APsA/kEBgQTBCAELQQ7BEgEVQRjBHEEfgSMBJoEqAS2BMQE0wThBPAE/gUNBRwFKwU6BUkFWAVnBXcFhgWWBaYFtQXFBdUF5QX2BgYGFgYnBjcGSAZZBmoGewaMBp0GrwbABtEG4wb1BwcHGQcrBz0HTwdhB3QHhgeZB6wHvwfSB+UH+AgLCB8IMghGCFoIbgiCCJYIqgi+CNII5wj7CRAJJQk6CU8JZAl5CY8JpAm6Cc8J5Qn7ChEKJwo9ClQKagqBCpgKrgrFCtwK8wsLCyILOQtRC2kLgAuYC7ALyAvhC/kMEgwqDEMMXAx1DI4MpwzADNkM8w0NDSYNQA1aDXQNjg2pDcMN3g34DhMOLg5JDmQOfw6bDrYO0g7uDwkPJQ9BD14Peg+WD7MPzw/sEAkQJhBDEGEQfhCbELkQ1xD1ERMRMRFPEW0RjBGqEckR6BIHEiYSRRJkEoQSoxLDEuMTAxMjE0MTYxODE6QTxRPlFAYUJxRJFGoUixStFM4U8BUSFTQVVhV4FZsVvRXgFgMWJhZJFmwWjxayFtYW+hcdF0EXZReJF64X0hf3GBsYQBhlGIoYrxjVGPoZIBlFGWsZkRm3Gd0aBBoqGlEadxqeGsUa7BsUGzsbYxuKG7Ib2hwCHCocUhx7HKMczBz1HR4dRx1wHZkdwx3sHhYeQB5qHpQevh7pHxMfPh9pH5Qfvx/qIBUgQSBsIJggxCDwIRwhSCF1IaEhziH7IiciVSKCIq8i3SMKIzgjZiOUI8Ij8CQfJE0kfCSrJNolCSU4JWgllyXHJfcmJyZXJocmtyboJxgnSSd6J6sn3CgNKD8ocSiiKNQpBik4KWspnSnQKgIqNSpoKpsqzysCKzYraSudK9EsBSw5LG4soizXLQwtQS12Last4S4WLkwugi63Lu4vJC9aL5Evxy/+MDUwbDCkMNsxEjFKMYIxujHyMioyYzKbMtQzDTNGM38zuDPxNCs0ZTSeNNg1EzVNNYc1wjX9Njc2cjauNuk3JDdgN5w31zgUOFA4jDjIOQU5Qjl/Obw5+To2OnQ6sjrvOy07azuqO+g8JzxlPKQ84z0iPWE9oT3gPiA+YD6gPuA/IT9hP6I/4kAjQGRApkDnQSlBakGsQe5CMEJyQrVC90M6Q31DwEQDREdEikTORRJFVUWaRd5GIkZnRqtG8Ec1R3tHwEgFSEtIkUjXSR1JY0mpSfBKN0p9SsRLDEtTS5pL4kwqTHJMuk0CTUpNk03cTiVObk63TwBPSU+TT91QJ1BxULtRBlFQUZtR5lIxUnxSx1MTU19TqlP2VEJUj1TbVShVdVXCVg9WXFapVvdXRFeSV+BYL1h9WMtZGllpWbhaB1pWWqZa9VtFW5Vb5Vw1XIZc1l0nXXhdyV4aXmxevV8PX2Ffs2AFYFdgqmD8YU9homH1YklinGLwY0Njl2PrZEBklGTpZT1lkmXnZj1mkmboZz1nk2fpaD9olmjsaUNpmmnxakhqn2r3a09rp2v/bFdsr20IbWBtuW4SbmtuxG8eb3hv0XArcIZw4HE6cZVx8HJLcqZzAXNdc7h0FHRwdMx1KHWFdeF2Pnabdvh3VnezeBF4bnjMeSp5iXnnekZ6pXsEe2N7wnwhfIF84X1BfaF+AX5ifsJ/I3+Ef+WAR4CogQqBa4HNgjCCkoL0g1eDuoQdhICE44VHhauGDoZyhteHO4efiASIaYjOiTOJmYn+imSKyoswi5aL/IxjjMqNMY2Yjf+OZo7OjzaPnpAGkG6Q1pE/kaiSEZJ6kuOTTZO2lCCUipT0lV+VyZY0lp+XCpd1l+CYTJi4mSSZkJn8mmia1ZtCm6+cHJyJnPedZJ3SnkCerp8dn4uf+qBpoNihR6G2oiailqMGo3aj5qRWpMelOKWpphqmi6b9p26n4KhSqMSpN6mpqhyqj6sCq3Wr6axcrNCtRK24ri2uoa8Wr4uwALB1sOqxYLHWskuywrM4s660JbSctRO1irYBtnm28Ldot+C4WbjRuUq5wro7urW7LrunvCG8m70VvY++Cr6Evv+/er/1wHDA7MFnwePCX8Lbw1jD1MRRxM7FS8XIxkbGw8dBx7/IPci8yTrJuco4yrfLNsu2zDXMtc01zbXONs62zzfPuNA50LrRPNG+0j/SwdNE08bUSdTL1U7V0dZV1tjXXNfg2GTY6Nls2fHadtr724DcBdyK3RDdlt4c3qLfKd+v4DbgveFE4cziU+Lb42Pj6+Rz5PzlhOYN5pbnH+ep6DLovOlG6dDqW+rl63Dr++yG7RHtnO4o7rTvQO/M8Fjw5fFy8f/yjPMZ86f0NPTC9VD13vZt9vv3ivgZ+Kj5OPnH+lf65/t3/Af8mP0p/br+S/7c/23//wAAABNjb2xybmNseAABAA0ABoAAAAAYaXBtYQAAAAAAAAABAAEFAQKDBAUAAFcMbWRhdBIACgoZJjTNSwQENBoQMvKtARDwAMMMMUDZtcoFFI/hDPllJ7zNQRriCmCOgv0hKzu0ED2ZSSxxvr2uPpsgQYPUQ3Ij3SxEKfnC6ErczszRAsj7vscMFVIP8R6nck+GZkfJa8y3POjHHj9R6Zvn1oGacxf7o2yiYhMXH94frYDvS/5BUlKPKmO2i7v8bO6hiv+BbPmZhcFqtROydkX2266+7mfwsWVHz/CzpMFEk7hZ36nO/RDFTNTKc0TXZPucezu3VY8q/aGbWU81KQJ8rLPR7KwF3Oz0qM6/ltRzwIf7+R1A7LZWxGmqh2movyD5TAjM66HOzw77U9Xo5dgCXd+fSVABJImh9SN/xi15NSZgfIebe+mw0GFyaHijoD50uvIANaQwEupi0DNv5GrQOfqKso6E27SZozoYXAclELanAhdwAGYViQc0Y2Wdr2XZYzkoUqv95zOvKA9Bao75nNV36JaPsFzLKdYhp+jyGEngg9wkHxzpB4ztJkScwXUzY950ax1g952l3CyzLV8OL3aHl+MejJGr+gTKV2lkKPtiYN6OLaF27LertHtN99QE19f2aXCFXG1qggCob0bf24RdOL8qu9jIky25qHzuKh+jNNGJFEy6wXRDVjX2PxCl787GKVA/jYgpuSId9DTT85+UyWtFeTJssggZmwJOhTuEgqG7i27SsRTLfj+f7HDkXe7hOuzDH1xBoTqeBpzUMWgZ7HFwGaYIB2WRRLxV+H37bRlAuobh0XkZ7gCBZ69oZQMCK2FboilF6uRI5N0EeDrJNaXyvs+U6LxG9BeGnXa5LJ6SRCuRGTaE5qCG5hNH4TvCuXyl3gNge0XeD8AKCuBQ2/i+h+A6tAwRKCEjSbFJAKOmpw5qO48tXc/H/yg28LAHUjOBJD0ImVA+Lczm00XJwGpVp9WUQpxh0oDfZ6b0ttMaTwWpWdiOjMuCESkbpaqZiRIdG1zj77GlKaYpV/YCGj5dSNmQitobM55pCD523AU8vGa2l5LT2NIyPtyvhqR2ilDXlRczXyMx8sc+OwJ7z1vMSXCsI5/5IpktEcKMKTI/UMNeCBeQpdC7WlGxCH61rBeldUMqL5b/tL4ekVvMfNMIydViEzvuFyEY/ie6BbaropqgAakUN1jld3B24LKEYnPC+BqpHWMkNiWVoflnDvVIeX3FYvWb4tV4zwiNAoUKNmqE2xepEhTlV2k6Oftuj+uif2uHWTKBPMDzFbfTbyQaYcK50dursrdRXMldINKkqnB3ec739pIATQvdLaUi98LCFp0g1+5WtG/mJ8ODbNu0dgxl9YFExqtrZOAw0An8ZqE/Zpz3Q4LoO8V9F9hE50GYbaF/+SyHthmfvHyAiY6Vg3BRSlyMA2khww9+IRQirlnqKkcSc+MVREdFFuanttFXVwA+YxLbp0MoclKyeYw0UT8WqDTFboIGc8+zRXupk9bReusWLaGdQgDrpwtcp+qMqqW2kv/QEF3TEUeTDPN4hgHbRmTt6gwhcWkRnQsszhZ8EteIv/vB1DvpJ/nMBGsfQ1eq2u7iHkxa7VoHo64SHFSSj1Tzg788Q/PtOKVRXILxkmIowSRh3eWeUyP/eFGV8+aSgqiOAxzXgNiNGj0/Ly3g6IzNpfnzsq1HxHG4tpDp0uhgNt6ZDJhM95cRdOaBl0EuV5gC8Vzfi7cwA2kaYcOxFr5SJE5XC0/pRGF5TckhYX9NFbUb2EjP6U1L9jVPc4/d5VOgUBYFH3wrno6R5e/Hg4ipt1AkRzOrl44E6vhfKVIClsvoLqhZ7pF0uZLU2o1g1FIXeIHSwEKe2K9hXnf+Crzl+h2FAO3Of4/KKJ3rcB02tU+PaQlj+c9OaIFjS1L2Q6b8zgH92tn+O9qkI53dd4F5BYNkE5XQUUngKl7lW05WlEOFiw/shsM9uQHhzRgnBxKD3B8Gxx45uX9+ESHKBsKdb/njk0nMeITzL1Ow9UCskvfrnlRFwkroFufOK9lmtOT6fZpPGdds0IJNPqR4ZdhkLtx1AdHl9K2AXzwXJpRhAmqlFc3sMctI9MtS+OBUJ4iTzkcOx6tHCaUro0G8M42RVrCaZOEClzHT0wgWkv00LFmdOKZuMScvsdc24VE0kxNKb/EoyO8SWu9ubHfG5cbhrG5sFMxDxFadLTDf3SJ1LMMdquv/UF1IQceNnNhuW9gu2Qyi+NvN/JpQ11Y6lRX5bXwmxmve0+1gG9Q0FAXZgIsYtyp9uLYO5hLsQ2ZQH9Fv+YMnPjht2TMoBqdcsl6rTaMylNvAtXjtXk0TVRRTp1FJz7stt5Ek9EvEU5nQXiQ95BunzgsOp6lz9tu+BQypUGYgH8oXiXUZsWXZUaPPt8OUqWH82jb9rPKB6z0Ft6aMKaCR7m2X9i9Jm7NIQg4mcy/VTmXDEQjwgR1TwHAI8/QCsdiYIHg0fRADxYdY/HntC/wypBRkaK411/6ElBih+ht1CchItsU55ekLvGJO7bjGXURqILDQx3UeaLdDYhrG6o2M4bJrd6gHpHxqaG9Kf2SloNua3ItAkvBZkhKiIsnOTA9vjPFZDlh6AE5I2M8nwzdIbhYuytXWoXyniXZiRmiHi5SnR7u1rlXkctI45f1vPpv6dXRiB/Lj4q0UlrPPdPHMPMu+dKrOLQXjTBCv17Mb1Qy7o63klKsDqb9XPRLiTNNX592brM8v3Miio2dQKlxC4yxzZ8yVNm0mTKoTmS0PjD8jInbZw6dj5vVJCTBWJ1kQAd79Wn2Bnd94QHJEcr5wWzh/a/vbQn75I21V1ZLl5R6MtyhqrX6YQVVCxj3XtnqymFLsVfQIDtj18WKOKDVeKtyh8tWYEKywGObbjVzaqEFIZFnZ570dCghVVd2dkm3bJV+HhCII5QGrm8uhxPZRPQf/WziO0AchgnDapVUdTkq/6kG5//eH0aVaTRkdECRP5q/vo+O3GF6MkuRDqY22VBnY8wvKoz5VpQZTLX/78ctZPE4cdME+5MMfA6nJu8a4z3fcbKbO55xAMAPNsvdCvBrbSGiR/nqHSNpdB13rvNGNyq3COPvyBKrFNVp472Uf40Vl6XzIeKE+swt9wyZoIV0C1hbF+yKCrRzX4ydpcN7XrGCsC47Wjdo5qn83Ax15r2pEJ7KxnweKi/2Z8PQOzmocbdv1UKzvXBY6ltvLshkXCiK4sEfJEOQkCZsriwNlgX8HHXp9W2UEIRe0S5bA7L3sH+gJ6h6edm02DPOSDsKPQu20w8eJyk5+9YnLQhEnNsWj3G/ck1DOOmjMaroF+FqfWqEVhKQkvJpoy7ZDlz3DhQ3FwHofxwGW7a0w264L9Vzt3opoihbb6sUlCp23g4TrWPZvdyb0lBt0yY/W/ShZKX4IJ4lB4w9ovDmd9LP1LRXMPo6TuDvLwQMk2g4OLAJ40ULGbqeflih1qBQ8/m8/Q9aMCbooiUxhOlOngDCJOHqX8Q2w5IKvDL2+QvF9KDsmp/PqPDL3kbWv3fodkGCle4yowien+zbxVRhDLkTRmiX8FqcpGDqyBIKbn+a2QVFKedmXFGyvvRptDl96qgMRAvlMBAKGAcbshZaeipaK06CqaGoUuvqRC98kXEFnM/o42pgm/hZ1w7iDos32Sp4KMjzZl/OSoENJjAGxrpR1z74vP4m+kmX3QAwY1uLQYkHCgLQHi27qdPs1vt9JukmTOo/cVfQ2VT/Ez33l3Smy69UBVhQ7zP7ZA2HwmA3dPb5L5pXnzUOis71HL0YTkx6IyUFH/WDGtN8EIuRQw8WDsnRqi8JTSVckqMyEZGg5qPa8h4UEHXPQ8h0KVJAF5uqePXuJGeCQTGpav5BtA+l9gMzdUyLzrsfNjI/p3Oc7YVDTdCs+nOfK6/fivWHFH0Nvgs/pf7AjbQUUq+bt7EUvQiEkhfvSphXjM2ZtYeACabO/ca5H1y4rq5DgQyuECiylR9YpT1yOoJOvtCVCO7IK/TFuQl5fLOcglPm9xDTjmyceIqmWXhsRVPIO2apPrxEyK+5wFw4OV/JVdpgjPg+phLxdNZFjrrRfZLR9qbcUsLQdZXMkyXdnYpgqdjaGk6F9EyuciiiN+W7MNU9CRul7YdbHcY3UrPw7dECD0SIvPo6QRVhoCzPAb/TwFTScSX9MVHN4+z7yDdHbc5UDCYffod0iR5XywPhin+AQoYC7PD2I6xzPk3HMi0l6GFhuEtC6hCQEFDKA+o57M0Ovvgv1CU7IvEeJY/g9QG2u7/w2vaBl7Mdu0ZKtYLhq8DAryzzUlk9uMsfS5lVTp3U5UZ3TIl5lm1lYUZyPIy15Feyzlsz2SGIgETrrDHo8UXt76Y7+zki0vkAqpVnb1DIb1RvZeekKBdoHNtO27ID6H7143Bt6+RZg8DPLLrMP/C8/sC6HbxeWWs/u4Jl44l7iTqtP0zxNzTd3jVdYbS6VUO8466/77R52qrg3PGkj8zuyW3p7yJZJVzxe0stV+C9sCzhNc1P2otkhI4SvXeZUG2mhRd2XaKZobPno5cIrkVAcQZ8HDNf+jQo6lT8jcrqJCu8XEQg7++VidQh9MNfl/0YbGlufKOu2PJNJyRpvhfsFRb5TPuznBTC3dmDyhK/pbWUOIpjixFhb1fC42LZ2DG2jZp1CNiEgfbDnt8YitpLrqydm0PC+XhTOuoTVsx1XGNadnphO6RbHfRvQmvDK0g4cybvBr+clsOLpvdNCPqroj1q1qbK6xwvcOMNw51IWthHZjJ8Iucs8iyS3nU54aYwAb/jhB500LsEMi2f2jtn0ZAInMIXZj1a861jsV0aeXeflgIHfm29go2JQ923Hyh/FK+LvJcGVWJyugfeyXhRhrBmNkMAXu4++INGsD8UjK4HoiAt+rO0JuHBw2hcn3txjsYg8BC1D2wDamRbTeb16KbrLwZXvHMOTJ3XtwnnvIItqdAtaNsYg8htaQYLR5ReunXBFgfHuXLgvKx8j7Q9odYie4eCvBvDyeat1v/duIv4r0MJ5AnZGTLv+0wYuSjhc19eSnjeEk/x8+YPklrfZgHnUQgkI79zaQ2lZaGw9dv7jtoih2oiLEfxvybqmRdd95/RpbOujwE/N7bUpzUB0FCjhPurMAEy8Ef1gFICCjsA9tFwZ/+1OXgBQ0xW9FhEnDruTMqWxZAQxo7IlU/iRyb6IovsXFlUImvAvWgmYtwC9vIUjJNeWBaX3UpBW2Loy4ACbBOeG0o/sZjh+a/8/nC5m5Ik/gbBbqwfib7BK/6W9TVIt5prB2oG8RBqYDAgxBRV8l3K7zOb9JZkHOSbbNvmyWkkm29p6bpzgTZ8zgEt1d1Ee6GAcAVffUvAUBo+5PVYurg9sWwcIWMeRH8WZxFwbSB4+yBGldZRiziwDbH2NjaEGru9zw22vzpBtxLxFg+nozaY0Vq6yIgtm5a7erHV63GPaSS1uJGQgZ12MZjrBpAHLEfETaI9TFMKgcjkLjf49l6e5KD81zDDQ1RChl58UBFlEOqfjO+fNo6/lQAqDYiAkemIbXmc9xduNpDs2KY0DvVsOZd0CamJ/q1zh2G9ReDbJ5jPpb8MJx9phR2znTC7j2ar0EMveok+CUvGcZo8sKbmDV3Prd9u0+IgtlYX6GpexT88pxMa1Q4UfHY2+/fv7eNSiOFo0lR0bIG9aj7EcHwD/3JovggQZW9ef4hkx3yUreV0bsZNN3hBLn3utVp17lbVXXVFoUV2TIwJflzAMMG+3A3B+38ApFCX5W0GLTDh+dbbFHZwJ0FClVHPXg755ccyzjIQnivdm4JlnA3ZaFvgPbzYH5B6ehvLrENDYJQr+AvxYNDzp/l020cNpN0r4y85AhU2tGVjhJfaGD73s10ZseFQP8nHPSxFQKMyo5tId9TS+tX55SQGVZ9/55+VOekh9nQmd1BLweCh9fva0pzUz/m9aPK0PqWMZfiZeS/+D+xrKmq1HAOg5zXgh0BRimA0C5czmnnqdQlzJAPWD5mPaX/qAIkGB8mayTBdrPeN3zzQRfMSTiyJVOO57LrljJxPKCfmfb+8sRMpK2qNC/u0TL02Md9RHWXBzX38hl3fAZmhJJ9vlvEebESkGB8ulVQjjh1/OBpc/AyGvlJguutasf4AaUBGqWUa5NB/TDn9fTgJjxMVnVmmBLIy+KM63sGdrYqbNyBZD6siRl76pCMSnXMQejcfeD2Y3XfJ8YbvtgOkYeXdndQ+JKWKqVRrHJAJ4C+MJpMIpWEGCK2p4SCVCfDvDnyLXYi5u8n0539TnsjPCYO7+aFx0BxwmQDwICBRWQ3wSmovL8Q1NbTUXBGnsls6KzFHNKQSUWWyFmbnPNe7peSihYKCohCDyMgC3XXAWNNIv6znwV0ULpGUMXG+7xqYKVCCOKAcbK3WJ0SKQJ+wse2mlOsUkqRHJwnQd4ig0btfcoL95PcN/UiXVequa4oKmRjW7Ec5MCMoMdh5huhkd8z3L/KNYp9eKJRqlh9UypIQ0RHvdfEGJOMoCxdBkQcsT4WYb45wkijxZw5g8mhqFlIl8tijgaJw/6AOp2II7uiV94rdi/nP9N95TKTM/zioAWG+M8T4dsFZYGH3Z805YyPU5P6UprKWieeNRwOHEisxfO+3NzNTidOblck9MjBfTI0r4mCZOtl634qbi8BoT/AP5/f6k708w2XErbKLGa+ih1FLbNu8wCY26+TmjnoWBFw5SsiE3Gv3dfnSNOsZ17BzFuzOrj4kAM21VPmjXZMsOYOr2WvVTaaMhvpjTI2FAMrCD7I+SB+62VoidCKXGjZBOWiFZrfszbJ0XgPpTgYNa+PCppLN5CnS4v3GyRGTSxOr86AhcHsXsWm/nrHrcx049rv8bi4DphGXo9n+S/9Bve4gMIvnU6odHF2LIZo6e1ZQKwiAm7Wu8KNXHkKnXbjMttVive93PqM9CsuEUVA33f7dpYon7wxb9kUW8LBK8/sa5VHfmGZWulWitsKr7GLkIzONSdEgh6ABKmP8P2nJD3MIanBDikX2biniuKVQoHneWKPB0NNK5+F2zA1dS7ZhvPRhU+aA2WNkkYG0lKFUfL9qr+PR9h7ubOeGRoTkkmhtrhfSU4IclKLKR3P9xxxwsFoDENQd874s6W6WZMcDkNHBHX7FhLeQ7yLh2amV6cnd+loJrNtlKZOJpsG/FlpZByUxcIToBE6cibGxetLub2LPuvBbQo2EhIYvSV0044f5tJ5Cuk5v/RJzZbmTl9ZEl243IHhuBf8fA99EXwVYnChcT/wwfZLf8MRfKET4BJD6o4yAEIAzvghfzaarVUofMNE+JX5whoadRyl35s+EB7U7jpmxoDSNMyRGO7w+eYhHWWoXQElIw9r9tNF7AkyhPYSN6I56ztJ18/HTFm190v6vmgV0E5Em25lgNIhegHQplt9eb/w7oTpnezukWZSlkPkEsPYGX42qr0bLhZyPAsQh+WoZZ0Q9PPtSae6MKRATA5lH4FkjDXh0K3Hlqzzq1op/nixJjHrCl9Ff4v7fqgvnkpJkYjLNtFgvwLOGujo4SPxI7TpnTgiEdXzOOAHlZWtMfsL1F6oFjm6gdCix0OIbg9ulY9S6zrXt7RU8o/aoAYXuQ7yUqD6k7aEfLpU1FM3XW5sGVzcZi2zPoOPNABllrt2yzROQV6IQGMKUWkNEkHzIaoGwq6K28S0aj2/2L0+jWVWSE1ghLxwwrRRDXK/nU7V+w+wj3ogPlDIpdRtfWYJkzlvCipNBmATTu6cy1uMcTHzR4IkWoZRZeIznkwWsG+iSLGurfxInlQVwCWNC/ObgCBWmb/bSKnOm52yXDBuZXoCCpu6HVXgCxjPHjCNmW/gX2vD0bF11p2bX/MJFTl7Xwdjah7aQGRW3KWSL/+VujxcWq/bPFPIypUfyp3xwBbTHv6KYg6xaEPJ0hkBMWEwD/XS4Nn0AtKZ5RjoBH+8xkZRj9h/T6tD+AZ/UPsOwn1TS3GZqH1Dx73OW6I/qQa1TZnuS/HGvgpi5cpeHFrGsw2M+b/1gW0SUAGR+vekpL/bUSRYshEJ36eCuBCwP7MHh8PRZE36MYFQRnsvLSAq//BOgGVW9DYk3Zip2xSJKefgerIMIHDuivZVb9JppFnMtMy0FecHX+3qLn9QDQUh8uZozYtvetZeND78YYkViJ8zopQpDA7yil6qc6UHI9V2UhsXEQwxjgucrX4UwOzxlg5go+8EMZFiQPRRYuh9frM3D+5zRPyvaNs5mi3S9hGMgUa9tBVpzk3ItyYfyXwPkGIuR+WMvKbJpmv+eQd1qqAAbteEfjmqcVUO5EozFzhFQew4DMmNCdTBhb2esvRPkiioLYNcht5bzyrn6HvwmaSd+u3/7DEIgOsCYQrXdnlg4bLanpBOeiyrd9ftnftZX/yGyJQBav7nk2/8kkdBuw58asqfX/IVzVlY58b+X5WRPaWEmGTOzsDeT/WuajijBwMdfk4VukbUIGYq6mcxXlAWWjua6B66g4HyzgQ8YviAIRFp8BVgjNN3i2dBVeUe4TxS9YBvwOrbeMwHSoATATmuKNBDwPhtq0uhTn43c//3OtsYw6eY3sk9F29sd+sgfuyg6bWbr84YiT9n/pOOwSONmpi9fGjZ7sIejOmLd42fA9t4pRAb1MADgGqXqQYWConJuI0M67vqzLhyzCc4Pg3epSKl4m2FWz/EQe4QkUWVk4KJgRyBHC30feJPK0IpLrhKK8TtbCTrLKfCIY4Fai2rU2VctUnmsDFvRwE54hMP+urn+SA3PhaXq9DOeWeEuSo8ee8sugRviCwRKFr6DD/+AFUizsX0WRYKEI/MAzHikUTu/KI9DA8paq8pNEo8PwzUjOVPQ8sPXBK2Qwb+CAKebGQrLDlD3FHI4jdzdbE5cSyW0/tg2LBzjDfNTdSfLEb96321qCDrCfLJQsOy1/udm8i7FQgLh2SwLJd9CBGPAGW7XH9wgoz9//MWBfCx0y5f1pu8Nz3mBe0P0PtlQ57GcGAVlrDOcRlA7eT0RA7VuKmDetaeUe2S7xbu+9VKNr3mWJbWWhWdIWeCZe00o/dPJ7RsArN6xuK0bAdDf+JMIB4uegUMAOIDWHCvYXVU/z6fQoDTEEdBpeGek/MeSotsfE2MQH81hmyQCdKZD/rBSOhtHQKwwvfbFPfQvWSkVCTcrIt7w7W1XhUK4XP6/7d3h/Rj4iEnhwk6l3/H0EuA5+FQGYFkQe29wejEz2PiTo/DfT9p0wSyc0tGdICPmFUL/CKvIwyTYDnRzliiLS8nuZSmkR9dlh9Oi7/0TAIVZ/8dDl8rFd4FQOFcJ2jR2Zhb5MbpC7vewE1snPflTK6jIM3drcjoS0b2Gl3ZWqiWmXB3nRvZBcanL85dXQnkfVwGs0snK0P+I137cZlVZcpTF9f/TFkuzlHhBiiWtr9qIvhGARNhoeQFCrq62G2G4RDgfEFusaHYXv0Z1bJ21JWyLvY/AYeHxIWVsRi6i55q6KpqHXTistb1p+VnCSVCz9ZJYBKEubqITQbf0ZSrW3k/aWbwgF+kHgSbCI+kpjk5ayB5uTTEQRwKTUj7E7D9EvT4+O9sRimYN4i0RbhY3W55kZbapJvAPnRxSKTz4nEAN5xY0yRr7QrZAO5tvCdiyYtwBph0f7r817KZgDXYevltHQCEp4dkEC59oqOQd79G/WtfZIuLWsQ0dXQWuzyVk9Azp6KqjYGzR29Ym+22lPvSfmsE21aod0magdmqhQM1nAo9kw7uzakA/UjNbdltazAAqRAQBK2H8fvsjxn8ib4YiV2riYUYbM1EbwzoyA5WdGapT4pJMBPiGPJhdow/vCqsg4FNtI+e3aL/ovYAIDfjWACGDPlbDGPmK/AKoaPZ3kKlFCwLEaQTp9bM9wow+YWAXXmSqtCzNkRQDsrRzb1tFDAiAo1cnclxRxzRlco68ENHQViTaq8+CoWQE5DOgntvy1HY3f6M90SHVdJddR6AXkZiuh76KBW39N3YRrugrzBVMVjDBdpzwz0Yw2QirMnnxzFdZrdvRw3cSsV/YkEWNxV9cfYB9XMsWv71tUbViyFftoFS9vQ3wAxOUIzpJ6RvQ3YJJfEYCFkSmIbUzEVDxNcfY9ntdSQhFbpVaCDnwSQpESt7HNQaeeAzEqQlhzKihL4N359QoJ2RATIqQQcauuWFONViQ+ZvQpjEabEV+Tkv2wht0daCHpeskRoeD09sPbsj0LUMm2VxmH8YE1pLLjvcgbQ4tReUGB7EgL9sPgn597dAOGsSjiSV6Ut0netNQjCTjEm39PKVVttfi8XFprOvO2BaH9EEq3Zu/7YCj9cUHSx9eSFrJjeyDrZLkcKInGYrAnubt4xthUTr1nnGN3+p/gdprXpsMPo1RpRzZR0LdxfT0WANt+/L8WGrZnHoSkbM4Pt7y6DvPht0z905TG+kGUYCZ3fBArTmOYY2KBNSWIYJlT3dHCwNXFkkP9VgmcRYno2S/tuw5TC0T5r3bqAjs5HVNClcvp43JplDKI424rXSnVxKS3JoSF+f6uHOncOsmEmxh2ix5v15/EpGSCg/SfinRF+FVccahknQLPWR6DKtwnxrcFNS7ceceqehbOfgIsNpHhNYzwgfM9EG3vibprLRtvsLmYvYk3qFUpTOHYpBhvn8QKBRRUe+oo8CrzdxYWo72jzzGcXLGYGQx8p574alUWlWKngbcTMgwzybwgk8cdqO6hzs8DkrFhAtSFl2CQZJtFUFfX/2Gr0i/OdaN9SFvkOsQ3bv9vw1AU8clD/G0dqZTMGeCnsOYzt2kS/ZMhFd85dnGYYGqk46Nh294MvKME5UXTRedFNAcxwD3oOrVK6y/JVxahN2sGUv7okmATOkvFOi39P3KWUkR8x04xF+KkB3SRBvG0yTlGwNBS9oRUchcR7cBr6lULYCRVEv3w7NrxS2VqoIEBOksZHQRs6H18kNuvZ4ExvEOqwXUK+49gxxd9H3+KPAYUwnEk875XdpKqAYtfHVLtJS8f9HDN/pBej3l60MjckWGiZ9lr5GUvljZk2gtbEQg0wci7HyS5bhgM1NQpgbYACJEgwDjo/IbZF6K/L69cMnCRWcNgq2gs6z3Y4umrKAY25/sKvVHMtzDOcNgIXHZMzv/AW4XwvOeB/w7W7vMHhFwiFFh4St0p3C9gMAFUwa09YAYUKmjps6ZM0MGkw6o2q1icJInCSA/ctlyMG9HiuYbnWbzI9iMUuN0HaHl2W0GUmRcL1HzA2uQcQxWX/nL8lHqI/gVKQXotxmFssDzN+GF35R0IvDyRz/7gSDRojIK0x6vIRwvaaZniEfofqMgSNPXjjMa9ibVhmQ6IMGBaoaiTqtHAn5FYvGu57kAELLDQE3k0YMIUKQaKg653FFrTEL0UYFwOFbt2TwLW/3pXrnG6cbYFrn35YnU+ZLJWkRw66wdkZY8HY/5weV9HAXad5uO92BLshNQHEw5supa2CHTGtTi/CuUShjrda+a0vR1q6ohURHrmx97rAoacAZy4k8MJGb5CisqghTfQevAFs1hKzH5Byn97fAMHTT4r2RUTf566dSw7oD///G4xgXxDCtFQ09okprvaStyU+cqa9lUo/GIBVEPxHki+xOSe9zzA2UVUEmTN5J7MMxhPjrUgJ3T5AdDZoKboRNAWMuW8pj6jvIGOhetGddmxER7TDHAkvrbjgrAX2U5osiyN+z3m7g1zrd8SX/Y2UmBwHY2KMjZZJO8xKRaSR2delQiW9vlgjRARI9eeZt115SQDl5WFfVkavZwMZSt+saxBs3ue66Xj7yvcCHsv419/d22U3+IYMggU5B+yCObaU7j6waQHOTj5bZA5IStp0pc/SH0pnOXaZKY8kLFybPSKZSRjp65HhmkOc+hkNJ6kRS39cvftURRQiXpeVaqiIPOJ+jWGF7EyrBwtfEWaFFMeFSwgSS4k9pdaJy6Z7Y1BPwOl1mjERQNVv0Em1DBDqMlG5AH67L0BnjihKTKNGMRjlTCib7Z6c7/OEBEgiI9LwDxFOP3KamMOWO5kYaKlstwp+gDoxP0CFNmlPgt2OVLTNBsPLR0s7+LXYWM1v6EYSZJV9e0/UJcU3rze7bUXW8GPkIkz9X3amb06KTO21Rddn7gpBjlO+/b/rJgXeJsF2oaw263pYwzk/bQwIc5/pnlfYnK71WHnc/pweJG73RFYmQwwkM/EsnvzQVQ7H6hTni/Q7SswSSOYEWVVrXoQvCZZhn4hajAF+Reg7xZY8+0RqhT+1uYLLzebFuZjv/gD9mPany5m6ZlxkrdQMKVn3UzhqT15rIBRuoMzwx/m7m1Iumz6d4hFohYFqNelv8B/Irp8iVJQzqnQSXupYIJLZEnue8AYiKTf5pzfg+/PFLcMSllU2fRF9LciEE3RRbHiiizIQU+gQH+LW1D5/sqjV92ldc3hr2uKzZ7Aek4fMEKDRJnr029tYUgguiieujkbiIZmLuVk9q9LRYEKySqd6RaD1gCSMqMNB0O+yiqiHtgOmZTD+/xRyxjwsBMqIWLLWJlJlfxK0CrbfJnasArYC0Bu4GIiH6uMeuzCvv15DKO8KfEkPjRKOyqh1CwHnsb/Of44FEahpnTvM4qOsEyXmdJISZ3hjyXh/G30LvHwicIfjonB+32ppQPfSKm4x6ZmtHgEFMFWdo4KXQsp3AU+y7oelkiY5vZ8ZbLgxZV2utCnX1nVYLIDlDxndieawF20N7/QuZ9o3BnPzy5hcQ+6BksdFFeG2RaaySsH+7aAk3kgD7hIYAJElr8bQV6QzAehTZTQCwQHAQgNgvANdMKOxlaJmozM/yHjphjxmsvuXdTsezlpD2uFqP4pZS+QrM2P/kqheHAs6mLHJHMj9VSiUfsHAvyms3xEhsu92+iIOjqaJw2EuOjsdfAYTV9zWQFrWLVPhuDn2+Sjlf9w5IqQ1n8V7pE68/RRgUQOP3mc4QJwAuZn8TO5rgTXNLwVgkdoW0GAjsQjswcPAnRksR3iqoD5q2Xz4AQy2TaCrraj6CFaI/mgRlC27S6n6JPGsbmDuBhlP/8f7WkbJ5f8stA1CA3Zg6wbt9I/BpZJzTgqcj41HI6r/LQqF2/o9G1IaUPYdR7E7UeNwovNSJmwNjs04/ti7Ce1zy+xlC6APnfV4e6sEkbDbOOKF3UZZwClpcgmvi18e9uXXbQnnv/EtWIysTfxb1rF3k/AFTKGfhAX/aEH7XlVm3lhjMu4o/UqOAnwcm+v/o1LYDn2F3tN26NOmARJgU1sznuHab3X+sflefcODoikBY3bSJUSix5YO8MOU7tao271OVfJM8YeZ82Tj8FmgWakcUzIv7nzYhh66KA4qa/pUifKn/QiYsj6XX5LfpDcKtNLX7baBIxgmddTnbJhEjfHD1yqM/8CDJS38iZ2foyX0PKtdhuX15MyocHhhXe45QGv10/DKWzdztG4khKJfOqXk4dT0aQ6dRqU7vsTqh9cJPwhf+4nfSyOGyAAiPn0OnOPF6TiEqGT2Mrrmffe0ZYnC0l5yWImHvVkU0nOoit5XFvRmPfLTz4EmpF0oSKW/CfmW70OEVos9iCpt+6AXPMaMT1S+XVCCTcVCiXVV7+YluKLaafLkNKI0WpIHqOceFYVKuq6zJbMJe+5C1UB8HaY/bcYKyNYYXklUuGmbwBRojcw9YQ86sDCeAVHj7nS9FwRqZ+QSB3t7ANRoyucQZwvGk/NfDt0/nHXoEnlDfMXuE2BIeRMdCuwD2ASTlyUM5G5hf5xppEl/Jk+tltgBcdh4kjuXSmOzhwlMSc9pcM0lIkzTfubUUSYSS1NbpFw/KkpcP4XWixvLguInRoRD+mwv6W1Q3eMKIPR6u086HiMcNpJ1UZe4FMoMxpKS13WVjnhh9TkIG0xkkOB3UJ79HTDvwZnrytTc+xiEGpzmahWseYbe3sm29OmE6aOZJWCkogwQQQ+P80XH19DWjc5d5IHS06HY7qptTmuG5o92egghRC1stWUOn8ypA0zc6/DH+hev4NFkP1R64T/ubLSLUkV3EluVERjb8CBq4USW4rO8eVMwUR76NVuUPKbJ3ThdKAToVe7PD+uXYmi5sOdHBzbVmf2ELsunyh03qvhvVot40mODUZ+mzOaq35s11QvokKqHaS24NJMEe7qB+6oXNs59Qq0ooxtRut7xADGhgeQzJL7LCdXBWeHw/d+S3YII1OuD0n98IdesUyrzorp4CMaxOIosfkBE/dJ5A1ne+/B6Bm3ktRudFdM572ENY4Y6HdwmIv74dhhjnay5vZD9Dh3yTdCc84o5RZoa9fQA/J8xWVwQj7h1T5kg0JdJFLcVtunEEsDLFfeH/9eVd8NbLrk8XAuCLjpf4LZV7aapTRhuTn/9MHzQnuOGjHOvqq5Ce4ekEZUnAI4hkXapOTzWH4Kmt++6ztUIuwpk0K7wLBwE68TJjW4WqnOmM7AgLls7aSa3IReO7XtqpS6nVxhlaM+1eCivYk+nKh8flHq7TkRHtmMLyUMz8TahPuRx2+GaElm7LB9cNn1k52L/71boWUMn9/mpyhsZEQTLsEK7y6TC6j+nGqTPRk+P8VaO5rh58Q1XRYaeJrprSZZywpjsiMtA/RHcb+E7psxWlNV8VwWynR8YPMO3FQQi1exzjNOAlw4QUAIw92AqlR8DkzIfeDDGm9EvqpZTWn8v6/FWs4qzEUZ9tEM0yqVH9rNjAYrtpOtO6Q7iFKsmUTIvJvvDmIZ4pKp8d7E/TjGVA6g4DPzbamkQKt/ULMVa5OrXwSPBi2zwZEfb78BMik27GXYtKE2UcTCFu2ZkOThwMZa9qjbxKFB0DRw2spzDcMAQxf5JA1JzgMzMY9JHH+cE3dE12qlPFIIU5ZrHmRxrrlBd2rjsa7xtb0DOTcFXtH0nhtkCAKQJwhzBlSwMGZ1LCMeVtWTDOSSswyvG11EB4DPaXrm8e3jztt2uKOnXT4wP9H5M8h9d6JEFdiIO9grj4ZMb3YP4Euzpz9hxmT/ZvhLvtziWJvS3YWMLEhsQVG2Ew1V294jzi4VES43EeoodMsS9QFpiP32v4Q+ovPgH1TNEofR7csxk0vui0lGTd1qo2RQWiDieCgB8yRDxfyR4cae90vUDicJSvx4tUcaZ659qwpNGL2gA9q8Db/vuwY7m/6rKhAHdByWhNBnCOuWpC8N9/YdSlavn31uWnf0Mz0MuYXnbRIGfjY7r/J1QrI70CnRRlFuamBt/n2GL/IQWKxFK/7czKxip51o7PoP+nmIxsJAzosgW0r/+29UxhKUCJ9cp3iuLnv/C14puxm+azoe2hxv5S6Z6npQ2VMxPvLiZiO28Ig71iIXLsd2iZYAxbO+q8QPy3WHj4lj9D3t4+ZCobTDDrXk+fd1vr20OU7dISsco57q9YcaRxUTxaBQj+6jFamj2O/Hi9b0NxF2WKu+EqW3GwPSW7qZe6qrfComvwtpNqLGBDrTqoFtG3ulAWeVev+Y7//Vvr+yx2Jemt83DPqxgrZkG94CEL/flCoGgCvbc/+FgfaisWv1YWuWJG3lTRVvY1/XDd1MjbDj/P4iuzLJVdtl04I6K9/yICVhtGhW3l5YUefZEL+f98TlGgbCXbEXaezQgi54sOq44TUQliSgaQgpYxJ8y0JYaO0qlkt3670RXohtxG+oNH0s+UguUfpI333AABEtUPiNiemoDbelyBnCPuGTsek2GV2BVVEZOdb9wcL9is30k/f22N1uawHrltRjROpMzBFnirKJTvlHwDJri4PCv3emQRI0Si+w+a3/fU8PG0M8s/5OSJ3yHu8ZjeJZReYmR8R/3C2SyO0Zau1OpVK8IEiGPJruMC+FIsWUfk6IIpLsebzsLv/iUyIjxEvWvsmJTX1xXO8ZLpQSmX1Y2g/Afl2gu6agP9Bk3iOmvygng9QePXFeegnOnU+l9LI6biDa0i6Co53zB19jO1N0jHdf0YMarL1JlLynGC+cTic3B4BYR0DnC3umzaQ6KF2NvZoyCLn/01QEKtcVjdlN8D1qWl1zXH+eex+9dCMogWSjr0Ll9eo/E3pZfOnSw+mR6sxsv6Jr3SUv7yEIn/PjYDSIYdhDAxiI3IxUekEjRkLyGdO6ZqrPRg0egVjgwZSIe/nFrr1nQy/BNqXDfsSaa3TCcfvu5jaHAhpzjP/////////////yMtSBEVpM7ULD/W2ZDubhWxQplcl0T6bTNZ+2x8QG8clRAlv04IDeYU1badR+wPMOLXpXSiXqsdAGgOkYmgB4K9v463Nn0mMXNmVR+e4jSGFo8+MibbVKgCQn/+G2nEIEJ1gZ715MwazlLRJQYLxiqvTYwPPO1LkC/7pDzBv26WPjU2LE7dNMPHSMiXIvXFBfWLL4q3GeMS7PFS9O6raoO9S8IRlHejLL8zC8JFQqeVlSbuI/nfWXhlf7v9lnRq0sAkm/5yPVpwlaJACAuvVBKGoSvfkTqSMBoOGnG/NRy7fnOvqbUuCDvK+m39A4AHpYL+VRn3JSFfbFmePs6mb2LREO9R7Df8g8AfiDybY1CnpjNnyFG0+zK8mzOrjfwz/R7KEG/q8Ty7JU13VpTWr1FSdmegXNBRJhpIFJoxRbx8qIz5MKktp7TlggUeYw5SQN8cuGUgJ8muSuXJJfFH+iZhiIyoZr5t/ukfcI2iqGO2hQIH9CzMhWgGM9gd2yCArN5xMwfLAFgRnzDFOH/aP6VMgbyXUvR//////////////4lAbUYtdy4bZKVyFqGv4DtGXWCxn+cAfMy+73Q5HOLm/HLQy6+QuHP624/LjjgVgNjsCePtwiuSgTAfJezpu7WdQLDpv6rHAPuXn4XnB4vxkI4GdTvgfsRRwUZ08DOkrHCGrG3pVSokjJXiIUdMAYCdGURxrK3etjLdSP/m06UMBTAbXztwIyvyi8IO0BUxqMOsEgfWAjRDYWhdfXBIi0Yqaw3IGrzKBzzZs//f7nIpZ36PmLtfhPMNbiJ0FvUL6dLp+tezTNvLC/+o4Ngp3f6vjz2fHXA8OVfikm/+vQLTVMPQVLOuNgHiu+xOxZHe38s2QYFLQl52aHqyDPtyGZlkVFHwp+ogXXvD1JrbTxwHPAWmKNBufEzyJVz1AT/TO3y/6sosVJzQ0Yz+AxcqUmpCjrYK3qm56vYA3ZrjrwBsqx+2J2RvlYaM5jXVpayzRxlSpbrZ1Pwl5ggXERUL++8mIW0SZm8IymW8mZXi+7CoIE0ItYe3pI7dT0XWx4Ib9MXGWzBMa5getyPlCxvBS9zjpowuPyySOP8mV4ArPfE/jRH+1ebR+TAX5KsMUNgCaxntXiWkjWmtI/KfKSMm+SKc2NseZm2vHiTbFBEls2GNoVobx3AY/Ghu2kFlJ08y/pxm2ByLx+bbpjO2enp3Q/csbg37OIqfoZs31leUvF5FZv58Inem3A9hXDO+68HjbezH6XLQjjiyE0e2E64rxpUWPH/9ViKd6kcAaC6rz5O6YOvc9NNsfM81rTgc4EVbvmb/6lcZJnZkfoarz4SX+F9MLg2dBjg/bX/+29jnnBvSY+zP+lvt254q7x9r6aypLqw1zpmdYAhI31gOO+Nsl9lE49deFeV8qMxD8iGQpE5IhEZdvJ5OS4l6UGIYxtFOrw95vKpWhgyBvf7flSe0bSBLJiTfKP92+RuMsqWfUo4yVicgZvnRnHhBdYqE+Zr1pwqLWpYRiThdjUOXEukP6hjL7FEMW078cKOabcGsSIcpvaBwRR7iLLVi/O/ID6uL2Aq35sb6ZF3+7jwI12WxMsQNDIyJZbfr9/zZxJmPITJPZDFD+3bA2vMvPUZIncUHjHNI1FJaNDNcG5pzja+Gw1Frgcxduv/zCeTqIwmG+x/IdT9f9vgdcJNDimsJwdw04fY4oO5GXzjys41j/0kNb4I6iHbG7QqR/Vh4XLz7DxXY1qls4yZ2dN67IStt7A93/Kh95jYXN9OsCaVJp7rfPH8J/Oow/maFP2+qIKI8l9LwHjWLp7TU6Ccbz/OBpj8uSX4CaumLiCj9ffcVgNbWmnSWiXOxLn6/UeT52uKSmVS0tsY4lqyNiKFzODeBDJmuGFNES2SH+AdIR6pJfPJvhCs7bG65d8eLy733rEght7vd0/LTLHs+g59RLMcCJyCMfVgEJdcc4/k2Uq9R9vuDVQv2vQPm1iwegDOIFs2aHi6nQka8sTJ1Gjx3RKO7JTpGpOq3N3eJQzgc4OJrSCsCC1oFy9//p3J1STcqN45pN0fq29iPLeFz/xBcwlUHEVvflDCb2EET1SypXDnbVFfIHrsSPOd3s3KVwDGQWmjy+8dDQDAoTONwcFsN1GrH13ooAh0LAiP6jU4+foJScDAEQAsE7kkAlilUFv//KWzfp8Xtc3vgRNnqw99245mfV6jOD254HS7OqEeBRXWVn5cIWjm6py69Z/APU9kBM4fQlNyh/f8zH2gjJF6/zWst9vtAmvZSkqnzMBmJYuqQwfzbMeLPqns4nJAMuhyhGlnE3YTL2q1aIsad+Cn/bb6rz/dbfmIwSsDkhPs+vCChInKOUk1yLCisLJF8OUH/J7cTcgml+RogEPtThQORmdZ9/uZLKnhZf8EKzsPHMCHo3yQ9trv8VBr3lBs8BKQVvf18HKmhuyoYwjbr6b43pZuMiBUZUXAsz4uH8RUsUOrFNw8AB/P8oPGKjvlw+I4lwbSJxY6eSiIIlNr35Yk1YT8V7RzNHRmVTo+1aLbGKSPenJC1O7AkIsMc9V4m1FuvraLWuZ9ww7t43hiuAWm6ETltmG0FMjY9DAFyXKzKrxoNdluRtEo0ggB9ewtP4UzN+BCp4rUh474shE/1z2Br2HdSiMtDETnRcQhouhnOB2EUwf4SxhpNpCLoNa0YFSzhMcapIlBg9CZyarKKs8uU9H+Hseyj5cP54zFtwRnxCllpg5cRQs9PS23uAnvMGu2SR42YqCJsZqO4cLHTxyhjsE+3QFRjfcL40YiCcOeP3/+2XkmwaCd2v1BUUev+gEDOz/woXT2L5ZBJ7SxdGrnN0WqoXnyR3pkwhxNYJzYJoJr8yMKUJOQDLEKqCmctWp3ISnToL2JOeVPmB95d7ySQPQy/SF8JDZcamHRVl9mmfqI+o4Df2UAuSJAVi1PJ/69qqa7qleHJOySaOJ7EzNmbd3w9XgVfY/GMcoMFWFhz3L67JKnEd+QTuuzGHJOjRYIs0mUnGOM5yOU+NKdmYc/dOjT96M5myTJo2YFxk435FrplSRVFKNOqhKbsuSO3AmBC/E5Grze65ucjAa+y0uyRwrMDascRp6VzZxHNeK8lvdyf2VaNhGh+OErYEEsI5w3p4SAc3vzdAtiGJ2F+HjwuLaHMiyk006d42qJFeILYJWsLQEyggAZOXC9r9KQj5rEQhB4IC6CXHFcFE4wXopkfxfkzDtK49GQNUoUf+N4B5oOBUHNYaTGZrB/2SNzsCkOLI9G593JmsPvrBsEQFqvlVAcP6Vz/F8pTUNofHirFPgV4caj0dWAlfOHi8N9jJxOXYstPe98ei0KIZUHxNJlzgpTcz86RgqMMiHlWGZ2+qvi3MDHzZJP52g6u0+fQSE2I4Fs4vOFUNlv1oZ3eRlZ+3KRRY5U3MfreN5VMWZ5QUI+q0hitcIEzKebmmz5mi00TvhDPusd2xhunBd4o5CSOvVTtWDEb0tGc/mXf7PBH7vFrobiP2raTGmVt7pPqAqUjR1lgLFQki0qDzfGbs6024aeKfm+EznW+dAjaWCFC2sP66lr2neHVQaGWFI4raCMZhlj5mUgFxbS2KalxRwbsa2E8pzMJAall6nAryZpdOzZl6H0ACynIs8NWJiwG/R6Sda1rZRP6xIrVN8hmNvBVSPL9O4XsdhzP6skKdPUuD+pLKcX+HSNEAhLxxmw6KBYl2ocRaBWg+pCaUG4ElXsTToMEsM36wAPkKALXmYCBkTHwBvd+9kZ5MuOJA9/VWiCS9nUoS+DgTm06gSa1217GKMkDpBExnav73IIAKpKcB4+/b/k7HKqTEaGEbMOYXj8S+vXjUijbIAw307uO51N/dsNaeZ38BZE1iRtZtEhPHenCF4LuhatlahEwI1eWw08oOWPCSqjotg94qw/79ITlORGBoqfWGY077y4d5CYUUDakJSWM6K4H+ogarBEVBwPpj5sfXWb1IlQTX4ygVqBB9JJqOybVgaFuq26yZVC3MBzRNlpKalCLrSqWzpihQvn5zJLrYeTG10d+AQeE/d2s5PQ3XG/QDjkBMYfQKPLvYLs9TgIrBj4+yEnaRUVaNkOR5aMF6kI9hfaKhCfkapP0P8YEKnN2+rEhjT27553nAVbCV2zCOM5fOMfdz6HbkSA/cz/bqJrFU1ITOTcR4M5SRB6bgrLmep1VsF3B2WS304pH9c++SPBPxowj6PDzSZ8cWdgOT6i4eK9eloS2d7FLmtfh6Qaid98GiFI1xYZ07xgpYC+hzMgLediMovgZ/JKjeIuksCBtb/4oIYYBGNx13lPfmKQCPnnFQFkSeavsogDc3gBisY6Pp6qRCHV5I2I7elBBsPPUhQmQvo0DRFZ91AsEovDVPZubAW+dNjausNaih8sl8abUzCT82oIG9hdFS4tzC3pRXVbtHcdTWM5jhvPgcf1Ytvr1PEctxbKh434zSFJOKE0v6Vmg60SPaMdK3j8RQeE9YKOcNJy2C/09vT+y1itmTkNq4lMthrD2PRVPG32lVQoqA3GL6lU0w3df+tBhOSC2uxCDRmKQjbCDrVSDLxvWHtkv/oq7ol9HNbkLfkg39SCu9GTLEJaB+UoYBlIBMw/xKNaVyhb+3LBsISdKmuIjO1N5kx4oKFyjAuPfHm5Wm/UzE1QuqvrpqdUZDA8QDh66ELjhSkA0jI3PneglDhx1mQMn5A0U+XObmK6/EabeSCXr+2N4Ttl8meTMZx91z85tqAacDg/M0ki6rIKCYYAoHY6zesoocBPNbmPMZGVOal9G8ZTS0J7OafZWBVKj7go9U5AZyzcAPiBUqHIWszc4k3nGq5dhrecjQW8U+l1YWdFEukh13r1VD5LP5XiCqOht5R0qZ54ijce8Z6wZPvBEjJhdYyMTtnT7gANMphF3FnGyGwyKDmVMuX78hJJV56iUIwD+agIVwElqZO03wqxP/YSzrSoyVTveABppUa0Fjl826nknxf39Dq+3bYpb5VBH5MV2420xy/fi/6rWRxS+wgoDNirGltxiyC0SpEXfZ5iES7DwusE52qtX6wq30lRGGHjHv70zT2sCdVCb1kNaROwPxakutPf1WOf/bGyZRMmXKf0RbN2f7jZcf2SwlVd18AaxzlA1rKhncHkzaq2dEbYjGCsAVLZ2CURaLd0jUUReALmbHAfPNd2LP6P4F2YQTrESPjqlZl9itFH3M2SsntADknPMv4jSYMG9jxjhAGEoJtMhQIbWpjMdVcraeVbKqoqd5deEqMNopfceR29X68al6wAr9PWSBDYEh4jMygiLXTvpdZ7Bsj0tZ0RTtgKAPZYB69lofZwZcQXttEGI2K+nRPw+TKYKfhcIawTcM3KnoKZk7IXVff6MMnm01eL11GiB+GQ+Hembe+JjUyIV3YDR+1jAkJxKreK4tz4Z/qts1mY9wSsaYyC8eAoGJam2sqstrYUi1gg2b/xwvxmlSc2k8GsebYRGYJzPAXfELxmUMkt4FBcUIKdZbtoz4mybKX+cMlEmAQAfEal85wSMBZW4rDnNnCJPe1CfpW3zOJ3cfSTeskepLRu7QFLGK4ZzwaprqZSiO8bG8EzcqIMAQSutjIMJB48Kbb9pd+7qU4kg5/fV/lNETHGIShv27/Vf63io0ETQXXd9YJPwV69WekhkgWK8MJYXR6ZX6jCBKvRHTcQ+gcUqucYnS0jG2FiBaI4xDIwizzf+WOIGOzX6+dwY5XPGbYDApFG7AFr9gdugR44uZQtfxOw6pZY0DPWRrJHMnxoRLs9z2ZAPM05WjIpHGmHY7xJpUmGG+4ac3frbNpP2r+45SBW4VsSNOG94pN0SPHpC/RN0R7LzmiVoMmCGYSj+CRgI3THH7hCpUkws7Hp7ljnqnMysq5WRVbTIn5BRZR5Job2dIVDxLW84DczNeFGgUme//koCfwAIGxwtvquKoPFDgBrYH0gjgrGX1N5Bp4stBxr8Xg3h9Zt0S53EgkOd1UyzYS1BvOrXztLUGe0YIMioDvnTN1zWx/SVAxdqtjckzyjErtHN8sDMIY7q5cm7I3AmXh8DYA4akLpK/tmX/WjgnXe/Mbk+u7NLDOFuLv+GbR/mvbtRN9mIetrfDaFh6sNlTqBMbEmguwdEqjTwA3OrCtvBzSCp1IfZercTQEihCVj4KMBi6F6PxF2gIHJsheW5RKrpullU0cQQS4SQuT7SURzAzZaGRCtQLwb4kVd4Ngr5gJ09M4HCBfZz4NgCNAcvJrdlAqaBbb04VyvI/7a5i4lBy6KsNCPy5Fvu0ClTcZjbReZmY7PWJufzBF+CwID/3kOKgvzzWQKU/OwzX2ny+/H0N9H+UePnJOEi/mAnpEdO3AvOWcH9Luwk/t1K9XDhVXnip9bIiGcnyfsGI0ABZWbMjNh0QZ42/CWtLCEnnncpt4GhMkI0BKmRirHOqqPBMs5MFlNDCnYxtKhbYL6cnWe1XdlteZQ24lfQwqo8cSCzYBIpUHKWhcprUeAp9DKLJq8iv677ihJOx4flOybhJrOX1EIrxBN2FZkhV4D6QiIAklJFuXxc4p4SkzNtLEZ5rvKidASwF/owU8pnvGdqYcnYZntvw1s0nmaY+MjdBZ/8rZWU/wIxNfY9L8rRoPm6WHPIF1jxwpZdKGN+R8YBf/CbTTz8VAj6MsES8DHtE3vml0yGMbDUqFVqEFt81cqqN6my8//pkvdM/YnTig1B7GMYQB6T5NWHG16NWturECV6pfa5K0ST1SMA98LkFo2NwGd6F0q78c1hKTaH85ykHiGNA9X6tTkJIVGSg+j9yw5olWtcWusts3sXim710XFu56FpVGDP9m4oXtwVyYmersHjWCtfu4R74ek5zCaH+KvvwQkw28jAE9vmhMABZQfq5jU4tJTttoJmviSgmaYNryONgta7UlI1DpbCbOHroYwGPvm5OigkWEZw2PwyAMQmyFeFEsh0uOcw41WiW+lqXmZvX/5fyxwHkREVnKWLQ+69P0wjZOjcM6m6ix3CH7pK7BAr5/rLvfbUVuhgsKI8VM+Rz9sJCbxYQqoU4LRZVylPE4VtagDPlrqcJV2HaTltAwut7kmMbMnh0+zd+t4cNytonkMps+TZF9tNTBFiEop+BB+yVv/uc3A4Ki/q3Ngu8oRDlqg9Z7DUkFb3t9TgBKGttMn5XMD4jhHpVca1y0ZePbNfzrob2YVVBFj2YTg03y4mTDJmNh7YvHYL1rqYLQ4mIwnYtUo3hGZoDuJ4P2zgT0W4LOUmGEwbNYhaen3KBPa+eRIclE6hSSofJLqnslNIBIgq6LKMXbR8mA+VAls6d3R2NGjU3NM6A0MdaWZpVpSUEKM9n5/XWBCWmwNtMxDWSePpMOZHIuJOj3bj5dRpbOh84dlGa0qgUP8chcKRQy3TECPdwYXXJpuvYp+tDrji8gfhq5EPPvy4YtUtPTYR8mgEx82G49MCXlEcCa5SEeVWAgU8Z9BFpshbNdkg72/3GUEYCNBs9P0qEzNcsbBPowS9QPLDViuD6+LyG+uJIhwbavy/f9KsM69dlQio79KCLgFcWgxZHYmEXTHmAY5B5O6yYq21QoYYLWw2b9FgcohaIwIZvodboDt4CVik7Ox1YGYAshOLvu1Ri82Y0ZaCJU3AA7CyNXxtG5/eQE5RMARg8ouSQfqs+uDarW9PLBf3tDlNNZC3jnpqz8tCNuLT7Lveh4BE9ZIbsldQ+BgpLSyS6hcwdRvvtn6MYbedNyHYomImFlhq+3qLOIyqlYXxtHrpGH2RfnpcjoRd4ELNFfzROu6eCOnN7cetJV3+3e5EooZ9ESV1jWn6uvgYT3cpQ9lF2Vb+wKHVZfzid4NAGQq3t9oFkRD/tRh7/Y3f8NZ88MOILUJkmC7LVW3g5a8J5cVEUN7iVBhGkib7j46+hdkRPv/GeibNOGBA8owpA/JJ5go/bmxusIEqJ2bcXg53VIu4kThuH03mqn0VX7GS9+MSvcgE5/VdXCZM0zpYwe5RHM+flHr6RJt8zn5iyNWGJt6myD0+sYsk4iXkA0g9YespoB3CqoxiErPMWN6FQS6gLd48LlvIWYsORm1FbpHWs5Igp99LW4CCsY4btPBRjTFCvBY4megCFb7Y+xexdBvThmj0jOprl/a41dQZq8TjdvVvGxp05y0EjXLUL61QTEkiBC7emx3R0+DGFUfxoqiP2XsY+EJ4RU2uCjwxhSxujdaiPBSg4KH9RdwQPrV/8F4iFRmo0xkVCJx2sQM217Ye5Cyf+LoCuz8HNMn8xU6WdYzB024CBIuCdqasft0yFxCK3LgKUjSBjUVjcbD8x+g84XehOfWyySsBNSej7zvxJ8Fx32KtmK+BFbKkSc+EUrm4g17d8vGRjADxeC7pbS1/iPAD+nLYpP9x7cAR/KvRp3dXano/It7xm9oB/ig2iT2or7hwPvRj/OdzLV1LyETfIht2/kgINvykVMVPPrjt/zg8L75E79UTl5+9vrEJTDjfQQh3qfHCun75GAbDCF9SeKbMqscCS4OAprSfr46x621hk23ngU4a/IXL75z1kw83bZtXR+uI81W0QuS3aK5/LOOWW5AHSvfj54hk0hPEXqWB1WgtaK7+hFkrm/awg/OwGi4MEAOP0YmHLNWbKdnJe4wzO2ZEeI0GgnV7T22BVR////ysZTULFm/SXYfOk1wt9ZwyixhJ2fq+SRJ6T1jDGbQQzvX8gjsF0ISpBbvMF9r1HcI+ZtJywHgAdJAhm8LAuqiDRUiGslOgygljoEbnUwowCQnHUc+EHDDtc9jmTimk2+9XyLSoWJNBqGhYTOWCdJnfCg1GYVX48l3QjyhQ8S9XLM+F7Eb9vcvWvQqaqXihr12nzb/k+hOR5Nwpz/aDS+OXgMql14hAvd3Xd7xDfzLsdNdh1wUfsPlNQLphKKkfnTzvf5vKl3CjY9AbDQRUnDlPrqjvUcW/egx9kinCmMmgF5FBwenuKmB50XzbzYwmuJlPJE9jByrpKoru1Np569Vh8jAuwlWlwihtUTItit4jxJYJAetICqRySyl882n6WfUb3ncSXg14/7+VuIpWTzJxljYtW+gFCQL3elJvEuNTWIHKfgwANIZW7pqP/tP1DnoBuMfBjAZnFPF/0AYjTGzXzVvm5/dmmQhMqsxt47f2qQn872Pw/QbIW8be/spYgcnUswMlIhyOxPkQ/9li7RBPNh8K2+KDuNxBQnW9sIkNAo7OkuR1Zhbe6dRYO70+QPFhDZd3ovH2mgSvT76BEZR9Z53eTVSUhUmxqb6v6HpZryBMRkfqnG+r51glI8HZCEaDG3P8HOhQZePLlSJeuatkltYgAOUnrB+gWGS2HM65xv8beJpmLqpweT5W0ADqsGvu9fOa84zTaP2NsaqPrtp25Q5+hsvyCBkftiuEqctTptqRdp/2kHkMdua+sHRgXCO+B3kkIYTL19fP1Aaob48ruU7opsKNE4KQ1U9OhL047KWaPTmF4RhZirUP3TQuUMwyoGosA8jkMtavpM08gIyFMGglO1slHsoYNAIzaURLVoB7aBV9SChOMFjKm42uj39Cbl0+xZ1fRWYAksJDqfjo2s3TBjoBmOGxYOaqQwES7ly46/m2TiiTmM7TU+Ck/fqK4WW7U8pDcD7rBASXX5+ku2My6/NUSM3z4H3y8gD2jiDHHlfjiOiPYeqF2KRjFK5/dN9pHlPM5NQERBNrVQ4N3L4lMBBMuUBrUZXHLeptNev9SDSFELjrbR9sP87aOByRHm0WgRnkJr/LTZ6/nLydOY46+I6th7t9y65BE1/onk1EUCKhofuymq+M8dQ9vxTvObW6rGQZt3rW9e2CnoZeijoLtvojAUDTp8jjNC7XrA5iGVfrkOkGJuEcQ59m6pLgmELdh44xcmxo6Bt1zGA1vwgMhJ+SFWIXW618PWmlq28l+nFKVNijDApU+aR2AOA17gubsfTM0F5XxFAOD0zTxvI9vqTSlforZlRZQ6+nGkXcwHKshEi3nB4ZwuN4OlmMQKdoLcOqk+WwQR3QW3iSEFR2yKItFk4yQnoxWzn4uYCmr6LGPzrb2/sQKj2SbFb1NqPQexDDpktByk0IhLs8wNPOu9AJ5BeLunRav3exTMF8SsWXd947MfKiCR+9XxZlr24y4GEqC9mT4zOEHNRZehnIndtD8XOuHJCh4K5M4zAQD074c9mP7F1PJ0p14TEPXMQJALGUEYsBRSVlGLqu77RvnCUTqPYZDmLm4ezd/lErDqH9qvi1ieIQRxRHGNZS3XQsfxG9lYBu1tiOYXYUM0EdOsENNdzfCmN6I++yT/0rrUBz/8wH9URFgOmKxrapvRfLj7dSO5GBV2QKtkQJvWMETJJXUJ5fbQL+wOFC0FBe+PGXdBBqrzEiYiIPwx7EkD8CCV0jN1AMGHIP5EQuS/pUETRXBh5JZDkclhVb3F2m+b6XjzD9skmtApvSxam7sGyxD0rzpcjBoOB/3e1vvtyuWLaEqbnQL9o1y3FYOSIlcruWlAdma8zGhn46f9yXUfELmfVb3xAjCzetp49EzsFAwh/vjcHHMDCqkPcix6CwXf1Fj2d9xKxreRZMbYT7Q0tlMelTdWIoH/UiXqU/78yI3i8jwywImYpNX2GNpcP5VdsAIZ3cbpVxIPeWJZVcYtVGOaGrq3amP/F/3pQ8iAi6JngXsBdkjWK5CGNa5bDR98OqMjRrAQkuqFNTGm4v9FwN9j43KcQYvl75w1tOFicnsxfwdQrCFEbxsK4fkzEiamONIQAuJQgO5SnFnQiu901flwJmo9tvG+fg3ZZMhpn8yB3qbS9EZtAohH2w4/tIQz7+nNK+VxgniBj3LpBx2FQjenrZbhwq5hGQwUcfZAvME/IJoozc/AscDBVRYkwGX9Z7veH29izgUzGnQpyxQ7hQbXgSTSAdOWeTlilZDRoOwQRxBF1bLGEp6i2u/wEkOMnpIoXEqIWPQS+BTtSoQnxRqhfouGFUzNlS6W1Zmfa/qJOsJeZ0pxz/Y8zVAeEiHFiy0nvMHOI97c9k/CKQ1buchQgyqNL0mbnu4ca98QrL5GAFjozUMgivPbYes+Z0NMvKgC2uxlX37JT3cY4m6BnYAjrJ6u6aowMA8gk0oOtxVeEEJv2ksNF6mKlKH6I8D9EFyTo+uNl/Zz2gOD+z2Xud9f3iUFJJFrkyRx60jPMu0abGkCN0SEJIiPHhtbl9S6RZs5cQh+0gnE5F1D1gjjWRIVQDA1ODLxcOkiOJe0Qro2jP7eJ/yLUR0yzM5rciN8JKJhZ1cWxn39BB+owVK++DSO1vMIkVBSSGq3j8sgE8kdFNaoTzQTO4JRr1nV1R+sAO/2BPB6kPSiUYdfFf7/c17pmt3DqQixZsAzCGn6DAyetjvNZgEM4D17lpsZuaJI0a+mERaAVf0Ev2qkS3Sn9T7Vh76MJMgYK0kbieR0JNo9efEP1L+XlIMkyk3nEORWjGSY6CHpEti+fWz9Yrarj3YZNDaU8YagTYDuf0WTUmTTacWRkETtKzMNrrcBBviQ17ZyM6ERReZM8CGNZkUwLTZBGU7g5vMr//SGVeR5gkBYKCFrv/RJcPsPsNwpBckalSpxHFhLw6OYBq5BSTbNZ4OYl0xmnszpqr4l11ELPYQ8r8lDvpuatNwz+4wRjIueQ1pMSABoXs57MytxGNX31GqYFHFOsK7YqSF7ldV+SHr5va05KqGbkIw28g+HqiPJLLvjOfwgY3lnmb5s6rAfMaQ7JI/fJiA9et8UtTrhl+WMQz1JcxJ+acQlF37gzZ2KXBBTcAwY6hpjPmFiXz6kcE/yHFx2LogT+ijCA0vO24dYyiczk1UBI9HtY7+GI+G+zB7EOL+08/w+RXHygZ38yDtdzu3kN/Q5XQBLjr/2F0VfD2r0cqqwbmpZqWKmglACdZb5GzsHvf////////////////////////////7GIYCToBbmv9KSN0ysTziRVz+/tsu1n2MvY0/J9Df9rJzr5M/y/0v+SSTaV5FnloPrB85ecp4uKt60qHW+gyBhpBmqUu8KcrLitUGgonLf2LqMc4kOto+zk4Jg6Mf32DYLPUKS/PP79Ed5IsJ9TN5BVde2kPlJLXxLoivPJq7mqhp/d8L26Be6Fyceiwwh1jtiRhgVMrMPUj2cTJCNqijjGauJ+D5b5zGcRqFPiCHGm/kBJNl8c0fgizMNa7lCDstguxFoc7mS+TQwvMnwB3gL7i9q5bK4yLOrdFsgJ702T4MT4mzy/pU1EJDx6+nhHYUZy7l/RZND9ZB5/topoy2dNdfrWtqpy7uVsfmVGhvxphcCrmGAJcsRK+Y4ZcHdMa7cF/IZmcSRLciC/H0NFEovX9I60lVwwDASlhOH7jpOVZX9m89CihUsDQIA1CzgEeE8nDNEQ6EGFEKL9JkHytUSf6tJg26Mmmhu/rgiIZ4wbXC7iLvNT17A/Ry/JldMYdIhfl49NzGna3npl4hMAVkhfHS4Iwsr1VoUiYJaT2MOWkFVOfZdbPOK8okBG0jJtibp4oou816D515VnqbxmPDqsdalEbNTEtKYo1ncsMOJj74LviLmESMsN3s61H1J7sXrUkEZdDfqGZiarr4bRSHosyyg4M6ofmXwnqmf1DeVAIcBMHy/4wXafrbvby/69Nc5D9l+bqXNO3Ez5xviQqu0O+KZexXK1ee1XoDdHD7Xr6BV3C/EFS2eoJf9b+tThfNyutkcU3iAgUubKPyZkI6mzry0T+77O2/ChGvlAlsA4v1EPF0QS9Nxeq47fnaILyn3bZ96+2yNA3/Ycz1UrqZZXWkY87VtcLSGMAjSVlKPyzhzelzTVu5gpuxECtMiDgHnEKLcqa+ZzANee3yZ+z+zNTQ8fdfiYrUo3FgFuZmh0PI31JxGIafQdgXNuQRF+6niPA9czcNZxH6hURLyEWUwiv/mwNwctVL7D/vwxdd0z6eHqp4ZsldIvhcJfFKMNk4uJFskHgWyQBwEaLFarvn3aPGhgjLqqWuu/ZPLwo6n3hiuocYdBbMMDA1zqOZstOQt9iRsk4O/ojh/rYCaOQQoCoJs6AKtDqF1eGlOHBu6seUkDxCiyoxc9f4Sqq+VTgZsrhXRlb7PdiJvR48sbKlgs9j8a4HGKO8PZrn7ruYFHmTv/bJeP84srzaRUkHviQCZvJXI0ZiuMfG6QHBWn6EmzZbn4zuEu29xUOVNhaJxoweuh5LgCd1aD7lDXUrwNVszfEQ017WfkuDOyvdzNwhnNoJ0rKRZObB2LRezxs32mLATlD3gSvPImL0icDeo0+dCL+9KQfnW76crSooVFauqcFgKaO8MYQGn8xTtsab4CmJjnZMI/I+/aWs92aYEO7f6UAH3ZaK3pIBr0nmozAc+SSUAXZz8t438saAb0VT7ugyui/i8e7mPAJbdCiw1eyzeLWCrqTtu9Qotvymje0wCbvEJxtNZBqA6IyVGpVGdXwiIyJZ+GHjEZDmFZNRaf2+Tah4aLGy/KSqayYZEI/+Y/C2TFkuDwccXXp7tlmUzXiA=;" vertex="1" parent="1">
                    <mxGeometry x="1340" y="400" width="260" height="131.08" as="geometry"/>
                </mxCell>
                <mxCell id="hMjZgbyv40eV81jTOW-D-16" value="" style="edgeStyle=none;html=1;fontSize=13;" edge="1" parent="1" source="hMjZgbyv40eV81jTOW-D-18" target="hMjZgbyv40eV81jTOW-D-20">
                    <mxGeometry relative="1" as="geometry"/>
                </mxCell>
                <mxCell id="hMjZgbyv40eV81jTOW-D-17" value="" style="edgeStyle=none;html=1;fontSize=10;exitX=0.5;exitY=1;exitDx=0;exitDy=0;entryX=0.5;entryY=0;entryDx=0;entryDy=0;" edge="1" parent="1" source="hMjZgbyv40eV81jTOW-D-18" target="hMjZgbyv40eV81jTOW-D-30">
                    <mxGeometry relative="1" as="geometry">
                        <mxPoint x="1195" y="805" as="targetPoint"/>
                    </mxGeometry>
                </mxCell>
                <mxCell id="hMjZgbyv40eV81jTOW-D-18" value="Is Header and Payload &lt;br&gt;of same type?&lt;br&gt;&lt;br&gt;by MIME sniffing" style="rhombus;whiteSpace=wrap;html=1;fontSize=13;fillColor=#33001A;fillStyle=solid;strokeWidth=2;" vertex="1" parent="1">
                    <mxGeometry x="1077.5" y="575" width="235" height="180" as="geometry"/>
                </mxCell>
                <mxCell id="hMjZgbyv40eV81jTOW-D-19" value="" style="edgeStyle=none;html=1;fontSize=10;entryX=1;entryY=0.5;entryDx=0;entryDy=0;" edge="1" parent="1" source="hMjZgbyv40eV81jTOW-D-20" target="hMjZgbyv40eV81jTOW-D-30">
                    <mxGeometry relative="1" as="geometry">
                        <mxPoint x="1240" y="845" as="targetPoint"/>
                        <Array as="points">
                            <mxPoint x="1440" y="845"/>
                        </Array>
                    </mxGeometry>
                </mxCell>
                <mxCell id="hMjZgbyv40eV81jTOW-D-20" value="MIME sniffing&amp;nbsp;&lt;br&gt;&lt;br&gt;If not present or unidentifiable&lt;br&gt;consider it as html" style="whiteSpace=wrap;html=1;fontSize=13;fillColor=#33001A;fillStyle=solid;strokeWidth=2;" vertex="1" parent="1">
                    <mxGeometry x="1372" y="625" width="140" height="80" as="geometry"/>
                </mxCell>
                <mxCell id="hMjZgbyv40eV81jTOW-D-21" value="Yes" style="text;html=1;align=center;verticalAlign=middle;resizable=0;points=[];autosize=1;strokeColor=none;fillColor=none;fontSize=13;" vertex="1" parent="1">
                    <mxGeometry x="1135" y="755" width="40" height="30" as="geometry"/>
                </mxCell>
                <mxCell id="hMjZgbyv40eV81jTOW-D-22" value="No" style="text;html=1;align=center;verticalAlign=middle;resizable=0;points=[];autosize=1;strokeColor=none;fillColor=none;fontSize=13;" vertex="1" parent="1">
                    <mxGeometry x="1310" y="630" width="40" height="30" as="geometry"/>
                </mxCell>
                <mxCell id="hMjZgbyv40eV81jTOW-D-23" value="&lt;font style=&quot;font-size: 10px;&quot;&gt;&lt;a style=&quot;box-sizing: border-box; color: var(--link-color, var(--color-primary)); text-decoration-skip-ink: auto; background-color: rgba(var(--link-rgb-background, var(--rgb-primary)),0.08); font-family: system-ui, -apple-system, BlinkMacSystemFont, &amp;quot;Segoe UI&amp;quot;, Roboto, Oxygen, Ubuntu, Cantarell, &amp;quot;Open Sans&amp;quot;, &amp;quot;Helvetica Neue&amp;quot;, sans-serif; text-align: start;&quot; href=&quot;https://developer.mozilla.org/docs/Web/HTTP/Basics_of_HTTP/MIME_types&quot;&gt;MIME Type sniffing&lt;/a&gt;&lt;span style=&quot;color: rgb(32, 33, 36); font-family: system-ui, -apple-system, BlinkMacSystemFont, &amp;quot;Segoe UI&amp;quot;, Roboto, Oxygen, Ubuntu, Cantarell, &amp;quot;Open Sans&amp;quot;, &amp;quot;Helvetica Neue&amp;quot;, sans-serif; text-align: start; background-color: rgb(255, 255, 255);&quot;&gt;&amp;nbsp;&lt;/span&gt;&lt;/font&gt;" style="html=1;strokeWidth=1;shadow=0;dashed=0;shape=mxgraph.ios7ui.url;fillColor=#e0e0e0;strokeColor=#c0c0c0;buttonText=;strokeColor2=#222222;fontColor=#222222;fontSize=8;spacingTop=2;align=center;fillStyle=solid;" vertex="1" parent="1">
                    <mxGeometry x="1385" y="575" width="127" height="30" as="geometry"/>
                </mxCell>
                <mxCell id="hMjZgbyv40eV81jTOW-D-24" value="IF not HTML (ZIP PDF etc)&lt;br&gt;&lt;br&gt;DOWNLOAD FILE" style="whiteSpace=wrap;html=1;fontSize=13;fillColor=#0E331B;fillStyle=solid;strokeWidth=2;" vertex="1" parent="1">
                    <mxGeometry x="900" y="955" width="145" height="70" as="geometry"/>
                </mxCell>
                <mxCell id="hMjZgbyv40eV81jTOW-D-25" value="" style="edgeStyle=none;html=1;fontSize=10;" edge="1" parent="1" source="hMjZgbyv40eV81jTOW-D-26" target="hMjZgbyv40eV81jTOW-D-27">
                    <mxGeometry relative="1" as="geometry"/>
                </mxCell>
                <mxCell id="hMjZgbyv40eV81jTOW-D-26" value="if Html" style="whiteSpace=wrap;html=1;fontSize=13;fillColor=#33001A;fillStyle=solid;strokeWidth=2;" vertex="1" parent="1">
                    <mxGeometry x="1340" y="960" width="120" height="60" as="geometry"/>
                </mxCell>
                <mxCell id="hMjZgbyv40eV81jTOW-D-27" value="Rendering Process" style="whiteSpace=wrap;html=1;fontSize=13;fillColor=#073303;fillStyle=solid;strokeWidth=2;" vertex="1" parent="1">
                    <mxGeometry x="1512" y="960" width="120" height="60" as="geometry"/>
                </mxCell>
                <mxCell id="hMjZgbyv40eV81jTOW-D-28" value="&lt;font style=&quot;font-size: 8px;&quot;&gt;&lt;span style=&quot;color: rgb(32, 33, 36); font-family: system-ui, -apple-system, BlinkMacSystemFont, &amp;quot;Segoe UI&amp;quot;, Roboto, Oxygen, Ubuntu, Cantarell, &amp;quot;Open Sans&amp;quot;, &amp;quot;Helvetica Neue&amp;quot;, sans-serif; text-align: start; background-color: rgb(255, 255, 255);&quot;&gt;&amp;nbsp;&lt;/span&gt;&lt;a style=&quot;box-sizing: border-box; color: var(--link-color, var(--color-primary)); text-decoration-skip-ink: auto; font-family: system-ui, -apple-system, BlinkMacSystemFont, &amp;quot;Segoe UI&amp;quot;, Roboto, Oxygen, Ubuntu, Cantarell, &amp;quot;Open Sans&amp;quot;, &amp;quot;Helvetica Neue&amp;quot;, sans-serif; text-align: start; background-color: rgb(255, 255, 255);&quot; href=&quot;https://cs.chromium.org/chromium/src/net/base/mime_sniffer.cc?sq=package:chromium&amp;amp;dr=CS&amp;amp;l=5&quot;&gt;More about this process in official docs&lt;/a&gt;&lt;span style=&quot;color: rgb(32, 33, 36); font-family: system-ui, -apple-system, BlinkMacSystemFont, &amp;quot;Segoe UI&amp;quot;, Roboto, Oxygen, Ubuntu, Cantarell, &amp;quot;Open Sans&amp;quot;, &amp;quot;Helvetica Neue&amp;quot;, sans-serif; text-align: start; background-color: rgb(255, 255, 255);&quot;&gt;.&amp;nbsp;&lt;/span&gt;&lt;/font&gt;" style="html=1;strokeWidth=1;shadow=0;dashed=0;shape=mxgraph.ios7ui.url;fillColor=#e0e0e0;strokeColor=#c0c0c0;buttonText=;strokeColor2=#222222;fontColor=#222222;fontSize=8;spacingTop=2;align=center;fillStyle=solid;" vertex="1" parent="1">
                    <mxGeometry x="1530" y="640" width="160" height="35" as="geometry"/>
                </mxCell>
                <mxCell id="hMjZgbyv40eV81jTOW-D-29" value="" style="edgeStyle=none;html=1;fontSize=12;" edge="1" parent="1" source="hMjZgbyv40eV81jTOW-D-30" target="hMjZgbyv40eV81jTOW-D-34">
                    <mxGeometry relative="1" as="geometry"/>
                </mxCell>
                <mxCell id="hMjZgbyv40eV81jTOW-D-30" value="&lt;span style=&quot;font-size: 12px;&quot;&gt;Safe Browsing checks&lt;br&gt;Show Alert if known malacious site, or domain&lt;br&gt;&lt;/span&gt;" style="rounded=1;whiteSpace=wrap;html=1;strokeWidth=2;fillWeight=4;hachureGap=8;hachureAngle=45;fillColor=#1ba1e2;sketch=1;fillStyle=solid;fontSize=8;" vertex="1" parent="1">
                    <mxGeometry x="1100" y="805" width="190" height="80" as="geometry"/>
                </mxCell>
                <mxCell id="hMjZgbyv40eV81jTOW-D-31" value="After safe browsing Check&lt;br&gt;&lt;br&gt;Browser assgins this html page to the renderer process&lt;br&gt;&lt;br&gt;after confirmation from the rederer process of starting the loading&lt;br&gt;&lt;br&gt;Navigation gets completed" style="whiteSpace=wrap;html=1;shape=mxgraph.basic.document;fillStyle=solid;strokeWidth=2;fontSize=12;fillColor=#333300;" vertex="1" parent="1">
                    <mxGeometry x="1490" y="720" width="180" height="200" as="geometry"/>
                </mxCell>
                <mxCell id="hMjZgbyv40eV81jTOW-D-32" value="" style="edgeStyle=none;html=1;fontSize=12;" edge="1" parent="1" source="hMjZgbyv40eV81jTOW-D-34" target="hMjZgbyv40eV81jTOW-D-26">
                    <mxGeometry relative="1" as="geometry"/>
                </mxCell>
                <mxCell id="hMjZgbyv40eV81jTOW-D-33" value="" style="edgeStyle=none;html=1;fontSize=12;" edge="1" parent="1" source="hMjZgbyv40eV81jTOW-D-34" target="hMjZgbyv40eV81jTOW-D-24">
                    <mxGeometry relative="1" as="geometry"/>
                </mxCell>
                <mxCell id="hMjZgbyv40eV81jTOW-D-34" value="&lt;font size=&quot;1&quot;&gt;Update the UI&lt;br&gt;(Address Bar, security icons )&lt;br&gt;&lt;br&gt;Records site url in history&amp;nbsp;&lt;br&gt;for forward backbard naviagtion features&lt;br&gt;&lt;/font&gt;" style="ellipse;whiteSpace=wrap;html=1;fontSize=8;fillColor=#33001a;rounded=1;strokeWidth=2;fillWeight=4;hachureGap=8;hachureAngle=45;sketch=1;fillStyle=solid;" vertex="1" parent="1">
                    <mxGeometry x="1106.75" y="920" width="176.5" height="140" as="geometry"/>
                </mxCell>
                <mxCell id="NTtgnPDMSFkQL0VUrwUR-1" value="&lt;span style=&quot;font-size: 18px;&quot;&gt;Navigating to a Different site&lt;/span&gt;" style="text;html=1;align=center;verticalAlign=middle;resizable=0;points=[];autosize=1;strokeColor=none;fillColor=#33001A;fillStyle=solid;strokeWidth=2;" vertex="1" parent="1">
                    <mxGeometry x="2170" y="106" width="244" height="34" as="geometry"/>
                </mxCell>
                <mxCell id="NTtgnPDMSFkQL0VUrwUR-2" value="" style="edgeStyle=none;html=1;fontSize=13;entryX=0;entryY=0.5;entryDx=0;entryDy=0;" edge="1" parent="1" source="NTtgnPDMSFkQL0VUrwUR-3" target="NTtgnPDMSFkQL0VUrwUR-5">
                    <mxGeometry relative="1" as="geometry">
                        <mxPoint x="2182" y="248" as="targetPoint"/>
                        <Array as="points">
                            <mxPoint x="2087" y="247"/>
                        </Array>
                    </mxGeometry>
                </mxCell>
                <mxCell id="NTtgnPDMSFkQL0VUrwUR-3" value="Input from UI&lt;br&gt;(www.website.com)" style="whiteSpace=wrap;html=1;fillStyle=solid;strokeWidth=2;fontSize=13;fillColor=#33001A;" vertex="1" parent="1">
                    <mxGeometry x="1895" y="218" width="120" height="60" as="geometry"/>
                </mxCell>
                <mxCell id="NTtgnPDMSFkQL0VUrwUR-4" value="" style="edgeStyle=none;html=1;fontSize=12;" edge="1" parent="1" source="NTtgnPDMSFkQL0VUrwUR-5">
                    <mxGeometry relative="1" as="geometry">
                        <mxPoint x="2412" y="247.9999999999999" as="targetPoint"/>
                    </mxGeometry>
                </mxCell>
                <mxCell id="NTtgnPDMSFkQL0VUrwUR-5" value="&lt;span style=&quot;font-size: 12px;&quot;&gt;BeforeUnload EVENT&lt;br&gt;&lt;br&gt;(It can create &quot;LEAVE THIS SITE?&quot;)&lt;br&gt;&lt;/span&gt;" style="rounded=1;whiteSpace=wrap;html=1;strokeWidth=2;fillWeight=4;hachureGap=8;hachureAngle=45;fillColor=#1ba1e2;sketch=1;fillStyle=solid;fontSize=8;" vertex="1" parent="1">
                    <mxGeometry x="2107" y="208" width="190" height="80" as="geometry"/>
                </mxCell>
                <mxCell id="NTtgnPDMSFkQL0VUrwUR-6" value="REST SAME AS SIMPLE NAVIGATION" style="whiteSpace=wrap;html=1;fillStyle=solid;strokeWidth=2;fontSize=13;fillColor=#33001A;" vertex="1" parent="1">
                    <mxGeometry x="2414" y="218" width="120" height="60" as="geometry"/>
                </mxCell>
                <mxCell id="NTtgnPDMSFkQL0VUrwUR-7" value="&lt;span style=&quot;font-size: 18px;&quot;&gt;Service Worker&lt;/span&gt;" style="text;html=1;align=center;verticalAlign=middle;resizable=0;points=[];autosize=1;strokeColor=none;fillColor=#33001A;fillStyle=solid;strokeWidth=2;" vertex="1" parent="1">
                    <mxGeometry x="1974" y="447" width="141" height="34" as="geometry"/>
                </mxCell>
                <mxCell id="NTtgnPDMSFkQL0VUrwUR-8" value="" style="edgeStyle=none;html=1;fontFamily=Helvetica;fontSize=12;" edge="1" parent="1" source="NTtgnPDMSFkQL0VUrwUR-9" target="NTtgnPDMSFkQL0VUrwUR-13">
                    <mxGeometry relative="1" as="geometry"/>
                </mxCell>
                <mxCell id="NTtgnPDMSFkQL0VUrwUR-9" value="Network Thread" style="whiteSpace=wrap;html=1;fillStyle=solid;strokeWidth=2;fontSize=13;fillColor=#33001A;" vertex="1" parent="1">
                    <mxGeometry x="1927" y="598" width="120" height="60" as="geometry"/>
                </mxCell>
                <mxCell id="NTtgnPDMSFkQL0VUrwUR-10" value="&lt;ul style=&quot;&quot;&gt;&lt;li&gt;Service worker is a way to write network proxy in your application code;&lt;/li&gt;&lt;li&gt;&lt;span style=&quot;background-color: initial;&quot;&gt;&amp;nbsp;allowing web developers to have more control over what to cache locally and when to get new data from the network.&lt;/span&gt;&lt;/li&gt;&lt;li&gt;If service worker is set to load the page from the cache, there is no need to request the data from the network.&lt;br&gt;&lt;/li&gt;&lt;li&gt;It is JS code that runs in renderer process&lt;/li&gt;&lt;/ul&gt;" style="text;whiteSpace=wrap;html=1;fontSize=12;fontFamily=Helvetica;" vertex="1" parent="1">
                    <mxGeometry x="2175" y="398" width="429" height="156" as="geometry"/>
                </mxCell>
                <mxCell id="NTtgnPDMSFkQL0VUrwUR-11" value="" style="edgeStyle=none;html=1;fontFamily=Helvetica;fontSize=12;entryX=0;entryY=0.5;entryDx=0;entryDy=0;" edge="1" parent="1" source="NTtgnPDMSFkQL0VUrwUR-13" target="NTtgnPDMSFkQL0VUrwUR-15">
                    <mxGeometry relative="1" as="geometry">
                        <mxPoint x="2390" y="628" as="targetPoint"/>
                    </mxGeometry>
                </mxCell>
                <mxCell id="NTtgnPDMSFkQL0VUrwUR-12" value="" style="edgeStyle=none;html=1;fontFamily=Helvetica;fontSize=12;" edge="1" parent="1" source="NTtgnPDMSFkQL0VUrwUR-13" target="NTtgnPDMSFkQL0VUrwUR-18">
                    <mxGeometry relative="1" as="geometry"/>
                </mxCell>
                <mxCell id="NTtgnPDMSFkQL0VUrwUR-13" value="&lt;div style=&quot;&quot;&gt;&lt;span style=&quot;background-color: initial; font-size: 12px;&quot;&gt;Is domain registered in service worker scopes&lt;/span&gt;&lt;/div&gt;" style="rhombus;whiteSpace=wrap;html=1;fontSize=13;fillColor=#33001A;fillStyle=solid;strokeWidth=2;align=center;" vertex="1" parent="1">
                    <mxGeometry x="2132" y="554" width="160" height="144" as="geometry"/>
                </mxCell>
                <mxCell id="NTtgnPDMSFkQL0VUrwUR-14" value="No" style="text;html=1;align=center;verticalAlign=middle;resizable=0;points=[];autosize=1;strokeColor=none;fillColor=none;fontSize=12;fontFamily=Helvetica;" vertex="1" parent="1">
                    <mxGeometry x="2322" y="601.45" width="33" height="26" as="geometry"/>
                </mxCell>
                <mxCell id="NTtgnPDMSFkQL0VUrwUR-15" value="Load data from server" style="whiteSpace=wrap;html=1;shadow=0;labelBackgroundColor=none;fillStyle=solid;strokeWidth=2;fontFamily=Helvetica;fontSize=12;fillColor=#1ba1e2;" vertex="1" parent="1">
                    <mxGeometry x="2378" y="598" width="120" height="60" as="geometry"/>
                </mxCell>
                <mxCell id="NTtgnPDMSFkQL0VUrwUR-16" value="" style="edgeStyle=none;html=1;fontFamily=Helvetica;fontSize=12;" edge="1" parent="1" source="NTtgnPDMSFkQL0VUrwUR-18" target="NTtgnPDMSFkQL0VUrwUR-20">
                    <mxGeometry relative="1" as="geometry"/>
                </mxCell>
                <mxCell id="NTtgnPDMSFkQL0VUrwUR-17" style="edgeStyle=none;html=1;entryX=0;entryY=1;entryDx=0;entryDy=0;fontFamily=Helvetica;fontSize=12;" edge="1" parent="1" source="NTtgnPDMSFkQL0VUrwUR-18" target="NTtgnPDMSFkQL0VUrwUR-15">
                    <mxGeometry relative="1" as="geometry">
                        <Array as="points">
                            <mxPoint x="2360" y="798"/>
                        </Array>
                    </mxGeometry>
                </mxCell>
                <mxCell id="NTtgnPDMSFkQL0VUrwUR-18" value="UI Thread finds renderer process&lt;br&gt;&lt;br&gt;It execute service worker code" style="whiteSpace=wrap;html=1;fontSize=13;fillColor=#33001A;fillStyle=solid;strokeWidth=2;" vertex="1" parent="1">
                    <mxGeometry x="2134" y="772" width="156" height="87" as="geometry"/>
                </mxCell>
                <mxCell id="NTtgnPDMSFkQL0VUrwUR-19" value="Yes" style="text;html=1;align=center;verticalAlign=middle;resizable=0;points=[];autosize=1;strokeColor=none;fillColor=none;fontSize=12;fontFamily=Helvetica;" vertex="1" parent="1">
                    <mxGeometry x="2155.5" y="721.8900000000001" width="38" height="26" as="geometry"/>
                </mxCell>
                <mxCell id="NTtgnPDMSFkQL0VUrwUR-20" value="Load from cache" style="whiteSpace=wrap;html=1;shadow=0;labelBackgroundColor=none;fillStyle=solid;strokeWidth=2;fontFamily=Helvetica;fontSize=12;fillColor=#1ba1e2;" vertex="1" parent="1">
                    <mxGeometry x="2391" y="786" width="120" height="60" as="geometry"/>
                </mxCell>
                <mxCell id="NTtgnPDMSFkQL0VUrwUR-21" value="&lt;span style=&quot;font-size: 18px;&quot;&gt;Navigation preload&lt;/span&gt;" style="text;html=1;align=center;verticalAlign=middle;resizable=0;points=[];autosize=1;strokeColor=none;fillColor=#33001A;fillStyle=solid;strokeWidth=2;" vertex="1" parent="1">
                    <mxGeometry x="1879" y="935" width="168" height="34" as="geometry"/>
                </mxCell>
                <mxCell id="NTtgnPDMSFkQL0VUrwUR-22" value="&lt;font style=&quot;font-size: 14px;&quot;&gt;Network request and Service Worker Startup is Done in Parallel&lt;/font&gt;" style="text;html=1;align=center;verticalAlign=middle;resizable=0;points=[];autosize=1;strokeColor=none;fillColor=none;fontSize=12;fontFamily=Helvetica;" vertex="1" parent="1">
                    <mxGeometry x="1966" y="996" width="412" height="29" as="geometry"/>
                </mxCell>
            </root>
        </mxGraphModel>
    </diagram>
</mxfile>